<svg class="img-fluid" id="outputsvg" xmlns="http://www.w3.org/2000/svg" style="transform: matrix(1, 0, 0, 1, 0, 0); transform-origin: 50% 50%; cursor: move;" width="887" height="960" viewBox="0 0 8870 9600"><g id="l5DqRvGXSgvs57tGrfnu23E" fill="rgb(23,49,59)" style="transform: none;"><g><path id="pmATJ8BQd" d="M3475 8479 c-1432 -786 -1607 -881 -2252 -1235 l-602 -329 -3 -380 -3 -380 -202 -3 -203 -2 0 -1350 0 -1350 205 0 205 0 0 -383 0 -384 773 -423 c424 -233 1074 -589 1442 -790 1634 -896 1567 -860 1613 -860 37 0 144 56 870 453 1333 731 2273 1246 2629 1441 l332 181 1 383 0 382 190 0 190 0 0 1350 0 1350 -190 0 -190 0 0 374 0 375 -32 24 c-18 14 -184 107 -368 207 -184 101 -562 308 -840 460 -278 152 -840 460 -1250 685 -410 224 -871 477 -1025 562 -232 127 -287 153 -320 153 -34 -1 -189 -83 -970 -511z m1038 349 c34 -18 64 -35 67 -39 3 -3 23 -15 45 -26 22 -12 114 -62 205 -112 91 -50 171 -91 178 -91 6 0 12 -4 12 -10 0 -5 5 -10 10 -10 6 0 22 -8 37 -17 29 -20 208 -117 293 -160 30 -16 57 -31 60 -34 3 -3 23 -14 45 -25 22 -11 96 -52 165 -90 69 -39 163 -91 210 -116 47 -25 157 -86 245 -134 88 -49 187 -103 220 -119 33 -17 62 -33 65 -36 7 -7 351 -196 387 -212 15 -6 39 -20 53 -29 35 -23 143 -83 220 -121 36 -17 67 -35 70 -38 3 -4 21 -14 40 -23 19 -9 67 -34 105 -56 39 -22 86 -48 105 -57 19 -10 37 -21 40 -24 3 -3 52 -30 110 -60 58 -30 107 -57 110 -60 3 -3 19 -12 35 -21 30 -15 91 -48 203 -110 31 -18 84 -46 117 -64 79 -41 100 -53 158 -87 l47 -29 0 -454 0 -454 -3722 2 -3723 3 -3 435 c-1 239 0 444 2 456 3 11 18 27 33 35 16 8 30 16 33 20 3 3 25 15 50 27 76 38 359 190 375 203 6 4 39 23 75 42 149 78 226 121 251 138 15 10 38 23 52 28 15 6 59 29 99 52 114 65 148 84 303 167 39 21 95 52 125 69 30 16 84 46 120 65 147 78 225 122 230 128 3 3 25 14 49 25 24 11 49 24 55 30 6 6 31 21 56 33 25 12 79 40 120 63 41 23 89 48 105 57 17 8 32 18 35 21 3 3 48 28 100 55 52 27 102 55 110 61 8 7 33 20 55 29 21 9 42 20 45 24 3 4 30 19 60 35 30 15 75 39 100 54 25 14 77 42 115 63 39 20 86 46 105 57 19 12 73 41 120 65 46 23 99 53 117 65 17 12 51 31 75 42 45 22 114 59 208 112 30 17 82 45 115 63 33 18 98 53 145 79 47 25 86 47 88 47 2 0 31 -15 65 -32z m-323 -3514 c57 -28 110 -32 110 -9 0 22 125 22 134 -1 3 -9 6 -162 6 -340 l0 -324 -69 0 -70 0 -3 233 c-3 199 -6 237 -21 264 -38 68 -112 97 -234 92 -92 -5 -110 -15 -143 -83 -18 -39 -20 -62 -20 -274 l0 -232 -55 0 -55 0 0 217 c0 230 9 292 54 358 83 121 235 162 366 99z m-1221 10 c36 -9 70 -20 76 -25 5 -5 15 -9 22 -9 13 0 69 -35 113 -70 14 -11 28 -20 33 -20 17 0 5 -25 -25 -52 -17 -15 -33 -28 -35 -28 -2 0 -21 13 -44 29 -107 78 -309 102 -437 51 -34 -13 -62 -28 -62 -32 0 -5 -6 -8 -13 -8 -15 0 -97 -78 -97 -92 0 -5 -7 -16 -15 -24 -45 -46 -67 -229 -41 -344 22 -95 26 -102 95 -181 119 -135 382 -155 559 -42 l54 35 26 -24 c15 -12 30 -27 34 -33 8 -10 -58 -75 -76 -75 -5 0 -17 -6 -25 -14 -32 -28 -165 -67 -247 -73 -71 -5 -92 -2 -170 23 -78 25 -132 51 -171 84 -7 5 -16 10 -20 10 -13 0 -86 90 -121 149 -54 93 -75 178 -70 279 5 89 40 210 71 248 9 10 29 36 45 56 123 157 342 231 541 182z m2687 -34 l85 -43 -23 -24 c-40 -43 -55 -46 -101 -24 -93 45 -250 35 -326 -20 -60 -45 -81 -97 -81 -202 0 -104 13 -139 68 -189 53 -48 105 -61 217 -56 70 4 100 10 132 28 l42 23 31 -34 c16 -19 30 -38 30 -42 0 -14 -140 -76 -199 -88 -93 -19 -226 15 -307 78 -230 182 -162 520 125 621 53 18 82 22 144 19 68 -3 89 -9 163 -47z m-2115 -195 c1 -121 1 -361 0 -532 l-1 -313 -75 0 -75 0 0 158 c0 86 -2 294 -4 462 -2 168 -1 338 2 378 l5 73 73 -3 74 -3 1 -220z m1301 -72 l3 -298 68 -3 67 -3 0 -39 0 -40 -64 0 c-49 0 -65 -4 -70 -16 -3 -9 -6 -69 -6 -135 l0 -119 -80 0 -79 0 -3 133 -3 132 -57 3 -58 3 0 39 0 40 60 0 60 0 0 300 0 300 80 0 80 0 2 -297z m1198 75 c1 -255 5 -271 78 -323 42 -28 49 -30 142 -30 92 0 99 2 123 26 15 14 31 38 37 53 6 16 10 123 10 262 l0 234 71 0 72 0 -5 -232 c-5 -221 -6 -236 -30 -288 -41 -89 -101 -138 -203 -165 -68 -17 -106 -13 -184 21 -29 13 -66 24 -82 24 l-29 0 0 -215 0 -215 -65 0 -65 0 0 535 0 535 65 0 65 0 0 -222z m-529 -41 c47 -32 66 -68 54 -104 -12 -32 -68 -73 -100 -73 -32 0 -88 41 -100 73 -7 21 -6 35 6 55 15 28 73 72 94 72 7 0 27 -10 46 -23z m2659 -1825 c0 -425 -1 -458 -17 -468 -10 -6 -54 -30 -98 -54 -44 -24 -136 -75 -205 -113 -69 -39 -152 -85 -185 -102 -33 -18 -80 -43 -105 -57 -25 -14 -85 -46 -135 -73 -49 -27 -92 -51 -95 -54 -3 -3 -23 -15 -45 -26 -22 -10 -80 -42 -130 -69 -49 -27 -103 -56 -120 -64 -16 -9 -32 -18 -35 -22 -3 -3 -30 -18 -60 -33 -30 -15 -73 -38 -95 -50 -22 -13 -65 -37 -95 -54 -30 -16 -73 -40 -95 -53 -22 -12 -71 -39 -110 -58 -38 -19 -72 -38 -75 -41 -3 -3 -18 -13 -35 -21 -63 -31 -270 -144 -275 -150 -3 -3 -20 -12 -38 -20 -19 -7 -39 -18 -45 -24 -7 -6 -37 -24 -67 -39 -53 -26 -119 -62 -225 -122 -27 -15 -68 -37 -90 -48 -22 -11 -42 -22 -45 -26 -5 -6 -66 -39 -155 -84 -22 -11 -42 -23 -45 -27 -3 -5 -30 -20 -60 -34 -30 -14 -82 -40 -115 -59 -33 -18 -100 -55 -150 -82 -49 -27 -107 -59 -127 -72 -21 -13 -42 -23 -47 -23 -5 0 -16 -6 -23 -13 -7 -6 -37 -23 -65 -36 -29 -14 -53 -27 -53 -31 0 -3 -16 -12 -35 -19 -19 -7 -40 -18 -47 -24 -7 -7 -33 -21 -57 -32 -24 -11 -49 -24 -55 -30 -6 -5 -49 -29 -94 -53 -60 -31 -86 -39 -95 -32 -13 12 -51 33 -147 82 -36 18 -70 37 -77 44 -6 6 -26 17 -45 24 -18 8 -35 17 -38 20 -3 3 -66 39 -140 80 -74 40 -223 122 -332 182 -108 59 -199 108 -202 108 -4 0 -23 11 -44 24 -41 27 -180 104 -257 142 -27 14 -77 41 -110 60 -33 18 -85 46 -115 61 -30 16 -61 34 -68 41 -7 6 -17 12 -22 12 -5 0 -33 14 -62 31 -29 17 -84 48 -123 69 -38 21 -116 63 -171 94 -56 31 -107 56 -113 56 -6 0 -11 4 -11 9 0 4 -26 20 -57 35 -32 14 -80 39 -108 56 -27 16 -79 45 -115 63 -36 19 -81 44 -100 55 -19 12 -60 34 -90 49 -30 15 -59 31 -65 36 -11 9 -49 30 -135 74 -30 15 -57 31 -60 34 -3 4 -21 14 -40 23 -19 9 -62 32 -95 51 -33 19 -89 50 -125 67 -36 18 -67 36 -70 40 -3 4 -26 17 -50 29 -25 11 -72 36 -105 55 -33 18 -80 44 -105 56 -25 12 -50 27 -57 34 -6 6 -26 17 -45 24 -18 8 -35 17 -38 20 -3 4 -29 17 -57 30 -29 13 -53 27 -53 31 0 4 -13 12 -30 18 l-30 10 0 454 c0 249 3 457 7 460 3 4 1680 7 3725 7 l3718 0 0 -458z"></path><path id="pjDTLpXX3" d="M4136 7999 c-36 -22 -65 -61 -72 -95 -3 -18 -4 -89 -2 -156 5 -180 30 -213 164 -213 57 0 76 4 93 19 38 35 52 78 58 176 7 123 -8 201 -49 243 -27 29 -36 32 -101 35 -43 1 -80 -2 -91 -9z m105 -126 c22 -25 19 -187 -3 -209 -50 -50 -84 98 -46 199 12 31 29 35 49 10z"></path><path id="p13jYczWh6" d="M3690 7928 c0 -82 21 -130 65 -150 14 -6 25 -15 25 -20 0 -4 5 -8 11 -8 6 0 26 -15 46 -34 44 -41 41 -72 -7 -62 -17 3 -44 9 -61 12 -46 10 -79 -12 -79 -51 0 -54 28 -69 132 -74 122 -4 148 9 169 83 24 89 -4 145 -112 226 l-47 35 82 5 81 5 3 32 c2 18 -2 41 -8 53 -10 19 -20 20 -155 20 l-145 0 0 -72z"></path><path id="p16YTAvOjo" d="M4441 7921 c4 -76 6 -82 39 -116 19 -20 55 -49 80 -65 57 -37 75 -63 54 -81 -12 -9 -22 -9 -52 0 -20 7 -53 11 -72 9 -34 -3 -35 -4 -38 -50 -3 -43 -1 -48 27 -62 21 -11 58 -16 119 -16 80 0 92 2 118 25 25 22 29 32 32 93 4 76 -12 123 -49 143 -11 6 -30 19 -42 29 -12 10 -33 28 -47 39 l-25 20 83 1 82 0 0 55 0 55 -156 0 -156 0 3 -79z"></path><path id="p19SVQCTyD" d="M4832 7948 l3 -53 48 -3 47 -3 0 -93 0 -93 -30 5 c-16 2 -41 1 -55 -2 -22 -6 -25 -12 -25 -49 0 -40 3 -44 55 -80 50 -35 60 -38 112 -35 l58 3 3 172 2 172 38 3 37 3 3 53 3 52 -151 0 -151 0 3 -52z"></path><path id="pCqxy4LEd" d="M3594 7027 c-2 -7 -3 -109 -2 -227 l3 -215 58 -3 57 -3 0 231 0 230 -55 0 c-36 0 -57 -5 -61 -13z"></path><path id="pjHZSxWy" d="M3804 7027 c-2 -7 -3 -109 -2 -227 l3 -215 65 -3 65 -3 60 107 60 106 3 -106 3 -106 54 0 55 0 0 230 0 230 -63 0 c-72 0 -75 -2 -137 -125 -46 -91 -50 -89 -50 23 l0 102 -55 0 c-36 0 -57 -5 -61 -13z"></path><path id="pcqSXxJbz" d="M4270 6816 l0 -225 56 -7 c90 -11 201 0 232 23 53 39 63 75 60 213 -3 139 -12 165 -71 200 -27 17 -51 20 -154 20 l-123 0 0 -224z m210 82 c23 -38 27 -143 7 -169 -17 -23 -52 -39 -81 -39 l-26 0 0 120 0 120 40 0 c35 0 43 -5 60 -32z"></path><path id="pwyoipVHO" d="M4700 6833 c0 -114 3 -218 6 -230 7 -26 43 -31 89 -13 l25 10 -2 217 -3 218 -57 3 -58 3 0 -208z"></path><path id="p92elx1y5" d="M4870 7005 c0 -37 36 -163 51 -179 5 -6 9 -18 9 -27 0 -10 16 -63 36 -118 l36 -101 63 0 63 0 66 198 c36 109 66 212 66 230 l0 32 -59 0 -59 0 -17 -51 -17 -50 -45 3 c-44 3 -46 5 -63 48 l-18 45 -56 3 -56 3 0 -36z m203 -186 c-4 -16 -8 -17 -14 -7 -13 19 -11 28 5 28 9 0 12 -7 9 -21z"></path><path id="pJg8oWmIY" d="M1230 6115 l0 -45 3205 0 3205 0 0 45 0 45 -3205 0 -3205 0 0 -45z"></path><path id="p1GKccFMkS" d="M1230 3480 l0 -40 3205 0 3205 0 0 40 0 40 -3205 0 -3205 0 0 -40z"></path><path id="pfG3xRWDN" d="M1910 2999 c-36 -134 -73 -302 -77 -356 l-5 -63 55 0 56 0 23 103 24 102 23 -85 c12 -47 24 -91 26 -98 3 -9 23 -12 66 -10 l61 3 23 88 c12 48 24 90 27 92 2 2 14 -40 27 -95 l22 -100 60 0 c57 0 59 1 59 25 0 28 -84 376 -100 413 -9 21 -16 23 -68 20 l-57 -3 -23 -85 c-13 -47 -26 -92 -29 -100 -3 -8 -17 30 -32 85 l-27 100 -61 3 -62 3 -11 -42z"></path><path id="pErBeQfTz" d="M2436 3024 c-3 -8 -6 -112 -6 -230 l0 -214 140 0 140 0 0 55 0 55 -80 0 -80 0 0 30 0 29 73 3 72 3 3 54 3 54 -75 -7 -76 -7 0 41 0 40 86 0 85 0 -3 53 -3 52 -136 3 c-118 2 -137 0 -143 -14z"></path><path id="pZNLANqk" d="M2797 3033 c-4 -3 -7 -107 -7 -230 l0 -223 128 0 c120 0 131 2 155 23 33 28 44 93 27 156 -9 34 -9 46 0 51 8 5 11 33 9 89 -5 93 -20 116 -85 131 -45 11 -218 13 -227 3z m181 -124 c17 -26 3 -44 -40 -54 -27 -7 -28 -6 -28 34 0 38 2 41 28 41 17 0 32 -8 40 -21z m-18 -177 c28 -23 19 -42 -21 -42 -26 0 -29 3 -29 30 0 35 17 39 50 12z"></path><path id="pqdZ9Wzb" d="M3378 3034 c-5 -4 -8 -108 -8 -231 l0 -223 125 0 c158 0 185 10 216 76 19 43 21 61 17 164 -7 187 -33 212 -228 218 -63 2 -118 0 -122 -4z m177 -119 c21 -8 39 -25 45 -40 15 -38 12 -112 -5 -144 -16 -32 -33 -41 -76 -41 l-29 0 0 120 c0 133 0 133 65 105z"></path><path id="pKnQtSbKY" d="M3823 3034 c-10 -4 -13 -60 -13 -230 l0 -224 140 0 140 0 0 39 c0 69 -3 71 -92 71 l-79 0 3 28 c3 26 5 27 76 30 l72 3 0 56 0 56 -62 -6 c-74 -8 -91 0 -86 39 l3 29 83 3 83 3 -3 52 -3 52 -125 2 c-69 1 -131 -1 -137 -3z"></path><path id="pFJAE1Cre" d="M4263 3028 c-6 -7 -34 -87 -63 -178 -29 -91 -56 -173 -61 -182 -5 -10 -9 -34 -9 -53 l0 -35 60 0 59 0 38 122 37 121 18 -59 c9 -32 22 -68 27 -79 5 -11 14 -39 20 -62 l12 -43 59 0 60 0 -1 33 c0 17 -31 120 -67 227 l-67 195 -56 3 c-37 2 -59 -1 -66 -10z"></path><path id="pz6Rb4bl8" d="M4577 3033 c-4 -3 -7 -107 -7 -230 l0 -223 140 0 140 0 0 55 0 55 -80 0 -80 0 0 30 0 30 75 0 75 0 0 49 0 49 -75 7 -75 7 0 34 0 34 80 0 80 0 0 55 0 55 -133 0 c-74 0 -137 -3 -140 -7z"></path><path id="pJNZS5eQS" d="M4936 3024 c-3 -9 -6 -112 -6 -230 l0 -214 60 0 60 0 0 175 0 175 80 0 80 0 0 55 0 55 -134 0 c-113 0 -135 -2 -140 -16z"></path><path id="pxYtw6YaQ" d="M5328 3011 c-41 -26 -48 -35 -58 -84 -18 -79 -9 -234 15 -276 36 -61 66 -76 163 -79 101 -4 144 13 177 69 17 29 20 52 20 159 0 197 -33 240 -187 240 -76 0 -89 -3 -130 -29z m159 -89 c19 -12 43 -78 43 -117 0 -115 -97 -168 -134 -74 -36 89 -7 199 51 199 16 0 33 -4 40 -8z"></path><path id="p0GibRVPC" d="M5730 2810 l0 -230 123 0 c122 0 124 0 156 29 29 26 34 37 38 93 7 80 -10 143 -43 164 -14 10 -55 19 -94 22 l-70 5 0 73 0 74 -55 0 -55 0 0 -230z m184 -52 c9 -12 16 -26 16 -30 0 -17 -34 -38 -61 -38 -28 0 -29 2 -29 45 0 43 1 45 29 45 20 0 35 -8 45 -22z"></path><path id="p8WzndilU" d="M6117 3034 c-4 -4 -7 -108 -7 -231 l0 -223 140 0 140 0 0 55 0 55 -80 0 -80 0 0 30 0 30 75 0 75 0 0 55 0 55 -75 0 -75 0 0 35 0 35 86 0 85 0 -3 53 -3 52 -136 3 c-74 1 -138 -1 -142 -4z"></path><path id="pafuUfHQi" d="M6479 3038 c0 -2 -1 -105 -3 -230 l-2 -228 122 0 c138 0 168 9 184 53 15 45 13 144 -5 171 -12 18 -13 29 -5 51 6 16 14 64 17 107 l6 79 -54 -3 -54 -3 -13 -45 c-24 -81 -35 -102 -56 -110 -20 -7 -21 -3 -26 74 l-5 81 -52 3 c-29 2 -53 2 -54 0z m181 -297 c16 -31 2 -51 -36 -51 -32 0 -34 2 -34 35 0 32 2 35 30 35 19 0 33 -7 40 -19z"></path><path id="p16hP6OZqD" d="M6878 3024 c-23 -12 -28 -21 -28 -52 0 -55 10 -65 61 -59 24 3 56 8 72 12 29 8 62 -10 51 -27 -3 -5 -39 -25 -80 -45 -87 -41 -104 -65 -104 -150 0 -97 45 -133 162 -132 91 0 132 17 136 53 6 46 -16 76 -54 76 -18 0 -44 -4 -58 -10 -30 -11 -56 -4 -56 16 0 12 25 26 98 54 18 7 44 26 58 43 24 28 26 37 22 102 -3 74 -16 98 -65 124 -32 16 -182 13 -215 -5z"></path><path id="pwX3lEN4k" d="M3930 1905 l0 -175 -60 0 -60 0 0 -55 0 -55 180 0 180 0 0 49 c0 56 -6 61 -81 61 l-49 0 0 175 0 175 -55 0 -55 0 0 -175z"></path><path id="pl2E201gb" d="M4272 2060 c-51 -31 -66 -77 -66 -205 0 -122 12 -171 50 -204 38 -33 68 -41 147 -41 82 0 128 18 161 63 18 24 22 46 24 152 5 144 -12 199 -70 235 -48 29 -198 29 -246 0z m158 -100 c24 -13 40 -62 40 -121 0 -59 -14 -93 -47 -110 -40 -21 -75 5 -90 66 -28 112 25 203 97 165z"></path><path id="pVBSGrH95" d="M4679 2078 c0 -2 -1 -105 -2 -231 l-2 -227 117 0 c129 0 162 9 184 51 18 35 18 164 1 199 -17 35 -73 60 -134 60 l-52 0 -3 73 -3 72 -52 3 c-29 2 -53 2 -54 0z m173 -275 c35 -31 16 -73 -34 -73 -27 0 -28 2 -28 45 0 40 3 45 22 45 12 0 30 -7 40 -17z"></path></g></g><g id="l36qfHkAxGJBb9tT8JNeOo1" fill="rgb(106,121,125)" style="transform: none;"><g><path id="p1FZmNMZ4o" d="M4110 9409 c-173 -94 -346 -187 -385 -208 -59 -33 -815 -441 -1015 -549 -36 -19 -87 -47 -115 -62 -27 -15 -248 -134 -490 -265 -242 -130 -492 -265 -555 -300 -63 -34 -144 -78 -180 -97 -128 -69 -928 -502 -1105 -598 -99 -53 -199 -107 -223 -119 l-42 -21 0 -2393 0 -2393 63 -31 c34 -18 94 -50 132 -71 39 -21 162 -88 275 -149 113 -61 367 -198 565 -305 198 -107 587 -318 865 -468 278 -150 528 -285 555 -300 28 -15 277 -150 555 -300 278 -150 528 -285 555 -300 28 -15 106 -58 175 -95 69 -37 148 -80 175 -95 28 -15 95 -51 150 -80 55 -29 134 -72 175 -95 41 -23 102 -56 135 -73 70 -35 42 -42 245 68 69 37 161 87 205 110 44 24 103 55 130 70 28 15 106 58 175 95 69 37 148 80 175 95 28 15 277 150 555 300 278 150 528 285 555 300 28 15 277 150 555 300 278 150 667 361 865 468 198 107 452 244 565 305 113 61 237 128 275 149 39 21 98 53 133 71 l62 31 0 2393 0 2393 -42 21 c-24 12 -124 66 -223 119 -177 96 -977 529 -1105 598 -36 19 -117 63 -180 97 -63 35 -313 170 -555 300 -242 131 -462 250 -490 265 -27 15 -79 43 -115 62 -769 415 -951 514 -985 533 -228 125 -734 395 -741 395 -5 0 -151 -77 -324 -171z m470 -23 c25 -15 70 -38 100 -53 30 -15 66 -34 80 -43 14 -10 81 -46 150 -82 69 -36 143 -76 165 -88 22 -13 67 -38 100 -55 94 -50 216 -115 265 -143 25 -13 77 -42 115 -62 39 -21 97 -52 130 -70 33 -18 96 -52 140 -75 44 -23 97 -52 118 -64 22 -12 78 -42 125 -68 48 -25 92 -49 97 -53 6 -4 64 -36 130 -70 66 -35 145 -77 175 -95 30 -18 100 -56 155 -85 184 -97 230 -121 295 -157 35 -20 91 -50 125 -68 33 -17 85 -45 115 -62 131 -73 189 -104 390 -210 47 -25 99 -53 115 -63 45 -26 162 -90 225 -122 30 -16 73 -39 95 -51 22 -13 81 -45 130 -71 123 -66 319 -173 380 -206 28 -15 85 -46 128 -69 43 -23 93 -50 110 -60 l32 -18 3 -2327 2 -2326 -27 -11 c-15 -6 -30 -13 -33 -17 -5 -7 -30 -20 -180 -98 -36 -19 -72 -38 -80 -44 -15 -9 -167 -92 -295 -160 -38 -21 -99 -54 -135 -73 -102 -56 -147 -80 -265 -142 -60 -31 -115 -61 -121 -66 -6 -5 -42 -25 -80 -45 -38 -19 -96 -50 -129 -68 -93 -50 -201 -108 -300 -161 -49 -26 -115 -62 -145 -79 -30 -18 -68 -39 -85 -47 -16 -7 -32 -16 -35 -19 -3 -3 -52 -30 -110 -59 -58 -29 -109 -57 -115 -61 -5 -4 -48 -28 -95 -52 -47 -25 -103 -55 -125 -68 -22 -12 -83 -45 -135 -72 -100 -53 -180 -97 -245 -135 -22 -13 -67 -37 -100 -53 -33 -17 -71 -37 -85 -45 -24 -14 -177 -97 -290 -157 -30 -16 -62 -33 -70 -38 -8 -5 -132 -72 -275 -149 -143 -76 -377 -202 -519 -279 l-260 -141 -30 16 c-17 9 -139 74 -271 146 -132 71 -271 147 -310 167 -38 21 -119 64 -180 97 -60 33 -148 81 -195 105 -47 25 -105 57 -130 70 -25 14 -97 53 -160 87 -63 33 -126 68 -140 76 -14 8 -52 28 -85 45 -33 16 -78 40 -100 53 -65 38 -145 82 -245 135 -52 27 -113 60 -135 72 -22 13 -78 43 -125 68 -47 24 -89 48 -95 52 -5 4 -57 32 -115 61 -58 29 -107 56 -110 59 -3 3 -23 14 -45 25 -22 11 -56 29 -75 41 -19 11 -80 44 -135 74 -55 29 -134 71 -175 93 -41 23 -101 55 -132 71 -31 17 -110 60 -175 95 -65 35 -152 82 -193 104 -84 45 -135 72 -230 124 -36 19 -96 52 -135 73 -128 68 -280 151 -295 160 -8 6 -44 25 -80 44 -150 78 -175 91 -180 98 -3 4 -18 11 -33 17 l-27 11 2 2326 3 2327 32 18 c17 10 67 37 110 60 43 23 101 54 128 69 61 33 257 140 380 206 50 26 108 58 130 71 22 12 65 35 95 51 63 32 180 96 225 122 17 10 68 38 115 63 47 24 112 59 145 77 33 18 87 48 120 65 33 18 87 47 120 65 33 19 92 50 130 70 39 20 90 48 115 62 25 15 79 44 120 66 219 115 258 136 295 157 64 36 124 69 220 120 50 26 125 67 167 91 43 24 80 44 83 44 3 0 52 26 108 58 56 33 116 66 132 74 17 8 66 34 110 58 44 24 107 57 140 75 33 18 80 44 105 57 48 27 122 67 265 143 50 26 120 65 157 86 36 22 69 39 72 39 3 0 47 23 98 52 51 28 125 68 163 88 75 39 172 92 219 121 33 20 23 24 176 -65z"></path><path id="pTlZp85gS" d="M4335 9287 c-33 -18 -107 -58 -165 -88 -58 -29 -107 -56 -110 -59 -3 -3 -57 -32 -120 -64 -63 -32 -126 -66 -140 -75 -14 -9 -52 -30 -85 -46 -33 -16 -85 -43 -115 -61 -30 -17 -102 -56 -160 -86 -58 -30 -125 -67 -150 -80 -25 -14 -83 -46 -130 -70 -47 -25 -114 -61 -150 -80 -36 -20 -96 -53 -135 -73 -38 -21 -101 -55 -140 -76 -136 -73 -200 -107 -430 -229 -55 -29 -125 -66 -155 -83 -30 -16 -89 -48 -130 -70 -41 -22 -95 -51 -120 -65 -25 -14 -81 -44 -125 -67 -126 -67 -256 -136 -310 -166 -27 -16 -75 -41 -105 -57 -30 -15 -86 -45 -125 -66 -84 -47 -182 -99 -335 -178 -63 -33 -135 -72 -160 -86 -25 -14 -67 -37 -95 -51 -27 -14 -54 -29 -60 -33 -5 -5 -41 -25 -80 -45 -38 -20 -95 -50 -125 -66 -30 -17 -81 -43 -112 -59 l-58 -28 0 -495 c0 -433 2 -495 15 -495 8 0 15 7 15 15 0 12 32 15 203 17 l202 3 3 380 3 380 602 329 c331 182 755 414 942 516 2239 1229 2246 1233 2274 1220 14 -6 148 -78 296 -160 270 -148 1168 -640 2350 -1287 347 -190 729 -400 850 -466 121 -66 235 -131 253 -144 l32 -24 0 -375 0 -374 190 0 c162 0 190 -2 190 -15 0 -8 7 -15 15 -15 13 0 15 62 15 495 l0 495 -57 28 c-32 16 -89 46 -128 67 -38 21 -95 51 -125 66 -30 16 -59 32 -65 37 -5 4 -32 19 -60 33 -27 14 -70 37 -95 51 -25 14 -97 53 -160 85 -144 75 -267 140 -345 183 -33 18 -88 48 -123 67 -35 18 -82 44 -105 57 -23 13 -82 45 -132 71 -191 101 -232 122 -285 152 -30 17 -89 48 -130 70 -41 22 -100 54 -130 70 -30 17 -100 54 -155 83 -113 59 -223 118 -305 163 -30 16 -92 49 -136 72 -45 24 -92 49 -105 58 -22 13 -73 40 -324 172 -44 23 -98 52 -120 65 -22 13 -87 48 -145 78 -58 30 -130 69 -160 86 -30 18 -82 45 -115 61 -33 16 -71 37 -85 46 -14 9 -77 43 -140 75 -63 32 -117 61 -120 64 -6 6 -24 15 -212 114 -151 78 -175 81 -263 33z"></path><path id="phXTLTZhS" d="M4408 8886 c-26 -20 -22 -26 17 -26 28 0 35 4 35 20 0 23 -26 26 -52 6z"></path><path id="pG94UBr4V" d="M4490 8855 c0 -18 5 -25 20 -25 11 0 20 -4 20 -10 0 -5 9 -10 20 -10 11 0 20 -4 20 -10 0 -5 11 -10 25 -10 16 0 25 -6 25 -15 0 -9 9 -15 25 -15 16 0 25 -6 25 -15 0 -10 11 -15 35 -15 19 0 35 3 35 8 0 8 -86 62 -100 62 -5 0 -15 6 -22 13 -13 12 -113 67 -123 67 -3 0 -5 -11 -5 -25z"></path><path id="pBkP1eeFz" d="M4280 8817 c-79 -42 -88 -57 -35 -57 19 0 35 5 35 10 0 6 7 10 15 10 9 0 15 9 15 25 0 29 2 28 -30 12z"></path><path id="pen2c1FjB" d="M4143 8744 c-43 -21 -42 -34 2 -34 31 0 35 3 35 25 0 14 -1 25 -2 25 -2 0 -18 -8 -35 -16z"></path><path id="pZJOeDOAZ" d="M4760 8705 c0 -22 4 -25 35 -25 43 0 45 14 5 35 -38 20 -40 19 -40 -10z"></path><path id="p1icRIFke" d="M4050 8692 c-27 -13 -60 -37 -60 -44 0 -9 52 -11 74 -2 9 3 16 17 16 30 0 25 -5 27 -30 16z"></path><path id="p1BAlLzQdG" d="M3935 8630 c-12 -4 -27 -15 -34 -24 -12 -14 -9 -16 28 -16 37 0 41 2 41 25 0 27 -4 28 -35 15z"></path><path id="p1AY8gNrRr" d="M4980 8586 c0 -21 6 -28 30 -32 17 -4 30 -10 30 -15 0 -5 14 -9 30 -9 20 0 30 -5 30 -15 0 -11 11 -15 37 -15 36 0 36 0 17 19 -10 10 -21 17 -23 15 -2 -2 -16 5 -31 16 -16 11 -33 20 -39 20 -6 0 -11 4 -11 9 0 5 -8 11 -17 14 -10 2 -26 8 -35 12 -15 6 -18 2 -18 -19z"></path><path id="pJRurWpBk" d="M3835 8576 c-17 -7 -36 -20 -44 -29 -12 -15 -10 -17 20 -17 44 0 62 12 57 38 -3 19 -5 19 -33 8z"></path><path id="pDYSyIazi" d="M3630 8460 c-30 -16 -62 -32 -70 -36 -8 -4 -27 -15 -41 -25 -14 -10 -28 -16 -31 -14 -3 3 -13 -4 -23 -15 -18 -20 -18 -20 18 -20 26 0 37 4 37 15 0 10 10 15 30 15 20 0 30 5 30 15 0 9 9 15 25 15 16 0 25 6 25 15 0 10 10 15 30 15 25 0 30 4 30 25 0 14 -1 25 -2 25 -2 0 -28 -14 -58 -30z"></path><path id="pAOipoDUT" d="M5220 8455 c0 -21 5 -25 30 -25 20 0 30 -5 30 -15 0 -11 11 -15 36 -15 32 0 35 2 24 16 -12 13 -31 24 -102 56 -15 6 -18 2 -18 -17z"></path><path id="pHZwJh3Rn" d="M5410 8355 c0 -20 5 -25 25 -25 15 0 25 -6 25 -14 0 -17 22 -26 61 -26 42 0 36 15 -18 41 -27 12 -50 26 -53 29 -3 4 -13 9 -22 13 -14 5 -18 1 -18 -18z"></path><path id="p2ZcKj2jN" d="M3400 8337 c-14 -8 -43 -24 -65 -37 -22 -13 -57 -32 -77 -43 -47 -26 -48 -37 -3 -37 19 0 35 5 35 10 0 6 9 10 20 10 11 0 20 5 20 10 0 6 7 10 15 10 8 0 15 9 15 20 0 16 7 20 35 20 31 0 35 3 35 25 0 29 2 29 -30 12z"></path><path id="pnvQ7mttl" d="M3188 8223 c-10 -2 -18 -8 -18 -13 0 -5 -20 -16 -45 -25 -24 -10 -52 -26 -61 -36 -16 -18 -16 -19 14 -19 43 0 62 9 62 31 0 15 7 19 35 19 31 0 35 3 35 25 0 14 -1 24 -2 24 -2 -1 -11 -3 -20 -6z"></path><path id="plWUndkBj" d="M5800 8135 c0 -22 4 -25 35 -25 43 0 45 14 5 35 -38 20 -40 19 -40 -10z"></path><path id="p1eSUGIgW" d="M2958 8092 c-37 -22 -35 -32 7 -32 31 0 35 3 35 25 0 29 -6 30 -42 7z"></path><path id="pLeYQ3UJe" d="M5900 8085 c0 -16 6 -25 15 -25 8 0 15 -4 15 -10 0 -5 16 -10 35 -10 44 0 44 10 3 35 -59 36 -68 37 -68 10z"></path><path id="p5gmCJjZB" d="M2878 8053 c-10 -2 -18 -8 -18 -12 0 -4 -18 -15 -40 -25 -49 -22 -51 -36 -5 -36 24 0 35 5 35 15 0 9 9 15 25 15 20 0 25 5 25 25 0 14 -1 24 -2 24 -2 -1 -11 -3 -20 -6z"></path><path id="ptKInVgKu" d="M6040 8005 c0 -22 4 -25 35 -25 43 0 44 10 6 33 -38 22 -41 22 -41 -8z"></path><path id="p18jNZL85u" d="M4160 7996 c0 -9 -12 -16 -32 -18 -31 -3 -33 -6 -36 -43 l-3 -40 29 31 c16 17 37 36 48 41 23 12 103 10 112 -3 4 -5 15 -15 25 -23 15 -12 17 -11 17 18 0 29 -2 31 -35 31 -19 0 -35 5 -35 10 0 6 -20 10 -45 10 -32 0 -45 -4 -45 -14z"></path><path id="pXGff32I7" d="M3920 7985 c0 -8 7 -15 15 -15 12 0 42 -38 33 -41 -2 0 -19 -2 -38 -4 -19 -1 -41 -3 -47 -4 -7 0 -13 -8 -13 -16 0 -11 13 -15 54 -15 52 0 54 1 60 31 13 68 9 79 -29 79 -24 0 -35 -5 -35 -15z"></path><path id="paf4PKncx" d="M5060 7980 c0 -5 8 -10 19 -10 13 0 18 -7 17 -22 -1 -20 -7 -23 -41 -23 -34 0 -40 -3 -37 -20 5 -25 -1 -24 60 -18 l52 6 0 48 0 49 -35 0 c-19 0 -35 -4 -35 -10z"></path><path id="pu4lUB3Ly" d="M4696 7973 c15 -3 22 -12 22 -28 0 -14 -5 -22 -9 -19 -16 10 -69 -7 -69 -22 0 -10 13 -14 49 -14 53 0 61 8 61 61 0 27 -2 29 -37 28 -21 -1 -28 -4 -17 -6z"></path><path id="pkJALd3O3" d="M2690 7946 c-57 -30 -62 -46 -16 -46 20 0 36 5 36 10 0 6 7 10 15 10 9 0 15 9 15 25 0 14 -1 25 -3 25 -1 0 -22 -11 -47 -24z"></path><path id="pFHNognID" d="M4186 7925 c-24 -18 -20 -25 18 -25 33 0 35 -2 42 -45 5 -36 10 -45 26 -45 18 0 19 5 13 43 -4 27 -15 49 -31 63 -29 24 -44 26 -68 9z"></path><path id="pf5jHzB0k" d="M3775 7920 c-9 -14 16 -59 42 -75 22 -15 23 -15 23 15 0 16 -4 30 -10 30 -5 0 -10 6 -10 14 0 15 -37 29 -45 16z"></path><path id="pQek1tO4f" d="M4525 7921 c-7 -12 7 -42 28 -59 12 -10 16 -7 21 19 3 18 5 33 4 34 -12 10 -48 14 -53 6z"></path><path id="p10ChoKLJE" d="M4928 7923 c-25 -6 -23 -30 3 -38 24 -8 26 -7 31 19 3 20 -7 26 -34 19z"></path><path id="p17ynIhidF" d="M2590 7893 c-19 -10 -37 -21 -38 -25 -2 -5 -7 -6 -10 -4 -4 2 -16 -5 -26 -15 -19 -19 -19 -19 17 -19 19 0 42 7 51 15 8 8 22 15 30 15 10 0 16 9 16 25 0 14 -1 25 -2 25 -2 0 -19 -8 -38 -17z"></path><path id="p7kg3tF70" d="M4450 7875 c0 -31 3 -35 26 -35 20 0 24 3 16 13 -6 6 -10 14 -11 17 0 3 -3 13 -6 23 -12 29 -25 19 -25 -18z"></path><path id="p1DUi23R6Z" d="M6260 7886 c0 -23 4 -26 35 -26 53 0 46 13 -27 48 -5 2 -8 -8 -8 -22z"></path><path id="p12rw8a7Xi" d="M4145 7827 c-11 -56 -2 -111 18 -115 15 -3 17 6 17 72 0 60 -3 76 -15 76 -8 0 -17 -14 -20 -33z"></path><path id="p12PZZ4HZF" d="M6350 7836 c0 -24 4 -26 42 -26 41 0 42 0 22 19 -11 10 -30 22 -42 25 -19 6 -22 3 -22 -18z"></path><path id="p3Vl3vpH7" d="M2460 7823 c-8 -3 -23 -14 -34 -25 -19 -18 -19 -18 17 -18 33 0 37 3 37 25 0 14 -1 25 -2 24 -2 0 -10 -3 -18 -6z"></path><path id="pkirhGqRW" d="M3752 7797 c2 -24 8 -33 26 -35 12 -2 22 -8 22 -13 0 -5 17 -9 37 -9 l37 0 -22 20 c-12 11 -26 20 -32 20 -5 0 -10 3 -10 8 0 4 -14 15 -31 24 l-30 18 3 -33z"></path><path id="pR17FmCPK" d="M3850 7820 c0 -5 4 -10 9 -10 5 0 30 -20 55 -45 l46 -44 0 35 c0 27 -5 37 -20 41 -11 3 -20 12 -20 19 0 9 -12 14 -35 14 -19 0 -35 -4 -35 -10z"></path><path id="p1GjsJqg4B" d="M4349 7808 c-1 -7 -3 -41 -4 -75 -3 -87 -36 -149 -84 -161 -36 -9 -84 -4 -108 11 -9 6 -13 1 -13 -16 0 -23 5 -25 63 -31 75 -8 97 -2 97 30 0 20 5 24 30 24 28 0 30 3 30 35 0 19 5 35 10 35 6 0 10 33 10 80 0 64 -3 80 -15 80 -8 0 -16 -6 -16 -12z"></path><path id="pAhShkvAr" d="M4634 7795 c37 -31 46 -31 46 0 0 22 -4 25 -37 25 l-38 0 29 -25z"></path><path id="phNhcFhra" d="M4560 7760 c0 -20 5 -30 15 -30 8 0 15 -4 15 -10 0 -5 9 -10 20 -10 16 0 20 -7 20 -30 0 -34 25 -42 33 -11 6 25 -22 67 -67 97 l-36 25 0 -31z"></path><path id="pvGNtQBu5" d="M2358 7764 c-38 -20 -35 -34 7 -34 31 0 35 3 35 25 0 29 -5 30 -42 9z"></path><path id="pBV9HtHYb" d="M4060 7695 c0 -28 4 -35 20 -35 15 0 19 5 16 23 -3 12 -5 28 -5 35 -1 6 -8 12 -16 12 -10 0 -15 -11 -15 -35z"></path><path id="p1FtkXxGVJ" d="M4837 7713 c-4 -3 -7 -30 -7 -60 l0 -53 35 0 c31 0 35 -3 35 -25 0 -22 4 -25 35 -25 19 0 35 3 35 8 0 4 -27 25 -60 47 -61 40 -72 58 -45 69 17 6 45 -2 45 -14 0 -4 9 -10 20 -13 16 -4 20 0 20 19 0 17 -6 24 -20 24 -11 0 -20 7 -20 15 0 10 -10 15 -33 15 -19 0 -37 -3 -40 -7z"></path><path id="prIr2wRsq" d="M6600 7695 c0 -22 4 -25 35 -25 43 0 45 14 5 35 -38 20 -40 19 -40 -10z"></path><path id="pTA8cVGDY" d="M2242 7698 c-7 -7 -12 -8 -12 -2 0 5 -3 5 -8 -1 -4 -5 -24 -19 -44 -29 -21 -11 -38 -23 -38 -28 0 -14 68 -9 84 7 8 8 19 15 25 15 6 0 11 11 11 25 0 29 -1 30 -18 13z"></path><path id="pP3k4vJL0" d="M4718 7693 c-6 -28 2 -53 18 -53 9 0 14 11 14 35 0 37 -24 50 -32 18z"></path><path id="pDtJR8KrJ" d="M3962 7684 c4 -3 2 -19 -2 -35 -8 -26 -6 -29 16 -29 21 0 24 5 24 35 0 29 -4 35 -22 35 -12 0 -19 -3 -16 -6z"></path><path id="p15vXcbmEZ" d="M4153 7670 c1 -12 9 -28 19 -37 17 -15 18 -14 18 20 0 30 -4 37 -19 37 -14 0 -19 -6 -18 -20z"></path><path id="psvvyymlt" d="M3707 7663 c-4 -3 -7 -21 -7 -40 0 -27 4 -33 22 -33 17 0 19 3 10 12 -9 9 -7 14 5 23 13 10 24 10 50 -1 45 -19 63 -18 63 6 0 16 -7 20 -35 20 -19 0 -35 5 -35 10 0 11 -63 14 -73 3z"></path><path id="pjCtdzAYH" d="M4200 7630 c0 -22 20 -26 51 -10 30 16 23 30 -16 30 -28 0 -35 -4 -35 -20z"></path><path id="p145LTemUi" d="M4681 7594 l-34 -34 36 0 c36 0 37 1 37 35 0 19 -1 34 -2 34 -2 -1 -18 -16 -37 -35z"></path><path id="p1HSKWLKlY" d="M6782 7602 c3 -23 8 -27 41 -30 42 -4 47 6 15 28 -48 32 -60 32 -56 2z"></path><path id="pRD4XlQ7l" d="M2061 7602 c-48 -26 -51 -42 -7 -42 37 0 51 14 44 45 -3 14 -7 13 -37 -3z"></path><path id="pdPFMd6ia" d="M3941 7604 c0 -7 -11 -15 -23 -19 -13 -4 -26 -8 -30 -10 -5 -1 -15 -3 -23 -4 -8 0 -15 -8 -15 -17 0 -14 8 -16 45 -11 55 6 58 8 52 44 -2 15 -5 23 -6 17z"></path><path id="pdJ5o31r6" d="M6890 7546 c0 -16 5 -26 15 -26 8 0 15 -4 15 -10 0 -5 16 -10 35 -10 42 0 45 12 8 31 -16 8 -31 18 -35 24 -4 5 -8 6 -8 1 0 -5 -7 -3 -15 4 -13 11 -15 8 -15 -14z"></path><path id="phtBFoD0d" d="M1934 7532 c-232 -126 -244 -133 -244 -144 0 -5 16 -8 35 -8 19 0 35 5 35 10 0 6 7 10 15 10 8 0 15 7 15 15 0 10 10 15 30 15 17 0 30 5 30 10 0 6 7 10 15 10 8 0 15 7 15 15 0 9 9 15 25 15 41 0 75 21 75 47 0 27 -5 28 -46 5z"></path><path id="poVN3yaRa" d="M7090 7435 c0 -16 8 -26 22 -31 12 -3 28 -13 36 -20 7 -8 22 -14 33 -14 10 0 19 -4 19 -10 0 -5 5 -10 11 -10 6 0 17 -7 25 -15 9 -8 26 -15 40 -15 15 0 24 -6 24 -15 0 -10 11 -15 35 -15 19 0 35 3 35 8 0 9 -104 72 -119 72 -6 0 -11 5 -11 12 0 6 -3 8 -6 5 -4 -3 -18 3 -32 13 -13 11 -31 20 -38 20 -8 0 -14 5 -14 11 0 5 -4 7 -10 4 -5 -3 -10 -2 -10 3 0 5 -9 12 -20 15 -16 4 -20 0 -20 -18z"></path><path id="pnBN6urei" d="M1634 7365 c-12 -8 -24 -11 -28 -8 -3 3 -6 1 -6 -5 0 -6 -10 -14 -22 -17 -30 -9 -108 -58 -108 -67 0 -5 16 -8 35 -8 19 0 35 4 35 9 0 5 11 12 25 15 14 4 25 12 25 20 0 8 16 16 40 20 34 5 40 10 40 31 0 29 -7 31 -36 10z"></path><path id="pU6ZzVmcw" d="M7380 7275 c0 -18 5 -25 20 -25 11 0 20 -4 20 -10 0 -5 17 -10 37 -10 36 0 36 0 17 19 -10 10 -22 17 -26 15 -3 -2 -12 2 -20 9 -7 7 -21 16 -30 20 -14 5 -18 1 -18 -18z"></path><path id="p46xny90Y" d="M1353 7214 c-43 -21 -42 -34 2 -34 31 0 35 3 35 25 0 14 -1 25 -2 25 -2 0 -18 -8 -35 -16z"></path><path id="pn85LBh6O" d="M1253 7159 c-51 -25 -55 -39 -10 -39 42 0 60 12 55 39 l-3 21 -42 -21z"></path><path id="pZQhMOkdb" d="M7600 7154 c0 -17 7 -25 25 -30 14 -3 25 -10 25 -15 0 -5 16 -9 35 -9 43 0 45 14 5 32 -16 7 -30 17 -30 21 0 5 -4 5 -10 2 -5 -3 -10 -2 -10 3 0 5 -9 12 -20 15 -16 4 -20 0 -20 -19z"></path><path id="p1Bx1DGYqF" d="M1105 7076 c-11 -7 -22 -13 -25 -13 -9 1 -50 -28 -50 -35 0 -12 53 -9 83 5 17 8 27 20 27 35 0 26 -8 27 -35 8z"></path><path id="pOW1110u" d="M7760 7065 c0 -20 5 -25 25 -25 16 0 25 -6 25 -15 0 -10 10 -15 30 -15 20 0 30 -5 30 -15 0 -10 11 -15 35 -15 45 0 44 13 -2 35 -21 10 -54 28 -73 40 -59 36 -70 38 -70 10z"></path><path id="p12paIp1fb" d="M4750 7025 c0 -8 7 -15 16 -15 9 0 18 -9 21 -20 9 -35 33 -24 33 15 0 33 -2 35 -35 35 -24 0 -35 -5 -35 -15z"></path><path id="p1HsYqo33z" d="M4920 7025 c0 -8 7 -15 15 -15 8 0 21 -16 29 -35 18 -42 36 -46 36 -7 0 57 -10 72 -46 72 -24 0 -34 -5 -34 -15z"></path><path id="pIwPHrAgN" d="M4030 7005 c0 -16 -6 -25 -15 -25 -11 0 -15 -11 -15 -37 0 -35 0 -36 20 -18 11 10 20 23 20 30 0 16 35 55 49 55 6 0 11 5 11 10 0 6 -16 10 -35 10 -31 0 -35 -3 -35 -25z"></path><path id="p19TI4Oz4E" d="M4260 6995 c0 -28 4 -35 20 -35 15 0 20 7 20 25 0 16 6 25 15 25 8 0 15 5 15 10 0 6 -16 10 -35 10 -33 0 -35 -2 -35 -35z"></path><path id="pjj4XT0TP" d="M4480 7021 c0 -5 16 -18 35 -30 l35 -20 0 29 c0 28 -3 30 -35 30 -19 0 -35 -4 -35 -9z"></path><path id="pIosp8FHG" d="M4870 6976 c0 -19 7 -41 15 -50 8 -8 15 -24 15 -35 0 -12 5 -21 10 -21 6 0 10 -13 10 -30 0 -16 5 -30 10 -30 6 0 10 -13 10 -30 0 -23 4 -30 20 -30 14 0 19 6 17 20 -2 11 -6 23 -10 26 -4 4 -7 17 -7 29 0 11 -4 25 -10 31 -5 5 -11 18 -13 29 -1 11 -5 25 -8 30 -3 6 -11 29 -19 53 -16 52 -40 56 -40 8z"></path><path id="p1BkVkGpDe" d="M880 6955 c-14 -8 -45 -24 -70 -36 -25 -13 -47 -25 -50 -28 -3 -4 -17 -12 -32 -20 -38 -19 -35 -31 7 -31 19 0 35 5 35 10 0 6 7 10 15 10 8 0 15 5 15 10 0 6 9 10 20 10 11 0 20 7 20 15 0 10 10 15 30 15 31 0 45 16 38 44 -3 14 -6 14 -28 1z"></path><path id="pzChEvzqR" d="M4450 6940 c0 -15 7 -20 25 -20 22 0 25 -4 25 -35 0 -23 5 -35 14 -35 24 0 24 34 -1 73 -26 41 -63 51 -63 17z"></path><path id="pYZCPq1Qm" d="M4700 6830 c0 -109 2 -130 15 -130 18 0 17 -3 20 125 2 113 -2 135 -21 135 -11 0 -14 -26 -14 -130z"></path><path id="pSZh84QWY" d="M8000 6934 c0 -17 8 -28 28 -37 15 -6 30 -16 33 -20 9 -13 99 -22 99 -10 0 5 -17 18 -37 29 -21 10 -49 26 -63 35 -47 30 -60 31 -60 3z"></path><path id="pTFr7jP0" d="M4067 6900 c-9 -11 -14 -20 -11 -20 4 0 1 -7 -6 -15 -11 -13 -8 -15 14 -15 23 0 26 4 26 35 0 19 -1 35 -3 35 -1 0 -10 -9 -20 -20z"></path><path id="p1BI06lDb6" d="M3950 6858 c0 -42 0 -42 19 -23 10 11 22 30 26 43 5 19 3 22 -19 22 -24 0 -26 -4 -26 -42z"></path><path id="pQgBNbM0a" d="M5181 6858 c-12 -30 -24 -61 -26 -70 -2 -5 -3 -9 -5 -10 -1 -2 -3 -11 -5 -21 -2 -10 -7 -26 -11 -35 -4 -9 -8 -20 -9 -24 -2 -5 -3 -9 -5 -10 -1 -2 -3 -10 -5 -19 -9 -48 -15 -55 -48 -55 -21 1 -36 8 -44 21 -11 18 -12 16 -13 -17 l0 -38 55 0 c54 0 55 0 55 30 0 19 5 30 14 30 14 0 26 29 26 68 0 12 3 22 8 22 12 0 33 53 39 103 6 51 -10 66 -26 25z"></path><path id="phZSkD9rF" d="M5007 6864 c-3 -3 -3 -12 0 -20 3 -10 22 -14 59 -14 47 0 54 2 54 20 0 18 -7 20 -53 20 -30 0 -56 -3 -60 -6z"></path><path id="p8yTDEUvl" d="M4496 6769 c-9 -44 -8 -89 2 -89 18 0 36 56 33 103 -2 29 -28 19 -35 -14z"></path><path id="pAF7dmxKO" d="M4589 6758 c0 -7 -2 -23 -5 -35 -3 -18 1 -23 16 -23 16 0 20 7 20 35 0 24 -5 35 -15 35 -8 0 -15 -6 -16 -12z"></path><path id="pJqSCqHZY" d="M4700 6631 c0 -44 10 -51 71 -51 38 0 39 1 39 35 0 35 -13 47 -23 21 -3 -7 -14 -16 -26 -19 -16 -4 -21 1 -26 24 -10 44 -35 37 -35 -10z"></path><path id="pTmw9phWs" d="M3611 6618 l-1 -38 45 0 c45 0 45 0 45 35 0 19 -4 35 -10 35 -5 0 -10 -8 -10 -18 0 -25 -51 -22 -61 4 -6 14 -8 9 -8 -18z"></path><path id="pGUoIsNNd" d="M3821 6618 l-1 -38 55 0 55 0 0 38 c-1 33 -2 35 -13 17 -16 -27 -77 -27 -88 1 -6 14 -8 9 -8 -18z"></path><path id="pJPfSbT5V" d="M4081 6618 c-1 -38 -1 -38 39 -38 39 0 40 1 40 35 0 19 -4 35 -10 35 -5 0 -10 -8 -10 -17 0 -28 -48 -27 -53 1 -2 12 -5 4 -6 -16z"></path><path id="p1687eWG70" d="M4270 6615 l0 -35 95 0 c75 0 95 3 95 14 0 15 -36 25 -80 24 -61 -1 -80 2 -80 17 0 8 -7 15 -15 15 -10 0 -15 -11 -15 -35z"></path><path id="porxNSvUm" d="M1890 6146 c0 -16 25 -24 53 -18 32 8 19 32 -18 32 -24 0 -35 -5 -35 -14z"></path><path id="pYGSx8x1V" d="M2680 6146 c0 -16 25 -24 53 -18 32 8 19 32 -18 32 -24 0 -35 -5 -35 -14z"></path><path id="p1ABIRUI1n" d="M3550 6146 c0 -16 25 -24 53 -18 32 8 19 32 -18 32 -24 0 -35 -5 -35 -14z"></path><path id="pC09MRsVc" d="M4420 6146 c0 -17 37 -27 68 -19 41 10 26 33 -23 33 -32 0 -45 -4 -45 -14z"></path><path id="pl0YPgd7h" d="M4630 6146 c0 -16 25 -24 53 -18 32 8 19 32 -18 32 -24 0 -35 -5 -35 -14z"></path><path id="pGZzbGHwo" d="M5250 6145 c0 -14 9 -17 45 -17 36 0 45 3 45 17 0 11 -12 15 -45 15 -33 0 -45 -4 -45 -15z"></path><path id="pN5kDCZXw" d="M5810 6146 c0 -16 25 -24 53 -18 32 8 19 32 -18 32 -24 0 -35 -5 -35 -14z"></path><path id="p11Ddswgz2" d="M5920 6146 c0 -16 25 -24 53 -18 32 8 19 32 -18 32 -24 0 -35 -5 -35 -14z"></path><path id="pYiSf3Nsr" d="M6390 6145 c0 -17 0 -16 85 -20 72 -2 95 3 95 21 0 11 -20 14 -90 14 -73 0 -90 -3 -90 -15z"></path><path id="p5Uf3tXGj" d="M6950 6145 c0 -15 6 -17 45 -18 43 0 55 4 55 18 0 11 -12 15 -50 15 -38 0 -50 -4 -50 -15z"></path><path id="pAAxE2LRd" d="M7350 6146 c0 -19 18 -21 148 -21 81 0 112 -3 112 -12 0 -9 -37 -13 -132 -16 l-133 -3 143 -2 142 -2 0 35 0 35 -140 0 c-113 0 -140 -3 -140 -14z"></path><path id="p11doMqufJ" d="M1908 6093 c12 -2 30 -2 40 0 9 3 -1 5 -23 4 -22 0 -30 -2 -17 -4z"></path><path id="pA4jkhN7a" d="M2698 6093 c12 -2 30 -2 40 0 9 3 -1 5 -23 4 -22 0 -30 -2 -17 -4z"></path><path id="pWZM2qOE1" d="M3568 6093 c12 -2 30 -2 40 0 9 3 -1 5 -23 4 -22 0 -30 -2 -17 -4z"></path><path id="pHYmp9OHJ" d="M4443 6093 c15 -2 37 -2 50 0 12 2 0 4 -28 4 -27 0 -38 -2 -22 -4z"></path><path id="piOPsqbiA" d="M4648 6093 c12 -2 30 -2 40 0 9 3 -1 5 -23 4 -22 0 -30 -2 -17 -4z"></path><path id="p1FN7jj95z" d="M5273 6093 c15 -2 37 -2 50 0 12 2 0 4 -28 4 -27 0 -38 -2 -22 -4z"></path><path id="p9JossH6h" d="M5828 6093 c12 -2 30 -2 40 0 9 3 -1 5 -23 4 -22 0 -30 -2 -17 -4z"></path><path id="pvjUpmiAm" d="M5938 6093 c12 -2 30 -2 40 0 9 3 -1 5 -23 4 -22 0 -30 -2 -17 -4z"></path><path id="plv41e7MW" d="M6433 6093 c26 -2 68 -2 95 0 26 2 4 3 -48 3 -52 0 -74 -1 -47 -3z"></path><path id="prbskxkuL" d="M6973 6093 c15 -2 39 -2 55 0 15 2 2 4 -28 4 -30 0 -43 -2 -27 -4z"></path><path id="p1GJFSBiIb" d="M2748 5372 c-34 -7 -20 -32 17 -32 23 0 35 5 35 14 0 15 -25 24 -52 18z"></path><path id="peIwpz3M2" d="M2888 5372 c-34 -7 -20 -32 17 -32 23 0 35 5 35 14 0 15 -25 24 -52 18z"></path><path id="p1FrW5e8R2" d="M4100 5361 c0 -19 34 -31 86 -31 51 0 7 38 -52 45 -28 4 -34 2 -34 -14z"></path><path id="p194oVbjTi" d="M5428 5372 c-10 -2 -18 -10 -18 -18 0 -11 15 -14 65 -14 51 0 65 3 65 15 0 8 -6 15 -12 16 -48 4 -85 4 -100 1z"></path><path id="pk9Qirq8J" d="M3948 5363 c-33 -8 -20 -33 17 -33 28 0 35 4 35 20 0 20 -14 23 -52 13z"></path><path id="p70k4CXll" d="M3356 5321 c-5 -29 -2 -1046 3 -1088 0 -7 8 -13 16 -13 13 0 15 67 15 543 0 298 3 552 6 563 4 16 0 23 -15 27 -16 4 -21 -1 -25 -32z"></path><path id="phkOQi7q3" d="M4437 5352 c-14 -3 -17 -10 -13 -25 3 -12 6 -178 6 -369 0 -341 0 -348 20 -348 20 0 20 6 19 358 0 196 -3 364 -7 372 -4 9 -15 14 -25 12z"></path><path id="pNSYRelEx" d="M3540 4785 c0 -534 1 -566 18 -563 16 3 17 38 17 563 0 525 -1 560 -17 563 -17 3 -18 -29 -18 -563z"></path><path id="pCEeXcvsu" d="M6400 5325 c0 -18 5 -25 20 -25 15 0 20 7 20 25 0 18 -5 25 -20 25 -15 0 -20 -7 -20 -25z"></path><path id="pLEw5xEro" d="M6560 5330 c0 -13 7 -20 20 -20 13 0 20 7 20 20 0 13 -7 20 -20 20 -13 0 -20 -7 -20 -20z"></path><path id="p8RsfanVC" d="M3030 5322 c0 -20 50 -42 96 -42 l29 1 -28 24 c-16 14 -32 23 -37 20 -5 -3 -11 -1 -15 5 -11 17 -45 11 -45 -8z"></path><path id="p18O5vo3gn" d="M5238 5312 c-37 -22 -35 -32 7 -32 31 0 35 3 35 25 0 29 -6 30 -42 7z"></path><path id="p6a6vR31g" d="M2560 5308 c0 -4 -5 -8 -11 -8 -15 0 -118 -84 -137 -112 -13 -18 -12 -19 19 -16 29 2 35 7 37 31 3 23 8 27 33 27 19 0 29 5 29 15 0 8 9 15 20 15 11 0 20 5 20 10 0 6 7 10 15 10 8 0 15 9 15 19 0 14 -6 19 -20 18 -11 -1 -20 -5 -20 -9z"></path><path id="p197qEg7XA" d="M5680 5295 c0 -20 5 -25 25 -25 16 0 25 -6 25 -15 0 -10 10 -15 30 -15 26 0 29 2 19 18 -10 16 -79 62 -93 62 -4 0 -6 -11 -6 -25z"></path><path id="p1C7KEXBp0" d="M3830 5287 c-26 -20 -61 -75 -66 -103 -4 -22 -1 -25 18 -22 19 2 24 10 26 41 3 29 7 37 23 37 14 0 19 7 19 30 0 34 0 34 -20 17z"></path><path id="prpQN9gIi" d="M3160 5259 c0 -19 21 -49 35 -49 4 0 13 -7 21 -15 9 -8 11 -15 5 -15 -6 0 -11 -9 -11 -20 0 -13 -7 -20 -20 -20 -13 0 -20 -7 -20 -20 0 -16 -7 -20 -30 -20 -27 0 -30 3 -30 30 0 28 -3 30 -35 30 -19 0 -35 -4 -35 -10 0 -5 4 -10 9 -10 4 0 29 -19 55 -41 l47 -42 26 24 c14 13 45 42 69 64 l43 40 -32 27 c-18 15 -43 37 -56 48 -31 25 -41 25 -41 -1z"></path><path id="p17v6k8AcG" d="M6030 5235 c0 -28 4 -35 20 -35 16 0 20 7 20 35 0 28 -4 35 -20 35 -16 0 -20 -7 -20 -35z"></path><path id="p1AyWZ7qtQ" d="M3998 5233 c-22 -3 -28 -10 -28 -29 0 -20 -5 -24 -30 -24 -20 0 -30 -5 -30 -15 0 -8 -4 -15 -10 -15 -5 0 -10 -16 -10 -35 0 -40 24 -49 34 -12 3 12 18 37 33 56 24 28 37 34 81 39 42 4 52 8 52 23 0 20 -23 22 -92 12z"></path><path id="p1FJ85IlM" d="M2820 5215 c0 -8 6 -15 13 -16 6 0 22 -2 35 -3 16 -2 22 3 22 16 0 14 -8 18 -35 18 -24 0 -35 -5 -35 -15z"></path><path id="pR17lMmG5" d="M5383 5223 c-18 -2 -33 -8 -33 -14 0 -5 -7 -9 -15 -9 -10 0 -15 -10 -15 -26 0 -21 3 -24 13 -15 8 6 17 8 20 4 4 -3 7 -2 7 4 0 13 100 33 134 27 21 -3 26 0 26 16 0 18 -6 20 -52 18 -29 0 -68 -3 -85 -5z"></path><path id="p7JGeeWwR" d="M2720 5210 c0 -5 -15 -10 -34 -10 -19 0 -41 -7 -50 -15 -8 -8 -19 -15 -25 -15 -6 0 -11 -11 -11 -25 0 -19 4 -23 18 -18 9 4 19 9 22 13 13 15 101 47 138 49 6 1 12 8 12 16 0 10 -11 15 -35 15 -19 0 -35 -4 -35 -10z"></path><path id="p11Ixe4rIz" d="M2900 5207 c0 -7 29 -22 65 -34 l65 -21 0 22 c0 18 -9 25 -39 34 -51 16 -91 15 -91 -1z"></path><path id="pyS82JQxE" d="M5624 5145 c37 -31 46 -31 46 0 0 22 -4 25 -37 25 l-38 0 29 -25z"></path><path id="p9QlihMKS" d="M3746 5128 c-10 -38 -7 -48 14 -48 16 0 20 7 20 35 0 40 -24 49 -34 13z"></path><path id="p1GBlplKnp" d="M2357 5120 c-10 -12 -22 -32 -27 -46 -8 -21 -7 -24 15 -24 26 0 40 28 33 69 l-3 22 -18 -21z"></path><path id="p7l1Wmdip" d="M4237 5123 c3 -10 9 -22 12 -28 8 -14 18 -62 20 -92 1 -7 8 -13 16 -13 19 0 21 68 3 117 -9 24 -18 33 -35 33 -17 0 -21 -4 -16 -17z"></path><path id="pjRGR81a1" d="M5064 5093 c-16 -38 -14 -63 7 -63 16 0 19 7 19 40 0 42 -12 53 -26 23z"></path><path id="pSu4q8e7e" d="M6030 4995 c0 -68 2 -75 20 -75 18 0 20 7 20 75 0 68 -2 75 -20 75 -18 0 -20 -7 -20 -75z"></path><path id="pMPAM6Wml" d="M2490 5025 c0 -28 -4 -35 -19 -35 -13 0 -20 -10 -25 -31 -10 -51 -7 -79 8 -79 12 0 23 23 32 69 5 26 27 71 34 71 4 0 10 9 13 20 4 16 0 20 -19 20 -21 0 -24 -5 -24 -35z"></path><path id="p18hohRBYc" d="M2310 5021 c-16 -31 -12 -51 10 -51 16 0 20 7 20 35 0 39 -14 46 -30 16z"></path><path id="p1DTanDemg" d="M5200 4986 c0 -62 11 -96 31 -96 14 0 18 6 15 23 -3 12 -5 41 -5 65 -1 35 -4 42 -21 42 -16 0 -20 -7 -20 -34z"></path><path id="por76vfuv" d="M2286 4938 c-10 -38 -7 -48 14 -48 16 0 20 7 20 35 0 40 -24 49 -34 13z"></path><path id="pPCoDmXOh" d="M5047 4941 c-5 -20 9 -51 23 -51 6 0 10 16 10 35 0 38 -24 50 -33 16z"></path><path id="p1B39yU88r" d="M6050 4876 c0 -32 3 -36 25 -36 24 0 25 1 12 32 -19 46 -37 48 -37 4z"></path><path id="p4Os0iQfH" d="M6544 4805 c-4 -28 -11 -45 -20 -45 -8 0 -14 -9 -14 -20 0 -11 -7 -20 -15 -20 -10 0 -15 -10 -15 -30 0 -27 2 -29 19 -18 19 12 72 88 78 111 16 67 16 67 -5 67 -17 0 -22 -8 -28 -45z"></path><path id="pYdVIvzc3" d="M6361 4810 c-14 -16 -27 -27 -29 -25 -3 3 -11 0 -18 -5 -6 -6 -16 -10 -20 -9 -26 4 -44 -3 -44 -17 0 -14 8 -16 52 -11 29 4 54 11 56 17 2 5 10 10 18 10 9 0 14 11 14 35 0 19 -1 35 -2 35 -2 -1 -14 -14 -27 -30z"></path><path id="pRvK0BXz7" d="M5080 4812 c0 -11 9 -27 20 -37 20 -18 20 -17 20 18 0 30 -4 37 -20 37 -13 0 -20 -7 -20 -18z"></path><path id="ppg9oYSA7" d="M5647 4823 c-11 -10 -8 -33 4 -33 7 0 20 -9 30 -21 12 -13 27 -19 45 -17 l27 3 -37 38 c-37 36 -55 44 -69 30z"></path><path id="p1HaL3qQpE" d="M6110 4800 c0 -28 3 -30 35 -30 44 0 44 9 0 38 l-35 22 0 -30z"></path><path id="pGGuUWsVY" d="M2276 4778 c1 -13 3 -29 3 -35 1 -7 8 -13 16 -13 10 0 15 11 15 35 0 27 -4 35 -18 35 -13 0 -18 -6 -16 -22z"></path><path id="pGMbwrBwb" d="M2430 4778 c0 -50 13 -98 26 -98 9 0 14 -12 14 -35 0 -19 4 -35 9 -35 5 0 11 -13 15 -30 5 -25 10 -30 36 -30 l30 0 -17 28 c-10 15 -23 33 -30 40 -7 8 -11 18 -8 23 4 5 2 9 -3 9 -6 0 -18 34 -27 75 -11 51 -21 75 -31 75 -8 0 -14 -10 -14 -22z"></path><path id="p187ssT3ti" d="M5587 4785 c-26 -13 -60 -22 -94 -24 -7 -1 -13 -8 -13 -16 0 -10 11 -15 35 -15 19 0 35 5 35 10 0 6 16 10 35 10 31 0 35 3 35 25 0 29 2 29 -33 10z"></path><path id="p128MMAm2u" d="M4840 4755 c0 -33 2 -35 35 -35 39 0 50 24 15 33 -11 3 -20 12 -20 21 0 9 -7 16 -15 16 -10 0 -15 -11 -15 -35z"></path><path id="pQxmhmghF" d="M5760 4726 c0 -8 -10 -16 -22 -18 -17 -2 -24 -11 -26 -30 -4 -37 10 -35 54 5 34 31 34 32 14 45 -17 10 -20 10 -20 -2z"></path><path id="p13uNuXIDJ" d="M2294 4663 c11 -59 36 -71 36 -18 0 28 -4 35 -20 35 -14 0 -19 -6 -16 -17z"></path><path id="puSl1FSz2" d="M5201 4664 c15 -18 66 -47 92 -51 11 -2 17 4 17 17 0 15 -7 20 -25 20 -16 0 -25 6 -25 15 0 11 -11 15 -36 15 -32 0 -35 -2 -23 -16z"></path><path id="pAtd8kUL6" d="M6100 4641 c0 -9 24 -22 53 -27 11 -3 17 2 17 16 0 16 -7 20 -35 20 -19 0 -35 -4 -35 -9z"></path><path id="pFRHCGMNP" d="M4610 4625 c0 -8 7 -15 16 -15 9 0 18 -9 21 -20 9 -35 33 -24 33 15 0 33 -2 35 -35 35 -24 0 -35 -5 -35 -15z"></path><path id="p1EFF2pgbp" d="M4840 4595 c0 -41 24 -49 34 -10 4 14 13 25 21 25 8 0 15 5 15 10 0 6 -16 10 -35 10 -33 0 -35 -2 -35 -35z"></path><path id="p1Dyvhf5gi" d="M6190 4616 c0 -7 10 -16 23 -20 41 -11 57 -7 57 14 0 17 -7 20 -40 20 -27 0 -40 -4 -40 -14z"></path><path id="pdnIyZ079" d="M5473 4613 c-35 -4 -47 -32 -15 -34 54 -4 112 10 112 26 0 15 -24 17 -97 8z"></path><path id="psAjOub0k" d="M2323 4582 c0 -10 9 -26 19 -36 18 -19 18 -19 18 17 0 30 -4 37 -19 37 -13 0 -19 -6 -18 -18z"></path><path id="pg9qY993Q" d="M6030 4555 c0 -28 4 -35 20 -35 16 0 20 7 20 35 0 28 -4 35 -20 35 -16 0 -20 -7 -20 -35z"></path><path id="p4FVZmy9j" d="M3122 4549 c-9 -11 -34 -30 -54 -41 -47 -27 -48 -38 -3 -38 31 0 35 3 35 25 0 21 5 25 30 25 25 0 30 4 30 25 0 30 -14 32 -38 4z"></path><path id="p17f6X6QWt" d="M2370 4501 c0 -6 13 -25 28 -43 16 -18 37 -43 48 -55 10 -13 22 -23 27 -23 7 0 20 -9 52 -38 8 -7 15 -10 15 -6 0 4 8 0 18 -8 9 -8 27 -18 40 -21 18 -4 22 -1 22 19 0 19 -5 24 -25 24 -14 0 -25 5 -25 10 0 6 -9 10 -20 10 -11 0 -20 7 -20 15 0 8 -5 15 -10 15 -6 0 -21 11 -34 25 -13 14 -30 25 -39 25 -10 0 -17 11 -19 28 -2 21 -9 28 -30 30 -16 2 -28 -1 -28 -7z"></path><path id="pbf1S6PjZ" d="M3230 4465 c0 -28 4 -35 19 -35 32 0 35 21 7 46 l-26 25 0 -36z"></path><path id="p4yfdQvvf" d="M2870 4441 c-41 -7 -57 -41 -18 -41 57 0 98 13 98 30 0 19 -16 21 -80 11z"></path><path id="pIVQws1io" d="M3170 4400 c0 -5 -7 -10 -15 -10 -8 0 -15 -7 -15 -15 0 -9 -9 -15 -25 -15 -20 0 -25 -5 -25 -24 0 -19 4 -23 20 -19 10 3 25 11 31 19 6 8 17 14 23 14 6 0 27 14 46 30 l35 30 -37 0 c-21 0 -38 -4 -38 -10z"></path><path id="p1EUlWn2po" d="M6030 4360 c0 -33 3 -40 20 -40 17 0 20 7 20 40 0 33 -3 40 -20 40 -17 0 -20 -7 -20 -40z"></path><path id="p1CxRun165" d="M2700 4285 c0 -16 58 -30 113 -26 33 2 18 28 -20 35 -63 10 -93 7 -93 -9z"></path><path id="p27mISCuG" d="M212 3013 l3 -496 40 -22 c22 -11 76 -41 120 -64 44 -24 112 -61 150 -81 39 -20 99 -53 135 -72 36 -20 94 -51 130 -70 36 -20 92 -50 125 -68 199 -108 297 -160 302 -160 3 0 31 -15 62 -34 31 -18 115 -64 186 -101 72 -38 198 -105 280 -150 83 -45 164 -88 180 -97 17 -8 46 -24 65 -35 19 -11 107 -57 195 -103 88 -46 176 -93 195 -105 19 -12 67 -38 105 -57 39 -20 97 -50 130 -68 33 -19 87 -48 120 -65 33 -18 96 -51 140 -75 44 -24 109 -59 145 -77 36 -19 76 -41 90 -49 34 -19 187 -102 290 -156 47 -25 123 -66 170 -91 47 -24 117 -62 155 -82 108 -58 183 -98 270 -145 139 -73 247 -132 329 -177 47 -26 91 -43 111 -43 20 0 64 17 111 43 82 45 190 104 329 177 44 24 107 57 140 75 33 18 96 51 140 75 44 23 103 55 130 70 28 15 100 54 160 85 111 58 269 143 315 169 14 8 54 30 90 49 36 18 101 53 145 77 44 24 107 57 140 75 33 17 94 50 135 72 76 41 193 104 286 154 28 15 100 53 160 84 60 32 129 69 154 83 25 14 59 32 75 40 17 8 98 52 180 97 83 45 209 113 280 150 72 37 155 83 186 101 31 19 59 34 62 34 3 0 54 26 114 58 59 32 144 78 188 102 44 23 103 55 130 70 86 47 187 102 260 140 39 20 106 57 150 81 44 23 98 53 120 64 l40 22 3 496 c2 438 0 497 -13 497 -8 0 -15 -7 -15 -15 0 -13 -28 -15 -190 -15 l-190 0 0 -382 -1 -383 -332 -181 c-356 -195 -1297 -710 -2632 -1442 -744 -408 -832 -454 -855 -445 -25 9 -599 323 -3207 1752 l-573 314 0 384 0 383 -205 0 c-176 0 -205 2 -205 15 0 8 -7 15 -15 15 -13 0 -15 -59 -13 -497z"></path><path id="pdTqxA6n8" d="M1287 3493 c18 -2 50 -2 70 0 21 2 7 4 -32 4 -38 0 -55 -2 -38 -4z"></path><path id="pFff23qUo" d="M1428 3493 c12 -2 30 -2 40 0 9 3 -1 5 -23 4 -22 0 -30 -2 -17 -4z"></path><path id="pxF4PTbfb" d="M1538 3493 c12 -2 30 -2 40 0 9 3 -1 5 -23 4 -22 0 -30 -2 -17 -4z"></path><path id="p1Cg18ySMo" d="M1688 3493 c29 -2 74 -2 100 0 26 2 2 3 -53 3 -55 0 -76 -1 -47 -3z"></path><path id="p7cH1LPn1" d="M1918 3493 c12 -2 32 -2 45 0 12 2 2 4 -23 4 -25 0 -35 -2 -22 -4z"></path><path id="p1BTJNkmUK" d="M2068 3493 c12 -2 32 -2 45 0 12 2 2 4 -23 4 -25 0 -35 -2 -22 -4z"></path><path id="pL9ukOlJq" d="M2218 3493 c29 -2 74 -2 100 0 26 2 2 3 -53 3 -55 0 -76 -1 -47 -3z"></path><path id="pjNTjb2pg" d="M2428 3493 c12 -2 30 -2 40 0 9 3 -1 5 -23 4 -22 0 -30 -2 -17 -4z"></path><path id="p7qZosBgr" d="M2518 3493 c18 -2 45 -2 60 0 15 2 0 4 -33 4 -33 0 -45 -2 -27 -4z"></path><path id="pqL6SLwKR" d="M2673 3493 c31 -2 83 -2 115 0 31 2 5 3 -58 3 -63 0 -89 -1 -57 -3z"></path><path id="p6GjYFoB9" d="M2868 3493 c12 -2 30 -2 40 0 9 3 -1 5 -23 4 -22 0 -30 -2 -17 -4z"></path><path id="p14lNCd1mp" d="M2948 3493 c12 -2 30 -2 40 0 9 3 -1 5 -23 4 -22 0 -30 -2 -17 -4z"></path><path id="p06SNhbNg" d="M3118 3493 c23 -2 59 -2 80 0 20 2 1 4 -43 4 -44 0 -61 -2 -37 -4z"></path><path id="p15pwZNooe" d="M3278 3493 c12 -2 32 -2 45 0 12 2 2 4 -23 4 -25 0 -35 -2 -22 -4z"></path><path id="p18hP4MIOz" d="M3393 3493 c15 -2 39 -2 55 0 15 2 2 4 -28 4 -30 0 -43 -2 -27 -4z"></path><path id="pWFK1dwgA" d="M3508 3493 c12 -2 30 -2 40 0 9 3 -1 5 -23 4 -22 0 -30 -2 -17 -4z"></path><path id="pKWO4y0x1" d="M3638 3493 c12 -2 32 -2 45 0 12 2 2 4 -23 4 -25 0 -35 -2 -22 -4z"></path><path id="pGDKeL3fv" d="M3778 3493 c12 -2 30 -2 40 0 9 3 -1 5 -23 4 -22 0 -30 -2 -17 -4z"></path><path id="pzR8NLFiX" d="M3998 3493 c12 -2 32 -2 45 0 12 2 2 4 -23 4 -25 0 -35 -2 -22 -4z"></path><path id="pjo27JwyJ" d="M4258 3493 c23 -2 59 -2 80 0 20 2 1 4 -43 4 -44 0 -61 -2 -37 -4z"></path><path id="pNtkUKrFv" d="M4643 3493 c15 -2 37 -2 50 0 12 2 0 4 -28 4 -27 0 -38 -2 -22 -4z"></path><path id="pngQIDe2i" d="M4898 3493 c12 -2 30 -2 40 0 9 3 -1 5 -23 4 -22 0 -30 -2 -17 -4z"></path><path id="p2owa2WDu" d="M4978 3493 c12 -2 30 -2 40 0 9 3 -1 5 -23 4 -22 0 -30 -2 -17 -4z"></path><path id="psxp9ta0k" d="M5188 3493 c23 -2 61 -2 85 0 23 2 4 4 -43 4 -47 0 -66 -2 -42 -4z"></path><path id="p16iGRofvZ" d="M5442 3493 c48 -2 129 -2 180 0 51 1 12 3 -87 3 -99 0 -141 -2 -93 -3z"></path><path id="p11k002Az3" d="M5743 3493 c15 -2 39 -2 55 0 15 2 2 4 -28 4 -30 0 -43 -2 -27 -4z"></path><path id="poNXmPBp8" d="M5938 3493 c23 -2 61 -2 85 0 23 2 4 4 -43 4 -47 0 -66 -2 -42 -4z"></path><path id="p14LauRIfS" d="M6138 3493 c12 -2 30 -2 40 0 9 3 -1 5 -23 4 -22 0 -30 -2 -17 -4z"></path><path id="p12OMfQLud" d="M6313 3493 c20 -2 54 -2 75 0 20 2 3 4 -38 4 -41 0 -58 -2 -37 -4z"></path><path id="p11IjdXq93" d="M6468 3493 c12 -2 32 -2 45 0 12 2 2 4 -23 4 -25 0 -35 -2 -22 -4z"></path><path id="p1CT0WVv7z" d="M6623 3493 c37 -2 97 -2 135 0 37 2 6 3 -68 3 -74 0 -105 -1 -67 -3z"></path><path id="p10NsQtAZa" d="M6983 3493 c54 -2 139 -2 190 0 51 1 7 3 -98 3 -104 0 -146 -2 -92 -3z"></path><path id="p8bVji1N0" d="M7288 3493 c12 -2 30 -2 40 0 9 3 -1 5 -23 4 -22 0 -30 -2 -17 -4z"></path><path id="pXpHsmx2p" d="M7483 3493 c167 -5 169 -23 2 -23 -118 0 -125 -1 -125 -20 0 -19 7 -20 130 -20 l130 0 0 35 0 35 -132 -2 -133 -2 128 -3z"></path><path id="pFcIp7jLJ" d="M1260 3450 c0 -18 7 -20 65 -20 58 0 65 2 65 20 0 18 -7 20 -65 20 -58 0 -65 -2 -65 -20z"></path><path id="p19gGCJaDx" d="M1410 3450 c0 -16 7 -20 35 -20 28 0 35 4 35 20 0 16 -7 20 -35 20 -28 0 -35 -4 -35 -20z"></path><path id="phrX8G2zv" d="M1520 3450 c0 -16 7 -20 35 -20 28 0 35 4 35 20 0 16 -7 20 -35 20 -28 0 -35 -4 -35 -20z"></path><path id="pOJ2VVej4" d="M1640 3450 c0 -19 7 -20 95 -20 88 0 95 1 95 20 0 19 -7 20 -95 20 -88 0 -95 -1 -95 -20z"></path><path id="petQxyd79" d="M1900 3450 c0 -17 7 -20 40 -20 33 0 40 3 40 20 0 17 -7 20 -40 20 -33 0 -40 -3 -40 -20z"></path><path id="p1SmonnhY" d="M2050 3450 c0 -17 7 -20 40 -20 33 0 40 3 40 20 0 17 -7 20 -40 20 -33 0 -40 -3 -40 -20z"></path><path id="p12ZEHzLfR" d="M2170 3450 c0 -19 7 -20 95 -20 88 0 95 1 95 20 0 19 -7 20 -95 20 -88 0 -95 -1 -95 -20z"></path><path id="p7dZXGMa2" d="M2410 3450 c0 -16 7 -20 35 -20 28 0 35 4 35 20 0 16 -7 20 -35 20 -28 0 -35 -4 -35 -20z"></path><path id="p64Y1AeDM" d="M2490 3450 c0 -18 7 -20 55 -20 48 0 55 2 55 20 0 18 -7 20 -55 20 -48 0 -55 -2 -55 -20z"></path><path id="pGAD6orTv" d="M2620 3450 c0 -19 7 -20 110 -20 103 0 110 1 110 20 0 19 -7 20 -110 20 -103 0 -110 -1 -110 -20z"></path><path id="p1F5lmGd51" d="M2850 3450 c0 -16 7 -20 35 -20 28 0 35 4 35 20 0 16 -7 20 -35 20 -28 0 -35 -4 -35 -20z"></path><path id="pOmLMN7vi" d="M2930 3450 c0 -16 7 -20 35 -20 28 0 35 4 35 20 0 16 -7 20 -35 20 -28 0 -35 -4 -35 -20z"></path><path id="pOw22H8qf" d="M3080 3450 c0 -18 7 -20 75 -20 68 0 75 2 75 20 0 18 -7 20 -75 20 -68 0 -75 -2 -75 -20z"></path><path id="pOimkGaRa" d="M3260 3450 c0 -17 7 -20 40 -20 33 0 40 3 40 20 0 17 -7 20 -40 20 -33 0 -40 -3 -40 -20z"></path><path id="pgjW8wWjm" d="M3370 3450 c0 -17 7 -20 50 -20 43 0 50 3 50 20 0 17 -7 20 -50 20 -43 0 -50 -3 -50 -20z"></path><path id="pZ7bNU6AQ" d="M3490 3450 c0 -16 7 -20 35 -20 28 0 35 4 35 20 0 16 -7 20 -35 20 -28 0 -35 -4 -35 -20z"></path><path id="ppzdFvTrp" d="M3620 3450 c0 -17 7 -20 40 -20 33 0 40 3 40 20 0 17 -7 20 -40 20 -33 0 -40 -3 -40 -20z"></path><path id="pL927AXez" d="M3760 3450 c0 -16 7 -20 35 -20 28 0 35 4 35 20 0 16 -7 20 -35 20 -28 0 -35 -4 -35 -20z"></path><path id="p1591xaJvw" d="M3980 3450 c0 -17 7 -20 40 -20 33 0 40 3 40 20 0 17 -7 20 -40 20 -33 0 -40 -3 -40 -20z"></path><path id="pLPTo1JT" d="M4220 3450 c0 -18 7 -20 75 -20 68 0 75 2 75 20 0 18 -7 20 -75 20 -68 0 -75 -2 -75 -20z"></path><path id="pInDQaFWx" d="M4620 3450 c0 -17 7 -20 45 -20 38 0 45 3 45 20 0 17 -7 20 -45 20 -38 0 -45 -3 -45 -20z"></path><path id="p5vVIYFQY" d="M4880 3450 c0 -16 7 -20 35 -20 28 0 35 4 35 20 0 16 -7 20 -35 20 -28 0 -35 -4 -35 -20z"></path><path id="pLTKkcQlN" d="M4960 3450 c0 -16 7 -20 35 -20 28 0 35 4 35 20 0 16 -7 20 -35 20 -28 0 -35 -4 -35 -20z"></path><path id="p15SuXb6AG" d="M5150 3450 c0 -18 7 -20 80 -20 73 0 80 2 80 20 0 18 -7 20 -80 20 -73 0 -80 -2 -80 -20z"></path><path id="p1GRFq970G" d="M5360 3450 c0 -19 7 -20 175 -20 168 0 175 1 175 20 0 19 -7 20 -175 20 -168 0 -175 -1 -175 -20z"></path><path id="p7RIM03g3" d="M5720 3450 c0 -17 7 -20 50 -20 43 0 50 3 50 20 0 17 -7 20 -50 20 -43 0 -50 -3 -50 -20z"></path><path id="pFmk3cb1a" d="M5900 3450 c0 -18 7 -20 80 -20 73 0 80 2 80 20 0 18 -7 20 -80 20 -73 0 -80 -2 -80 -20z"></path><path id="pq7WMlB1E" d="M6120 3450 c0 -16 7 -20 35 -20 28 0 35 4 35 20 0 16 -7 20 -35 20 -28 0 -35 -4 -35 -20z"></path><path id="pCEowgVCR" d="M6280 3450 c0 -18 7 -20 70 -20 63 0 70 2 70 20 0 18 -7 20 -70 20 -63 0 -70 -2 -70 -20z"></path><path id="pBTHhDcQ4" d="M6450 3450 c0 -17 7 -20 40 -20 33 0 40 3 40 20 0 17 -7 20 -40 20 -33 0 -40 -3 -40 -20z"></path><path id="p9rznoKrI" d="M6560 3450 c0 -19 7 -20 130 -20 123 0 130 1 130 20 0 19 -7 20 -130 20 -123 0 -130 -1 -130 -20z"></path><path id="pGpiClURb" d="M6890 3450 c0 -19 7 -20 185 -20 178 0 185 1 185 20 0 19 -7 20 -185 20 -178 0 -185 -1 -185 -20z"></path><path id="pnuNDIEah" d="M7270 3450 c0 -16 7 -20 35 -20 28 0 35 4 35 20 0 16 -7 20 -35 20 -28 0 -35 -4 -35 -20z"></path><path id="p6gnNG8B5" d="M2630 3025 c0 -8 7 -16 15 -16 8 -1 20 -2 26 -3 7 0 15 -10 20 -21 6 -15 8 -11 8 18 1 36 0 37 -34 37 -24 0 -35 -5 -35 -15z"></path><path id="p17fT6Rnr9" d="M3820 3005 c0 -19 5 -35 10 -35 6 0 10 7 10 15 0 8 11 17 25 21 39 10 31 34 -10 34 -33 0 -35 -2 -35 -35z"></path><path id="pDqfKMhmg" d="M5338 3024 c-21 -11 -28 -22 -28 -44 l0 -30 47 30 c26 17 53 30 60 30 7 0 13 7 13 15 0 20 -55 19 -92 -1z"></path><path id="pCKtFYgKD" d="M6910 3020 c0 -15 5 -19 23 -16 12 3 28 5 35 5 6 1 12 8 12 16 0 10 -11 15 -35 15 -28 0 -35 -4 -35 -20z"></path><path id="peOeEZTVa" d="M3570 3017 c0 -8 16 -18 35 -24 33 -11 35 -10 35 13 0 21 -5 24 -35 24 -22 0 -35 -5 -35 -13z"></path><path id="pzCstuZ9Q" d="M4930 2995 c0 -41 24 -49 34 -10 4 14 13 25 21 25 8 0 15 5 15 10 0 6 -16 10 -35 10 -33 0 -35 -2 -35 -35z"></path><path id="p1ku051tc" d="M6730 3020 c0 -5 7 -10 16 -10 13 0 15 -8 9 -50 -6 -45 -5 -50 13 -50 15 0 21 9 26 38 12 75 10 82 -29 82 -19 0 -35 -4 -35 -10z"></path><path id="pALfS1jHX" d="M3370 2890 c0 -109 2 -130 15 -130 17 0 16 -4 18 139 2 94 4 105 22 112 15 6 11 8 -17 8 l-38 1 0 -130z"></path><path id="pLTGn6Rpi" d="M4803 3013 c21 -6 24 -53 2 -53 -8 0 -15 -4 -15 -10 0 -5 16 -10 35 -10 34 0 35 1 35 40 0 40 0 40 -37 39 -21 -1 -30 -3 -20 -6z"></path><path id="pXtwytFDI" d="M6470 2805 l0 -215 35 0 c19 0 35 5 35 10 0 6 -8 10 -17 10 -17 0 -18 15 -16 197 2 179 4 198 20 205 12 4 6 7 -19 7 l-38 1 0 -215z"></path><path id="p1ED9ERK7K" d="M2790 2975 c0 -24 5 -35 15 -35 8 0 15 6 16 13 0 6 2 22 3 35 2 16 -3 22 -16 22 -14 0 -18 -8 -18 -35z"></path><path id="pM0XKEIT" d="M7094 2976 c15 -13 26 -28 26 -35 0 -6 5 -11 10 -11 6 0 10 16 10 35 0 33 -2 35 -36 35 l-35 0 25 -24z"></path><path id="p4G2Y7cNa" d="M1900 2955 c0 -40 24 -49 34 -12 10 37 7 47 -14 47 -16 0 -20 -7 -20 -35z"></path><path id="pdpZhAyoo" d="M2260 2960 c5 -16 7 -30 4 -30 -3 0 0 -9 6 -20 18 -34 30 -22 30 30 0 46 -2 50 -24 50 -23 0 -24 -3 -16 -30z"></path><path id="phK80ZYZ2" d="M4240 2945 c0 -37 13 -46 25 -17 17 37 15 52 -5 52 -16 0 -20 -7 -20 -35z"></path><path id="p1HGhv9QQa" d="M2893 2963 c-23 -8 -14 -33 11 -33 13 0 38 -3 55 -6 26 -6 31 -11 31 -36 0 -23 4 -29 18 -26 23 4 24 48 2 75 -16 21 -91 37 -117 26z"></path><path id="pqs2uuWyr" d="M3073 2935 c6 -19 16 -35 24 -35 8 0 13 13 13 35 0 30 -3 35 -24 35 -23 0 -24 -2 -13 -35z"></path><path id="p1B4yscPYK" d="M4374 2953 c11 -59 36 -71 36 -18 0 28 -4 35 -20 35 -14 0 -19 -6 -16 -17z"></path><path id="pIgfroEFi" d="M5412 2963 c-25 -5 -62 -56 -62 -85 0 -11 8 -18 20 -18 15 0 20 7 20 29 0 28 3 30 47 37 32 5 48 3 51 -5 2 -6 10 -11 18 -11 9 0 14 -11 14 -35 0 -28 4 -35 20 -35 24 0 25 17 4 70 -13 32 -23 42 -53 50 -37 10 -40 10 -79 3z"></path><path id="pe6bdF7cu" d="M6958 2962 c-34 -7 -20 -32 17 -32 23 0 35 5 35 14 0 15 -25 24 -52 18z"></path><path id="pktA1C0QO" d="M2130 2925 c0 -52 26 -45 36 10 3 20 0 25 -16 25 -16 0 -20 -7 -20 -35z"></path><path id="p14C9ge8g" d="M2520 2940 c0 -13 7 -20 20 -20 13 0 20 7 20 20 0 13 -7 20 -20 20 -13 0 -20 -7 -20 -20z"></path><path id="ppVhcRcAa" d="M2034 2925 c10 -55 36 -62 36 -10 0 28 -4 35 -20 35 -16 0 -19 -5 -16 -25z"></path><path id="pJUtpwvE3" d="M5601 2923 c9 -23 16 -93 19 -170 0 -7 7 -13 15 -13 12 0 15 14 15 68 0 109 -9 142 -36 142 -22 0 -23 -2 -13 -27z"></path><path id="pU4ywbyTy" d="M7040 2905 c0 -37 24 -50 32 -17 6 27 -2 52 -18 52 -9 0 -14 -11 -14 -35z"></path><path id="plKH6gnmp" d="M4316 2918 c-3 -10 -9 -26 -13 -35 -19 -52 -13 -59 34 -47 18 5 20 10 13 34 -5 16 -13 37 -18 47 -10 17 -11 17 -16 1z"></path><path id="pzfMwJVdo" d="M3695 2848 c2 -35 4 -69 4 -75 1 -7 8 -13 16 -13 12 0 15 15 15 75 0 67 -2 75 -19 75 -17 0 -19 -7 -16 -62z"></path><path id="pIgxTon7c" d="M3610 2815 c0 -66 3 -85 14 -85 7 0 16 8 19 19 6 26 2 125 -7 139 -18 29 -26 6 -26 -73z"></path><path id="pK0s2Jiec" d="M5260 2865 c0 -24 5 -35 15 -35 8 0 15 6 16 13 0 6 2 22 5 35 3 17 -1 22 -16 22 -16 0 -20 -7 -20 -35z"></path><path id="pjOlx9xF7" d="M2171 2773 c-19 -65 -34 -125 -36 -133 -3 -23 -67 -20 -72 3 -1 9 -5 23 -6 30 -2 6 -10 33 -17 60 -15 57 -40 64 -40 12 0 -19 4 -35 9 -35 5 0 11 -22 15 -50 5 -34 11 -50 21 -50 8 0 15 -4 15 -10 0 -5 16 -10 35 -10 19 0 35 5 35 10 0 6 8 10 18 10 21 0 42 55 42 109 0 17 5 31 10 31 6 0 10 16 10 35 0 19 5 35 10 35 6 0 10 16 10 35 0 22 -5 35 -13 35 -9 0 -26 -43 -46 -117z"></path><path id="p10ijLJxBs" d="M2519 2875 c-5 -53 -8 -50 72 -50 67 1 75 -1 76 -18 1 -11 -6 -21 -18 -24 -34 -9 -22 -33 16 -33 l35 0 0 49 c0 56 -8 61 -97 61 -40 0 -53 4 -53 15 0 8 -7 15 -15 15 -8 0 -16 -7 -16 -15z"></path><path id="pt1uJeQht" d="M5810 2877 c0 -20 9 -25 31 -20 28 8 24 33 -6 33 -14 0 -25 -6 -25 -13z"></path><path id="p12ECuYBoC" d="M6557 2871 c-2 -11 -2 -22 1 -25 7 -8 51 -7 80 0 32 9 28 34 -5 34 -16 0 -38 3 -49 6 -16 4 -23 0 -27 -15z"></path><path id="p18l2fLPDe" d="M2110 2845 c0 -52 26 -45 36 10 3 20 0 25 -16 25 -16 0 -20 -7 -20 -35z"></path><path id="p1B0PEBiel" d="M4200 2840 c0 -59 22 -53 40 10 8 27 6 30 -16 30 -21 0 -24 -4 -24 -40z"></path><path id="p11vTJSc4z" d="M3080 2855 c0 -8 -3 -15 -7 -15 -5 0 -16 -12 -26 -25 l-18 -25 36 0 c34 0 35 1 35 40 0 22 -4 40 -10 40 -5 0 -10 -7 -10 -15z"></path><path id="pGicvlOD2" d="M2294 2828 c3 -18 8 -44 11 -57 5 -28 22 -48 31 -38 3 3 3 33 -1 66 -6 52 -10 61 -27 61 -17 0 -19 -5 -14 -32z"></path><path id="pngalZs0R" d="M3890 2845 c0 -19 40 -29 100 -23 44 4 49 3 53 -16 2 -12 5 -4 6 17 l1 37 -80 0 c-64 0 -80 -3 -80 -15z"></path><path id="pRJ8nZojU" d="M4660 2845 c0 -8 6 -16 13 -17 30 -3 65 -6 100 -7 26 -1 37 -6 37 -16 0 -8 7 -15 15 -15 10 0 15 11 15 35 l0 35 -90 0 c-73 0 -90 -3 -90 -15z"></path><path id="pG8evFFct" d="M6200 2846 c0 -19 23 -25 93 -23 48 2 57 -1 57 -15 0 -10 5 -18 10 -18 6 0 10 16 10 35 l0 35 -85 0 c-67 0 -85 -3 -85 -14z"></path><path id="pe1qfzEdK" d="M4414 2828 c3 -13 5 -24 7 -25 1 -2 2 -6 4 -10 13 -47 35 -57 35 -15 0 47 -11 72 -31 72 -14 0 -18 -6 -15 -22z"></path><path id="pqvpyd59O" d="M1870 2805 c0 -53 29 -44 35 11 2 18 -3 24 -16 24 -15 0 -19 -8 -19 -35z"></path><path id="pAoCRvARf" d="M5260 2785 c0 -37 24 -50 32 -17 6 27 -2 52 -18 52 -9 0 -14 -11 -14 -35z"></path><path id="p19MCeS2SM" d="M4277 2798 c-2 -7 -6 -17 -7 -23 -1 -5 -7 -21 -12 -35 -20 -52 -20 -70 2 -70 16 0 20 7 20 35 0 19 5 35 10 35 6 0 10 16 10 35 0 34 -13 47 -23 23z"></path><path id="pRch9VInS" d="M6742 2775 c29 -44 38 -44 38 0 0 32 -2 35 -30 35 l-30 0 22 -35z"></path><path id="pdAbevnz5" d="M4350 2775 c0 -51 23 -115 42 -115 18 0 26 39 11 54 -5 4 -9 12 -9 17 -1 5 -3 11 -4 14 -1 3 -3 8 -5 13 -12 45 -35 56 -35 17z"></path><path id="p13hNa2tw4" d="M6610 2781 c0 -13 9 -21 30 -26 23 -5 30 -12 30 -31 0 -13 -4 -24 -10 -24 -5 0 -10 -9 -10 -20 0 -29 34 -26 48 4 7 17 8 35 1 60 -11 40 -20 48 -60 52 -23 3 -29 0 -29 -15z"></path><path id="pKxHF1hi7" d="M2883 2773 c-8 -19 -6 -20 65 -28 61 -7 63 -6 51 12 -6 11 -17 20 -23 21 -6 0 -28 2 -49 5 -27 2 -41 -1 -44 -10z"></path><path id="p1HNO0z8uB" d="M690 2759 c0 -13 10 -23 30 -30 17 -6 30 -14 30 -19 0 -4 25 -18 55 -31 30 -13 55 -27 55 -30 0 -4 9 -9 20 -12 16 -4 20 0 20 19 0 15 -6 24 -15 24 -8 0 -15 5 -15 10 0 6 -9 10 -19 10 -10 0 -21 7 -25 15 -3 8 -23 17 -45 21 -27 4 -41 12 -44 25 -7 27 -47 25 -47 -2z"></path><path id="pmaQTF6NU" d="M2520 2760 c0 -13 7 -20 20 -20 13 0 20 7 20 20 0 13 -7 20 -20 20 -13 0 -20 -7 -20 -20z"></path><path id="p8jrxDHE4" d="M3897 2773 c-15 -15 -7 -43 13 -43 15 0 20 7 20 25 0 24 -18 34 -33 18z"></path><path id="pAQxOjG3C" d="M6982 2765 c-41 -22 -55 -58 -38 -95 10 -24 46 -23 46 1 0 10 -4 19 -10 19 -5 0 -10 7 -10 15 0 8 7 15 15 15 8 0 15 5 15 10 0 6 9 10 20 10 13 0 20 7 20 20 0 23 -22 25 -58 5z"></path><path id="p1GY7pPk0j" d="M8130 2745 c0 -9 -9 -15 -25 -15 -20 0 -25 -5 -25 -25 0 -28 7 -26 78 14 51 30 53 41 7 41 -24 0 -35 -5 -35 -15z"></path><path id="pZrpx9pzR" d="M3370 2680 c0 -56 3 -70 15 -70 16 0 17 4 17 70 0 66 -1 70 -17 70 -12 0 -15 -14 -15 -70z"></path><path id="p3kO9qcgu" d="M2090 2720 c0 -11 5 -20 10 -20 6 0 10 9 10 20 0 11 -4 20 -10 20 -5 0 -10 -9 -10 -20z"></path><path id="pX2LeSVnn" d="M1840 2695 c0 -40 24 -49 34 -12 10 37 7 47 -14 47 -16 0 -20 -7 -20 -35z"></path><path id="p1DDDJvYxH" d="M2790 2695 c0 -37 24 -50 32 -17 6 27 -2 52 -18 52 -9 0 -14 -11 -14 -35z"></path><path id="p4JlyXWQo" d="M4466 2675 c7 -25 16 -50 19 -55 3 -6 -3 -10 -14 -10 -12 0 -21 -4 -21 -10 0 -5 16 -10 35 -10 31 0 35 3 35 25 0 14 -6 43 -12 65 -10 30 -18 40 -34 40 -21 0 -22 -1 -8 -45z"></path><path id="pFdcfkJuf" d="M1920 2660 c-10 -43 -15 -50 -36 -50 -17 0 -24 6 -24 20 0 14 -7 20 -21 20 -17 0 -20 -5 -17 -37 l3 -38 53 -3 52 -3 0 35 c0 25 4 36 15 36 10 0 15 11 15 35 0 54 -26 45 -40 -15z"></path><path id="p1BGoamBI2" d="M3672 2670 l-21 -40 30 0 c27 0 29 2 29 40 0 22 -4 40 -8 40 -5 0 -18 -18 -30 -40z"></path><path id="p12tTXxvUf" d="M6752 2672 c-8 -25 -21 -43 -37 -50 -35 -16 -31 -32 6 -32 42 0 69 32 69 82 0 50 -23 51 -38 0z"></path><path id="pHH3fgi7R" d="M2877 2680 c-4 -15 0 -20 14 -20 12 0 19 7 19 20 0 11 -6 20 -14 20 -7 0 -16 -9 -19 -20z"></path><path id="p4zmaUE2m" d="M5370 2693 c0 -14 15 -29 33 -36 13 -5 17 -1 17 18 0 20 -5 25 -25 25 -14 0 -25 -3 -25 -7z"></path><path id="pY0cIyShX" d="M3890 2671 c0 -14 5 -18 20 -14 11 3 20 12 20 19 0 8 -9 14 -20 14 -13 0 -20 -7 -20 -19z"></path><path id="piJbbuEhz" d="M4140 2650 c0 -44 6 -49 26 -22 21 27 18 62 -6 62 -17 0 -20 -7 -20 -40z"></path><path id="pWq2aBKbx" d="M6010 2678 c0 -12 -59 -68 -72 -68 -4 0 -8 -4 -8 -10 0 -5 16 -10 35 -10 24 0 35 5 35 15 0 8 7 15 15 15 10 0 15 11 15 35 0 19 -4 35 -10 35 -5 0 -10 -5 -10 -12z"></path><path id="p14AmondhX" d="M4020 2670 c0 -5 7 -10 15 -10 8 0 17 -11 21 -25 10 -39 34 -31 34 10 0 33 -2 35 -35 35 -19 0 -35 -4 -35 -10z"></path><path id="p1EiQ0JvPQ" d="M2250 2635 c0 -31 3 -35 25 -35 16 0 25 -6 25 -15 0 -10 11 -15 35 -15 33 0 35 2 35 35 0 25 -4 35 -16 35 -10 0 -14 -6 -10 -15 4 -11 -2 -15 -24 -15 -23 0 -30 5 -35 30 -9 43 -35 39 -35 -5z"></path><path id="p9PZcoQcG" d="M3041 2634 l-34 -34 36 0 c36 0 37 1 37 35 0 19 -1 34 -2 34 -2 -1 -18 -16 -37 -35z"></path><path id="pw5uQu1YS" d="M4224 2625 c-4 -8 -17 -15 -30 -15 -17 0 -24 -6 -24 -20 0 -16 7 -20 35 -20 33 0 35 2 35 35 0 37 -7 45 -16 20z"></path><path id="p1FkHJsYug" d="M4940 2605 c0 -33 2 -35 35 -35 28 0 35 4 35 20 0 15 -7 20 -25 20 -16 0 -25 6 -25 15 0 8 -4 15 -10 15 -5 0 -10 -16 -10 -35z"></path><path id="pCXvR0zye" d="M7910 2620 c0 -16 -7 -20 -35 -20 -31 0 -35 -3 -35 -25 0 -14 2 -25 5 -25 13 0 135 73 135 81 0 5 -16 9 -35 9 -28 0 -35 -4 -35 -20z"></path><path id="pIJY6Umgy" d="M935 2613 c11 -10 36 -26 55 -35 34 -17 35 -17 38 4 5 29 -10 40 -65 45 -47 5 -48 5 -28 -14z"></path><path id="phE2Ab6Yi" d="M5400 2588 c0 -15 10 -18 60 -18 50 0 60 3 60 18 0 14 -10 17 -60 17 -50 0 -60 -3 -60 -17z"></path><path id="p12FdA9NdN" d="M6960 2588 c0 -14 8 -18 35 -18 24 0 35 5 35 15 0 8 -6 15 -12 16 -7 0 -23 2 -35 3 -17 2 -23 -3 -23 -16z"></path><path id="pzh16WWtO" d="M1050 2552 c0 -7 17 -18 63 -40 4 -2 7 8 7 22 0 23 -4 26 -35 26 -19 0 -35 -4 -35 -8z"></path><path id="py4skHZq2" d="M7750 2535 c0 -8 -9 -15 -19 -15 -34 0 -51 -12 -51 -36 0 -18 4 -22 18 -17 30 11 122 67 122 75 0 5 -16 8 -35 8 -24 0 -35 -5 -35 -15z"></path><path id="p3G6QBQYr" d="M1130 2513 c0 -9 34 -34 63 -45 15 -7 18 -3 15 20 -3 23 -8 27 -40 30 -21 2 -38 0 -38 -5z"></path><path id="pZctxhfMO" d="M1246 2442 c10 -10 27 -21 37 -25 13 -5 17 -1 17 18 0 22 -4 25 -37 25 -36 0 -36 0 -17 -18z"></path><path id="pNZYjDbsG" d="M7570 2424 c0 -14 3 -24 8 -22 73 35 80 48 27 48 -31 0 -35 -3 -35 -26z"></path><path id="p1BHhJfSgm" d="M7460 2381 c0 -5 -13 -11 -30 -14 -24 -5 -30 -12 -30 -32 0 -14 2 -25 6 -25 12 0 124 65 124 72 0 4 -16 8 -35 8 -19 0 -35 -4 -35 -9z"></path><path id="p158C6epKu" d="M1395 2361 c11 -10 30 -22 43 -26 19 -5 22 -3 22 19 0 24 -4 26 -42 26 -42 0 -42 0 -23 -19z"></path><path id="pSadenPiV" d="M1482 2319 c2 -6 22 -21 43 -33 22 -11 42 -24 43 -29 2 -4 8 -5 13 -1 5 3 9 1 9 -4 0 -5 9 -12 20 -15 30 -8 28 39 -2 49 -12 3 -31 15 -42 25 -22 21 -90 27 -84 8z"></path><path id="pg84JAzxB" d="M7308 2303 c-10 -2 -18 -9 -18 -14 0 -5 -7 -9 -15 -9 -9 0 -15 -10 -15 -26 0 -14 3 -24 8 -22 66 32 90 46 106 61 19 17 19 17 -15 16 -19 -1 -42 -3 -51 -6z"></path><path id="pXqt4McME" d="M1713 2185 c15 -14 34 -25 42 -25 7 0 20 -6 27 -13 7 -7 29 -20 48 -29 31 -15 35 -15 38 -2 7 29 -7 44 -48 50 -22 4 -40 12 -40 19 0 16 -23 25 -63 25 l-32 -1 28 -24z"></path><path id="p160zlHViQ" d="M7040 2145 c0 -9 -9 -15 -25 -15 -14 0 -25 -4 -25 -10 0 -5 -9 -10 -20 -10 -15 0 -20 -7 -20 -25 0 -22 3 -23 23 -15 12 6 30 13 40 16 9 4 17 9 17 13 0 4 18 15 40 25 49 22 51 36 5 36 -24 0 -35 -5 -35 -15z"></path><path id="pD1y2X9AA" d="M1900 2085 c12 -15 20 -19 120 -70 30 -16 58 -33 62 -39 4 -6 8 -7 8 -3 0 4 17 -4 37 -18 21 -14 41 -25 46 -25 4 0 20 -9 35 -19 15 -11 37 -22 50 -26 19 -5 22 -3 22 19 0 22 -5 27 -40 32 -22 4 -40 11 -40 17 0 15 -33 36 -57 37 -13 0 -23 5 -23 10 0 6 -16 10 -35 10 -28 0 -35 4 -35 20 0 20 -45 50 -75 50 -8 0 -15 5 -15 10 0 6 -16 10 -36 10 -31 0 -35 -2 -24 -15z"></path><path id="p6YIofOjD" d="M4380 2070 c0 -16 7 -20 35 -20 28 0 35 4 35 20 0 16 -7 20 -35 20 -28 0 -35 -4 -35 -20z"></path><path id="pJkdUFLbn" d="M3993 2053 c15 -4 17 -21 17 -179 0 -167 1 -174 20 -174 19 0 20 7 20 180 l0 180 -37 -1 c-21 -1 -30 -3 -20 -6z"></path><path id="p14oMNBWZx" d="M6860 2036 c0 -19 4 -23 19 -19 11 3 27 14 37 24 17 18 16 19 -19 19 -32 0 -37 -3 -37 -24z"></path><path id="pmIhqRKo4" d="M4670 1845 l0 -205 38 1 c20 1 28 4 17 6 -19 4 -20 11 -18 203 2 192 1 200 -18 200 -18 0 -19 -9 -19 -205z"></path><path id="pDd54Wfnj" d="M6760 2000 c0 -5 -7 -10 -15 -10 -8 0 -15 -4 -15 -10 0 -5 -9 -10 -20 -10 -11 0 -20 -4 -20 -10 0 -5 -7 -10 -15 -10 -8 0 -15 -4 -15 -9 0 -5 -13 -11 -30 -14 -18 -4 -30 -13 -30 -22 0 -9 -9 -15 -25 -15 -18 0 -25 -5 -25 -19 0 -15 -10 -19 -47 -24 -26 -3 -49 -10 -51 -16 -2 -6 -10 -11 -18 -11 -8 0 -14 -10 -14 -25 0 -22 3 -23 23 -15 12 6 30 13 40 16 9 4 17 11 17 16 0 5 5 6 10 3 6 -3 10 -2 10 3 0 6 17 17 38 26 20 8 64 31 97 49 33 19 85 48 115 65 66 37 74 52 26 52 -20 0 -36 -4 -36 -10z"></path><path id="pTb5TnKjZ" d="M4210 1935 c0 -24 5 -35 15 -35 8 0 15 6 16 13 0 6 2 22 5 35 3 17 -1 22 -16 22 -16 0 -20 -7 -20 -35z"></path><path id="pb16eBH2r" d="M4470 1885 c0 -37 24 -50 32 -17 6 27 -2 52 -18 52 -9 0 -14 -11 -14 -35z"></path><path id="pkSDUCHor" d="M2306 1861 c11 -10 30 -22 42 -25 19 -6 22 -3 22 18 0 24 -4 26 -42 26 -41 0 -42 0 -22 -19z"></path><path id="p18AxmZuz0" d="M4808 1852 c-34 -7 -20 -32 17 -32 23 0 35 5 35 14 0 15 -25 24 -52 18z"></path><path id="p34NoG2UX" d="M4470 1805 c0 -37 24 -50 32 -17 6 27 -2 52 -18 52 -9 0 -14 -11 -14 -35z"></path><path id="pb7xLokky" d="M4955 1798 c2 -24 3 -49 4 -55 1 -7 8 -13 16 -13 12 0 15 13 15 55 0 47 -3 55 -19 55 -15 0 -18 -7 -16 -42z"></path><path id="pOjmwbapD" d="M4210 1765 c0 -19 5 -35 10 -35 6 0 10 -11 10 -25 0 -16 6 -25 15 -25 8 0 15 -9 15 -20 0 -16 7 -20 35 -20 24 0 35 -5 35 -15 0 -11 11 -15 40 -15 29 0 40 4 40 15 0 8 -8 16 -17 17 -10 0 -22 2 -28 3 -5 2 -17 3 -26 4 -18 1 -90 60 -74 61 6 0 4 4 -2 8 -11 7 -20 35 -22 70 -1 6 -8 12 -16 12 -10 0 -15 -11 -15 -35z"></path><path id="pIzC2hs3b" d="M2522 1748 c3 -7 24 -23 49 -36 l44 -23 3 21 c2 12 -4 28 -15 35 -23 18 -86 20 -81 3z"></path><path id="p8C0w1I7v" d="M4312 1734 c2 -9 13 -23 26 -32 21 -14 22 -13 22 17 0 27 -4 31 -26 31 -18 0 -25 -5 -22 -16z"></path><path id="pDXxY9tzv" d="M3831 1693 c1 -21 4 -29 6 -17 4 19 11 21 61 21 45 0 58 3 60 16 3 15 -6 17 -62 17 l-66 0 1 -37z"></path><path id="pcyx002RC" d="M4090 1716 c0 -8 11 -17 25 -20 14 -4 25 -13 25 -21 0 -8 5 -15 10 -15 6 0 10 16 10 35 0 33 -2 35 -35 35 -23 0 -35 -5 -35 -14z"></path><path id="pgBe3TJhw" d="M4760 1712 c0 -13 8 -17 33 -16 61 2 67 4 67 19 0 11 -12 15 -50 15 -41 0 -50 -3 -50 -18z"></path><path id="p19IkO1uJ1" d="M6250 1705 c0 -30 3 -30 41 -8 38 23 37 33 -6 33 -31 0 -35 -3 -35 -25z"></path><path id="pYpKq9sPs" d="M4940 1690 c0 -5 -13 -16 -30 -25 -40 -21 -38 -35 5 -35 33 0 35 2 35 35 0 19 -2 35 -5 35 -3 0 -5 -4 -5 -10z"></path><path id="pA963hfGl" d="M6163 1673 c-7 -2 -13 -15 -13 -28 0 -18 4 -22 20 -18 11 3 20 10 20 15 0 5 3 7 8 5 4 -3 16 4 26 14 19 19 19 19 -15 18 -19 0 -40 -3 -46 -6z"></path><path id="pYY3OxT3E" d="M2680 1662 c0 -8 106 -72 120 -72 5 0 15 -6 22 -14 8 -7 24 -17 36 -20 19 -6 22 -4 22 18 0 22 -4 26 -30 26 -20 0 -30 5 -30 15 0 10 -11 15 -35 15 -28 0 -35 4 -35 20 0 16 -7 20 -35 20 -19 0 -35 -4 -35 -8z"></path><path id="pSN5E5slN" d="M6048 1613 c-10 -2 -18 -9 -18 -14 0 -5 -7 -9 -15 -9 -9 0 -15 -10 -15 -26 0 -14 3 -24 8 -22 66 32 90 46 106 61 19 17 19 17 -15 16 -19 -1 -42 -3 -51 -6z"></path><path id="p1FOQhnXSb" d="M5910 1514 c0 -14 3 -24 8 -22 73 35 80 48 27 48 -31 0 -35 -3 -35 -26z"></path><path id="pY6sABdiG" d="M2940 1516 c6 -8 33 -25 58 -37 26 -12 54 -27 62 -34 32 -26 50 -26 50 0 0 20 -5 25 -25 25 -16 0 -25 6 -25 15 0 10 -10 15 -30 15 -20 0 -30 5 -30 15 0 11 -11 15 -36 15 -31 0 -35 -2 -24 -14z"></path><path id="pMysG0v2X" d="M5800 1454 c0 -14 3 -24 8 -22 73 35 80 48 27 48 -31 0 -35 -3 -35 -26z"></path><path id="pnbvpmhGM" d="M5717 1433 c-4 -3 -7 -15 -7 -25 0 -14 -8 -18 -35 -18 -19 0 -35 -4 -35 -10 0 -5 -9 -10 -20 -10 -11 0 -20 -7 -20 -15 0 -10 -10 -15 -30 -15 -16 0 -30 -4 -30 -10 0 -5 -7 -10 -15 -10 -8 0 -15 -9 -15 -20 0 -15 -7 -20 -30 -20 -46 0 -80 -20 -80 -47 0 -23 0 -23 37 -8 21 9 40 20 43 24 3 5 23 17 45 28 88 45 150 78 155 84 3 3 27 17 54 30 61 31 70 49 24 49 -19 0 -38 -3 -41 -7z"></path><path id="pLx84XufK" d="M3140 1412 c0 -4 12 -15 28 -24 64 -37 141 -78 146 -78 4 0 6 11 6 25 0 18 -5 25 -20 25 -11 0 -20 5 -20 10 0 6 -16 10 -35 10 -28 0 -35 4 -35 20 0 16 -7 20 -35 20 -19 0 -35 -4 -35 -8z"></path><path id="p17zGw5ie4" d="M3340 1302 c0 -8 51 -41 82 -54 14 -6 18 -2 18 17 0 16 -6 25 -15 25 -8 0 -15 5 -15 10 0 6 -16 10 -35 10 -19 0 -35 -4 -35 -8z"></path><path id="p1CQWRaIhQ" d="M3450 1242 c0 -8 52 -42 64 -42 3 0 6 11 6 25 0 22 -4 25 -35 25 -19 0 -35 -4 -35 -8z"></path><path id="pBcS9vOUo" d="M5270 1180 c0 -5 -7 -10 -15 -10 -10 0 -15 -10 -15 -26 0 -22 2 -25 15 -14 8 7 15 9 15 4 0 -5 4 -4 8 1 4 6 19 16 35 24 37 19 34 31 -8 31 -19 0 -35 -4 -35 -10z"></path><path id="p13KTPvoHT" d="M3650 1132 c0 -8 52 -42 64 -42 3 0 6 11 6 25 0 22 -4 25 -35 25 -19 0 -35 -4 -35 -8z"></path><path id="p1G6TY8orq" d="M5140 1094 c0 -14 3 -24 8 -22 73 35 80 48 27 48 -31 0 -35 -3 -35 -26z"></path><path id="p11vD9AyLN" d="M3740 1082 c0 -8 52 -42 64 -42 3 0 6 11 6 25 0 22 -4 25 -35 25 -19 0 -35 -4 -35 -8z"></path><path id="psQaNZ4Dj" d="M5010 1035 c0 -9 -9 -15 -25 -15 -16 0 -25 -6 -25 -15 0 -9 -9 -15 -25 -15 -20 0 -25 -5 -25 -24 0 -19 4 -23 20 -19 11 3 20 9 20 13 0 5 10 12 21 15 31 10 109 58 109 67 0 5 -16 8 -35 8 -24 0 -35 -5 -35 -15z"></path><path id="p096tFZWR" d="M3960 962 c0 -8 71 -52 84 -52 14 0 5 48 -10 54 -23 9 -74 7 -74 -2z"></path><path id="p1GViIrylz" d="M4800 905 c0 -19 4 -23 18 -18 9 4 26 15 36 25 19 18 19 18 -17 18 -33 0 -37 -3 -37 -25z"></path><path id="pv9sXHlZu" d="M4076 892 c10 -10 27 -21 37 -25 13 -5 17 -1 17 18 0 22 -4 25 -37 25 -36 0 -36 0 -17 -18z"></path><path id="p174mt1xX1" d="M4710 855 c0 -19 4 -23 18 -18 9 4 26 15 36 25 19 18 19 18 -17 18 -33 0 -37 -3 -37 -25z"></path><path id="poXQ5hv0d" d="M4166 842 c10 -10 35 -25 54 -34 34 -17 35 -17 38 4 5 29 -23 48 -72 48 -39 0 -39 0 -20 -18z"></path><path id="pgtEoA8N8" d="M4600 805 c0 -10 -10 -15 -30 -15 -16 0 -30 -4 -30 -10 0 -5 -7 -10 -15 -10 -10 0 -15 -10 -15 -26 0 -22 2 -25 15 -14 8 7 15 9 15 4 0 -5 4 -4 8 1 4 6 25 19 47 30 22 11 48 28 59 38 19 17 19 17 -17 17 -26 0 -37 -4 -37 -15z"></path><path id="ppVFqPJOR" d="M4311 763 c8 -9 29 -22 48 -30 19 -8 41 -21 49 -29 19 -19 56 -14 60 8 3 14 -6 19 -37 24 -23 4 -41 12 -41 19 0 16 -23 25 -62 25 -27 0 -29 -2 -17 -17z"></path></g></g><g id="l4OkmXjHSS0eFIoxPG3Myf4" fill="rgb(255,61,46)" style="transform: none;"><g><path id="pjmiE1BKK" d="M5389 5087 c-101 -67 -79 -205 37 -236 115 -31 220 81 168 178 -42 78 -136 104 -205 58z"></path></g></g><g id="l5p4jPbtCBepefbfW069kvm" fill="rgb(254,254,254)" style="transform: none;"><g><path id="pQRan1KtA" d="M4380 9484 c-103 -59 -159 -90 -225 -124 -38 -20 -112 -60 -163 -88 -51 -29 -95 -52 -98 -52 -3 0 -36 -17 -72 -39 -37 -21 -107 -60 -157 -86 -143 -76 -217 -116 -265 -143 -25 -13 -72 -39 -105 -57 -33 -18 -96 -51 -140 -75 -44 -24 -93 -50 -110 -58 -16 -8 -76 -41 -132 -74 -56 -32 -105 -58 -108 -58 -3 0 -40 -20 -83 -44 -42 -24 -117 -65 -167 -91 -96 -51 -156 -84 -220 -120 -37 -21 -76 -42 -295 -157 -41 -22 -95 -51 -120 -66 -25 -14 -76 -42 -115 -62 -38 -20 -97 -51 -130 -70 -33 -18 -87 -47 -120 -65 -33 -17 -87 -47 -120 -65 -33 -18 -98 -53 -145 -77 -47 -25 -98 -53 -115 -63 -45 -26 -162 -90 -225 -122 -30 -16 -73 -39 -95 -51 -22 -13 -80 -45 -130 -71 -123 -66 -319 -173 -380 -206 -27 -15 -85 -46 -128 -69 -43 -23 -93 -50 -110 -60 l-32 -18 -3 -2357 -2 -2356 27 -11 c15 -6 30 -13 33 -17 5 -7 30 -20 180 -98 36 -19 72 -38 80 -44 15 -9 167 -92 295 -160 39 -21 99 -54 135 -73 95 -52 146 -79 230 -124 41 -22 128 -69 193 -104 65 -35 144 -78 175 -95 31 -16 91 -48 132 -71 41 -22 120 -64 175 -93 55 -30 116 -63 135 -74 19 -12 53 -30 75 -41 22 -11 42 -22 45 -25 3 -3 52 -30 110 -59 58 -29 110 -57 115 -61 6 -4 48 -28 95 -52 47 -25 103 -55 125 -68 22 -12 83 -45 135 -72 100 -53 180 -97 245 -135 22 -13 67 -37 100 -53 33 -17 71 -37 85 -45 14 -8 77 -43 140 -76 63 -34 135 -73 160 -87 25 -13 83 -45 130 -70 47 -24 135 -72 195 -105 61 -33 146 -79 190 -102 44 -24 202 -109 350 -189 149 -80 275 -146 280 -146 6 0 132 66 280 146 149 80 387 209 530 285 143 77 267 144 275 149 8 5 40 22 70 38 113 60 266 143 290 157 14 8 52 28 85 45 33 16 78 40 100 53 65 38 145 82 245 135 52 27 113 60 135 72 22 13 78 43 125 68 47 24 90 48 95 52 6 4 57 32 115 61 58 29 107 56 110 59 3 3 19 12 35 19 17 8 55 29 85 47 30 17 96 53 145 79 99 53 207 111 300 161 33 18 91 49 129 68 38 20 74 40 80 45 6 5 61 35 121 66 118 62 163 86 265 142 36 19 97 52 135 73 128 68 280 151 295 160 8 6 44 25 80 44 150 78 175 91 180 98 3 4 18 11 33 17 l27 11 -2 2356 -3 2357 -32 18 c-17 10 -67 37 -110 60 -43 23 -100 54 -128 69 -61 33 -257 140 -380 206 -49 26 -108 58 -130 71 -22 12 -65 35 -95 51 -63 32 -180 96 -225 122 -16 10 -68 38 -115 63 -201 106 -259 137 -390 210 -30 17 -82 45 -115 62 -34 18 -90 48 -125 68 -65 36 -111 60 -295 157 -55 29 -125 67 -155 85 -30 18 -109 60 -175 95 -66 34 -124 66 -130 70 -5 4 -49 28 -97 53 -47 26 -103 56 -125 68 -21 12 -74 41 -118 64 -44 23 -107 57 -140 75 -33 18 -91 49 -130 70 -38 20 -90 49 -115 62 -49 28 -171 93 -265 143 -33 17 -78 42 -100 55 -22 12 -96 52 -165 88 -69 36 -136 72 -150 82 -14 9 -50 28 -80 43 -30 15 -68 35 -85 45 -78 46 -183 102 -191 102 -5 0 -29 -12 -54 -26z m188 -260 c188 -99 206 -108 212 -114 3 -3 57 -32 120 -64 63 -32 126 -66 140 -75 14 -9 52 -30 85 -46 33 -16 85 -43 115 -61 30 -17 102 -56 160 -86 58 -30 123 -65 145 -78 22 -13 76 -42 120 -65 251 -132 302 -159 324 -172 13 -9 60 -34 105 -58 44 -23 106 -56 136 -72 82 -45 192 -104 305 -163 55 -29 125 -66 155 -83 30 -16 89 -48 130 -70 41 -22 100 -53 130 -70 53 -30 94 -51 285 -152 50 -26 109 -58 132 -71 23 -13 70 -39 105 -57 35 -19 90 -49 123 -67 78 -43 201 -108 345 -183 63 -32 135 -71 160 -85 25 -14 68 -37 95 -51 28 -14 55 -29 60 -33 6 -5 35 -21 65 -37 30 -15 87 -45 125 -66 39 -21 96 -51 128 -67 l57 -28 -2 -2252 -3 -2251 -40 -22 c-22 -11 -76 -41 -120 -64 -44 -24 -111 -61 -150 -81 -73 -38 -174 -93 -260 -140 -27 -15 -86 -47 -130 -70 -44 -24 -129 -70 -188 -102 -60 -32 -111 -58 -114 -58 -3 0 -31 -15 -62 -34 -31 -18 -114 -64 -186 -101 -71 -37 -197 -105 -280 -150 -82 -45 -163 -89 -180 -97 -16 -8 -50 -26 -75 -40 -25 -14 -94 -51 -154 -83 -60 -31 -132 -69 -160 -84 -93 -50 -210 -113 -286 -154 -41 -22 -102 -55 -135 -72 -33 -18 -96 -51 -140 -75 -44 -24 -109 -59 -145 -77 -36 -19 -76 -41 -90 -49 -46 -26 -204 -111 -315 -169 -60 -31 -132 -70 -160 -85 -27 -15 -86 -47 -130 -70 -44 -24 -107 -57 -140 -75 -33 -18 -96 -51 -140 -75 -139 -73 -247 -132 -329 -177 -43 -23 -80 -43 -81 -43 -1 0 -38 20 -81 43 -82 45 -190 104 -329 177 -87 47 -162 87 -270 145 -38 20 -107 57 -152 81 -46 24 -122 65 -170 90 -106 56 -258 139 -293 158 -14 8 -54 30 -90 49 -36 18 -101 53 -145 77 -44 24 -107 57 -140 75 -33 17 -87 46 -120 65 -33 18 -91 48 -130 68 -38 19 -86 45 -105 57 -19 12 -107 59 -195 105 -88 46 -176 92 -195 103 -19 11 -48 27 -65 35 -16 9 -97 52 -180 97 -82 45 -208 112 -280 150 -71 37 -155 83 -186 101 -31 19 -59 34 -62 34 -5 0 -103 52 -302 160 -33 18 -89 48 -125 68 -36 19 -94 50 -130 70 -36 19 -96 52 -135 72 -38 20 -106 57 -150 81 -44 23 -98 53 -120 64 l-40 22 -3 2251 -2 2252 57 28 c32 16 83 42 113 59 30 16 87 46 125 66 39 20 75 40 80 45 6 4 33 19 60 33 28 14 70 37 95 51 25 14 97 53 160 86 153 79 251 131 335 178 39 21 95 51 125 66 30 16 78 41 105 57 54 30 184 99 310 166 44 23 100 53 125 67 25 14 79 43 120 65 41 22 100 54 130 70 30 17 100 54 155 83 230 122 294 156 430 229 39 21 102 55 140 76 39 20 99 53 135 73 36 19 103 55 150 80 47 24 105 56 130 70 25 13 92 50 150 80 58 30 130 69 160 86 30 18 82 45 115 61 33 16 71 37 85 46 14 9 77 43 140 75 63 32 117 61 120 64 3 3 52 30 110 59 58 30 132 70 165 88 33 18 63 33 68 33 4 0 65 -30 135 -66z"></path><path id="pHfKBZzhn" d="M4305 8829 c-72 -39 -168 -93 -215 -119 -47 -26 -121 -67 -165 -90 -44 -24 -150 -81 -235 -128 -85 -46 -184 -100 -220 -120 -36 -19 -103 -56 -150 -82 -77 -44 -492 -271 -665 -365 -38 -21 -108 -59 -155 -85 -47 -26 -116 -64 -155 -85 -62 -34 -126 -69 -300 -165 -161 -89 -725 -397 -1120 -613 -121 -66 -223 -125 -227 -131 -4 -6 -7 -225 -5 -486 l2 -475 3753 -3 3752 -2 -2 487 -3 487 -60 32 c-58 31 -918 502 -1220 669 -82 45 -184 100 -225 123 -41 22 -232 126 -425 232 -192 106 -379 208 -415 227 -36 20 -78 43 -95 53 -16 10 -226 125 -465 255 -517 282 -507 276 -687 376 -78 44 -147 79 -155 79 -7 0 -72 -32 -143 -71z m-4 -887 c67 -75 65 -284 -3 -349 -52 -50 -144 -35 -184 30 -26 44 -33 226 -11 280 34 80 142 102 198 39z m-338 9 c3 -11 2 -22 -1 -25 -3 -3 -47 -6 -99 -6 -51 0 -93 -2 -93 -5 0 -18 28 -55 62 -80 70 -52 128 -112 129 -134 1 -11 2 -27 3 -33 4 -26 -28 -77 -56 -89 -67 -28 -213 11 -176 47 11 11 22 10 60 -2 59 -20 99 -9 113 30 13 39 -9 73 -80 122 -76 51 -105 93 -105 150 l0 44 119 0 c109 0 119 -2 124 -19z m757 -6 c0 -25 0 -25 -95 -25 -101 0 -109 -5 -80 -47 8 -11 46 -44 84 -72 40 -30 74 -64 81 -81 18 -43 6 -100 -25 -127 -49 -43 -212 -22 -203 25 4 19 23 19 85 1 55 -17 93 5 93 54 -1 39 -11 52 -75 99 -85 62 -107 91 -113 148 l-5 50 127 0 126 0 0 -25z m380 0 c0 -22 -4 -25 -40 -25 l-40 0 -2 -172 -3 -173 -28 -3 c-20 -2 -45 8 -83 34 -55 38 -63 51 -43 71 9 9 23 5 55 -18 l44 -30 0 145 0 145 -47 3 c-41 3 -48 6 -51 26 -3 22 -2 22 117 22 l121 0 0 -25z m-1420 -1136 l0 -200 -27 3 -28 3 -3 185 c-1 101 0 190 2 197 3 7 17 13 31 13 l25 0 0 -201z m212 49 l3 -153 26 45 c14 25 41 71 58 103 82 149 85 152 124 155 l37 3 0 -200 0 -201 -25 0 -24 0 -3 158 -3 157 -90 -158 -90 -158 -35 3 -35 3 -3 185 c-1 101 0 190 2 197 3 7 17 13 30 13 l25 0 3 -152z m647 118 c39 -37 51 -80 51 -176 0 -85 -18 -131 -63 -164 -22 -16 -47 -21 -127 -24 l-99 -4 -3 197 c-2 108 -1 199 2 202 3 2 51 3 107 1 97 -3 103 -4 132 -32z m251 -153 c0 -104 -4 -194 -9 -201 -5 -8 -17 -12 -27 -10 -18 3 -19 17 -22 201 l-2 197 30 0 30 0 0 -187z m181 140 l15 -48 76 -3 76 -3 17 51 c15 45 20 50 46 50 16 0 29 -1 29 -3 0 -2 -29 -91 -65 -198 -36 -107 -65 -195 -65 -196 0 -2 -15 -3 -34 -3 l-34 0 -37 108 c-21 59 -50 143 -66 188 -16 44 -29 86 -29 92 0 7 13 12 28 12 25 0 30 -6 43 -47z m2639 -848 c0 -13 -359 -15 -3175 -15 -2816 0 -3175 2 -3175 15 0 13 359 15 3175 15 2816 0 3175 -2 3175 -15z"></path><path id="p18rDsBfdM" d="M4184 7922 c-22 -15 -34 -52 -38 -124 -8 -139 32 -209 99 -177 35 17 43 41 44 134 1 86 -12 145 -35 162 -20 14 -53 17 -70 5z"></path><path id="pYgL2IdjL" d="M4350 6810 l0 -150 55 0 c103 0 125 28 125 157 0 77 -16 126 -45 137 -9 3 -43 6 -76 6 l-59 0 0 -150z"></path><path id="p10DpQtqk0" d="M5005 6862 c-2 -2 11 -45 28 -95 l30 -92 29 85 c15 46 28 89 28 95 0 9 -106 15 -115 7z"></path><path id="pkZaAtU1c" d="M3970 5366 c-107 -31 -169 -89 -205 -192 -24 -66 -25 -80 -25 -316 l0 -248 84 0 85 0 3 248 3 249 28 36 c36 47 58 59 113 59 91 0 165 -41 195 -106 16 -36 19 -68 19 -263 l0 -223 95 0 95 0 0 370 0 370 -95 0 c-76 0 -95 -3 -95 -14 0 -12 -12 -9 -57 11 -70 30 -176 39 -243 19z"></path><path id="pzlGmPnYu" d="M2683 5355 c-137 -37 -290 -159 -346 -275 -110 -229 -70 -487 103 -660 115 -115 257 -166 435 -157 145 8 264 55 366 145 l43 39 -25 24 c-14 13 -44 42 -67 63 l-42 40 -27 -26 c-133 -123 -345 -146 -493 -53 -55 35 -117 111 -140 172 -90 240 43 481 288 524 111 20 250 -21 334 -97 l40 -36 37 35 c20 19 50 47 66 62 l30 27 -55 49 c-63 56 -150 101 -235 124 -74 19 -241 19 -312 0z"></path><path id="p127ONTuzk" d="M5330 5352 c-113 -38 -195 -109 -244 -211 -29 -61 -31 -74 -31 -171 1 -94 3 -111 29 -163 77 -160 258 -248 450 -220 79 11 180 53 231 96 l30 26 -50 51 c-72 74 -75 75 -134 39 -58 -36 -149 -49 -219 -29 -55 14 -127 79 -143 128 -32 97 1 201 83 257 82 57 205 54 288 -6 l41 -30 47 39 c26 22 56 49 66 61 19 21 19 22 -3 45 -13 13 -57 41 -98 62 -72 37 -81 39 -182 41 -81 2 -119 -1 -161 -15z"></path><path id="p12PT5DwJ" d="M3360 4785 l0 -566 105 3 105 3 0 560 0 560 -105 3 -105 3 0 -566z"></path><path id="pG990apxF" d="M4650 5050 l0 -300 -60 0 -60 0 0 -70 0 -70 60 0 60 0 0 -135 0 -135 110 0 109 0 3 133 3 132 68 3 67 3 0 69 0 70 -70 0 -70 0 0 300 0 300 -110 0 -110 0 0 -300z"></path><path id="pfWemvm15" d="M5880 5345 c0 -3 0 -256 0 -562 l0 -558 95 -3 95 -3 -1 168 c0 92 0 189 0 215 l1 47 58 -26 c44 -20 75 -26 137 -27 111 -1 174 22 241 88 82 83 88 112 89 411 l0 250 -97 3 -97 3 -1 -237 c-1 -249 -5 -280 -49 -318 -26 -24 -107 -32 -156 -16 -51 17 -101 64 -116 107 -8 25 -11 108 -10 250 l1 213 -95 0 c-52 0 -95 -2 -95 -5z"></path><path id="pTt9xtoZa" d="M697 3713 c-4 -3 -7 -222 -7 -485 l0 -478 40 -25 c22 -14 42 -25 44 -25 3 0 31 -15 63 -34 32 -18 83 -47 113 -63 30 -16 125 -68 210 -115 85 -47 189 -103 230 -125 41 -22 91 -49 110 -60 30 -17 176 -97 305 -168 96 -53 274 -150 315 -173 25 -13 74 -40 110 -59 36 -20 103 -57 150 -83 47 -26 112 -62 145 -80 138 -75 1219 -666 1689 -925 88 -48 176 -96 197 -107 l38 -20 163 90 c90 49 377 206 638 349 261 143 495 272 520 285 25 14 97 54 160 88 63 35 133 73 155 85 175 97 380 209 480 263 66 35 134 72 150 82 17 10 59 33 95 53 62 33 420 229 525 287 28 15 172 94 320 175 149 82 299 164 335 184 36 20 98 54 138 76 l72 39 0 488 0 488 -3748 0 c-2062 0 -3752 -3 -3755 -7z m6913 -233 c0 -5 -6 -10 -12 -11 -14 0 -6306 0 -6325 1 -7 0 -13 5 -13 10 0 7 1065 10 3175 10 2110 0 3175 -3 3175 -10z m-5555 -629 c23 -85 44 -150 48 -145 3 6 19 65 36 131 42 165 45 173 75 173 26 0 44 -23 52 -66 2 -13 20 -86 38 -161 47 -187 46 -179 16 -175 -14 2 -27 5 -28 7 -2 2 -17 63 -33 137 -34 151 -39 171 -45 165 -4 -4 -19 -59 -63 -227 -17 -64 -17 -65 -51 -65 l-34 0 -37 144 c-21 79 -40 145 -43 148 -6 6 -10 -10 -41 -150 -34 -154 -38 -164 -67 -162 -12 1 -22 6 -22 11 5 26 86 367 91 380 4 10 16 14 36 12 l31 -3 41 -154z m633 132 c3 -21 -1 -22 -80 -25 l-83 -3 -3 -62 -3 -63 76 0 c73 0 75 -1 75 -25 0 -23 -3 -24 -72 -27 l-73 -3 -3 -57 -3 -58 81 0 c79 0 80 0 80 -25 l0 -25 -110 0 -110 0 0 184 c0 101 3 192 6 201 5 13 22 15 113 13 101 -3 106 -4 109 -25z m307 17 c56 -13 85 -49 85 -108 0 -52 -4 -61 -38 -84 -24 -16 -24 -16 -3 -27 23 -13 41 -67 34 -105 -10 -51 -45 -66 -154 -66 l-99 0 0 193 c0 107 3 197 7 200 9 10 121 8 168 -3z m638 -19 c49 -30 62 -69 62 -181 0 -160 -31 -190 -197 -190 l-98 0 0 193 c0 107 3 197 8 201 4 5 48 6 98 4 71 -4 100 -10 127 -27z m425 2 c3 -21 -1 -22 -80 -25 l-83 -3 -3 -62 -3 -63 76 0 c73 0 75 -1 75 -25 0 -24 -2 -25 -69 -25 -78 0 -81 -3 -81 -75 l0 -44 83 -3 c76 -3 82 -5 85 -25 3 -23 2 -23 -107 -23 l-111 0 0 193 c0 107 3 197 7 201 4 4 52 5 107 4 96 -3 101 -4 104 -25z m297 17 c3 -5 32 -88 65 -182 32 -95 61 -181 65 -190 6 -15 2 -18 -23 -18 l-31 0 -52 160 c-28 89 -54 159 -56 156 -3 -2 -28 -76 -56 -163 -50 -152 -53 -158 -77 -155 -14 2 -26 5 -27 6 -5 4 119 371 129 384 12 14 54 16 63 2z m469 -6 c11 -28 -4 -34 -85 -34 l-79 0 0 -65 0 -65 75 0 c73 0 75 -1 75 -25 0 -24 -2 -25 -75 -25 l-75 0 0 -60 0 -60 80 0 c79 0 80 0 80 -25 l0 -25 -110 0 -110 0 0 193 c0 107 3 197 7 200 3 4 52 7 109 7 84 0 103 -3 108 -16z m356 -9 c0 -25 -1 -25 -80 -25 l-80 0 0 -174 0 -174 -25 -4 c-13 -3 -27 -3 -30 0 -8 8 -6 388 2 395 3 4 53 7 110 7 l103 0 0 -25z m362 8 c57 -34 73 -76 73 -188 0 -115 -16 -154 -75 -187 -46 -25 -138 -21 -178 9 -53 39 -67 78 -67 183 0 109 12 142 64 177 43 29 138 32 183 6z m268 -57 l0 -73 70 -5 c86 -6 116 -25 130 -79 16 -60 4 -114 -32 -144 -27 -23 -38 -25 -124 -25 l-94 0 0 200 0 200 25 0 c24 0 25 -2 25 -74z m558 47 c3 -22 1 -23 -82 -23 l-86 0 0 -65 0 -65 75 0 c73 0 75 -1 75 -25 0 -24 -2 -25 -75 -25 l-75 0 0 -60 0 -60 80 0 c79 0 80 0 80 -25 l0 -25 -110 0 -110 0 0 193 c0 107 3 197 7 201 4 3 54 5 112 4 101 -3 106 -4 109 -25z m190 -60 c3 -91 2 -90 72 -77 34 7 50 33 70 112 11 43 28 59 54 49 13 -5 13 -14 0 -69 -8 -35 -23 -75 -34 -90 l-20 -27 30 -30 c25 -25 30 -37 30 -79 0 -34 -6 -57 -19 -73 -18 -22 -28 -24 -130 -27 l-111 -4 0 194 c0 107 3 198 7 202 4 4 16 6 28 4 18 -3 20 -11 23 -85z m520 67 c54 -33 69 -106 30 -155 -12 -15 -51 -41 -87 -57 -72 -32 -81 -40 -81 -80 0 -44 61 -62 126 -38 21 9 29 7 40 -7 18 -24 -3 -40 -63 -49 -89 -13 -163 33 -163 100 1 53 24 79 107 121 71 37 78 43 81 73 2 18 -2 40 -9 48 -14 17 -97 19 -134 2 -22 -10 -28 -9 -36 3 -14 22 -11 27 19 43 40 22 130 20 170 -4z m-2581 -965 c14 -9 34 -37 45 -62 28 -63 23 -218 -8 -260 -33 -45 -80 -65 -147 -60 -107 7 -150 65 -150 206 0 137 34 189 132 201 52 7 91 -1 128 -25z m-481 1 c3 -13 4 -91 2 -174 l-3 -151 60 -3 c54 -3 60 -5 63 -25 3 -23 3 -23 -147 -23 l-151 0 0 25 c0 24 3 25 60 25 l60 0 0 175 0 175 25 0 c18 0 26 -7 31 -24z m742 -53 l3 -73 52 0 c61 0 117 -25 134 -60 17 -35 16 -105 -2 -141 -21 -40 -50 -49 -156 -49 l-89 0 0 193 c0 107 3 197 7 201 4 4 16 6 28 4 18 -3 20 -11 23 -75z"></path><path id="pK65C9Q36" d="M2880 2889 l0 -71 57 4 c67 6 97 32 87 77 -10 41 -40 61 -95 61 l-49 0 0 -71z"></path><path id="pXp40EK54" d="M2880 2720 l0 -60 60 0 c48 0 61 4 70 19 16 30 12 50 -15 76 -18 19 -35 25 -70 25 l-45 0 0 -60z"></path><path id="p2MfKiNiE" d="M3460 2810 l0 -150 59 0 c74 0 88 5 106 41 17 32 20 164 5 204 -12 32 -64 55 -125 55 l-45 0 0 -150z"></path><path id="pKNTVghM1" d="M5404 2956 c-40 -17 -54 -57 -54 -148 0 -114 29 -158 105 -158 49 0 74 15 91 55 27 66 13 205 -24 237 -25 23 -82 29 -118 14z"></path><path id="pUXx4ohU3" d="M5810 2735 l0 -75 59 0 c71 0 91 15 91 68 0 63 -21 82 -91 82 l-59 0 0 -75z"></path><path id="pXXgoW2Un" d="M6567 2793 c-4 -3 -7 -35 -7 -70 l0 -63 59 0 c50 0 62 4 75 21 8 12 13 26 11 33 -2 6 -6 23 -9 38 -5 21 -15 30 -44 37 -43 12 -76 14 -85 4z"></path><path id="pmGTluOsa" d="M4353 2000 c-33 -13 -52 -49 -59 -111 -8 -71 10 -156 38 -181 14 -12 36 -18 67 -18 79 1 101 33 101 148 0 103 -13 140 -56 158 -38 16 -59 17 -91 4z"></path><path id="p10ukIYtY9" d="M4760 1775 l0 -75 58 0 c32 0 63 5 70 12 7 7 12 33 12 58 0 62 -20 80 -88 80 l-52 0 0 -75z"></path></g></g></svg>