<svg xmlns="http://www.w3.org/2000/svg" width="798" height="623" viewBox="0 0 798 623">
  <g id="cert1" transform="translate(-31 -40)">
    <g id="Group_1" data-name="Group 1">
      <path id="Path_2" data-name="Path 2" d="M400.5,631.4c-16.2-1.9-22.7-2.9-33-5-13.9-2.9-31.7-7.9-35.9-10a13.018,13.018,0,0,0-4.3-1.4,25.413,25.413,0,0,1-6.3-2.5,26.793,26.793,0,0,0-6-2.5c-1.1,0-21.8-10.1-28.2-13.8-11-6.3-29.7-19-36-24.4-1.5-1.3-4.6-3.9-7-5.8-6.8-5.4-31-29.9-35.7-36.2-3.4-4.5-4.2-6.3-3.9-9l.3-3.3h445l.3,3.3c.5,4.6-4.8,11.2-25.3,31.7A265.631,265.631,0,0,1,556,601.9c-3.6,1.8-7.2,3.7-8.1,4.1-4.6,2.3-21.5,9.1-29.4,11.8-30.2,10.2-57.2,14.3-92.5,14.1-12.4-.1-23.8-.4-25.5-.5Z" fill="#f7f7f7"/>
      <path id="Path_3" data-name="Path 3" d="M163,473.4v-6.6l-2.5,1.6c-2.8,1.9-13.1,2.2-16.8.5a10.694,10.694,0,0,1-4.1-4.5c-2-4.4-2.1-16.2-.2-20.9,1.5-3.4,1.5-3.5-1-3.5H136v28.7l-4.6.7c-9.1,1.2-8.4,2.5-8.4-14.4V440h-8V429h29v9h7.3c4.9,0,8,.5,9.5,1.6,2,1.4,2.2,1.4,2.2,0s1.7-1.6,10.4-1.6c10.4,0,10.4,0,13,3,3.2,3.9,4.2,10.7,2.8,19-1.3,7.6-3.6,9.9-9.9,10h-4.2l-.3,4.8-.3,4.7-5.7.3-5.8.3v-6.7Zm-11.3-21.1c-.3-1-.5-.2-.5,1.7s.2,2.7.5,1.8A10.279,10.279,0,0,0,151.7,452.3Z" fill="#f7f7f7"/>
      <path id="Path_4" data-name="Path 4" d="M425,473.4v-6.6l-2.5,1.6c-3.7,2.5-14.5,2.2-17.9-.5-2-1.6-2.6-1.7-2.6-.6,0,1.7-4.9,2.3-20.3,2.7-10.1.2-12.6-.9-15.5-6.6l-1.8-3.5-1.3,5-1.3,5.1h-6.3c-6,0-6.4-.1-7.3-2.7-.6-1.6-1.1-2.1-1.1-1.2-.1,2.5-4.6,3.9-12.3,3.9-6.8,0-7.2-.1-10.4-3.5-3.1-3.3-3.4-3.4-4.3-1.7-2.1,3.9-7.1,5.2-17.5,4.5l-9.6-.6V429h10.3c12.2,0,15.9,1.6,18.5,8.1,1.5,3.8,1.6,3.9,3.8,2.4,3.1-2,28.9-2.2,29.7-.2q.6,1.5.6,0c.1-1.8,13.1-1.8,13.1-.1,0,.9.3.9,1.2,0,1.5-1.5,14.2-1.6,16.9-.2,1.8,1,1.9.7,1.9-6v-7.1l6.3.3,6.2.3.3,7.3c.3,7.2.3,7.2,2.5,5.7,3-2.1,15.5-2.1,18.5.1,2,1.4,2.2,1.4,2.2,0,0-2.4,19.5-2.3,22.2.1,1.7,1.5,1.8,1.5,1.8,0s1.9-1.7,17.4-1.7c16.7,0,17.6.1,19,2.1l1.4,2.1,2.3-2.1c1.9-1.7,3.5-2.1,9.2-2.1,3.7,0,7.7.5,8.8,1,1.2.7,1.9.7,1.9.1s5.1-1.2,12.8-1.3l12.7-.3.3-3.3.3-3.3,6.2.3c6.2.3,6.2.3,6.5,3.6.2,2,.9,3.2,1.8,3.2,1,0,1.4,1.4,1.4,5.5,0,4.2-.3,5.5-1.5,5.5-1.1,0-1.5,1.2-1.5,5s.4,5,1.5,5c1.2,0,1.5,1.3,1.5,5.5V470h-6.3c-6.5,0-8.5-1-10-5-.3-.8-.6-.3-.6,1.3-.1,2.6-.3,2.7-5.3,2.8-2.9,0-12.3.3-20.8.5-14.4.4-15.7.3-18.2-1.6-2.3-1.7-2.8-1.8-2.8-.5,0,1.2-1.7,1.5-9.2,1.7-9.2.2-10.9.2-23.8,0a107.7,107.7,0,0,0-11.7.4l-5.2.6-.3,4.6-.3,4.7-5.7.3-5.8.3v-6.7ZM310,449c0-3.4-.5-5.2-2-6.5-2-1.8-2-1.7-2,7.1l.1,8.9,1.9-2.4C309.4,454.5,310,452.3,310,449Zm127.7,3.3c-.3-1-.5-.2-.5,1.7s.2,2.7.5,1.8A10.278,10.278,0,0,0,437.7,452.3Z" fill="#f7f7f7"/>
      <path id="Path_5" data-name="Path 5" d="M649.2,478.8c-.7-.7-1.2-2.9-1.2-4.9v-3.7l-18.5-.7c-10.3-.4-18.5-1.2-18.5-1.7s-1-.2-2.2.6c-1.5,1.1-4.5,1.6-8.9,1.6-5.8,0-7.2-.4-9.8-2.6-1.7-1.4-3.1-2.2-3.1-1.7,0,2.4-6.1,4.3-13.4,4.3-6.9,0-7.8-.2-10.8-2.9l-3.3-2.9-.3-13.2c-.4-14.4.4-17.8,4.4-20.5,3.6-2.3,11.5-3,17-1.5,5,1.4,8.4,5.4,8.4,9.9,0,2.3.1,2.3,1.8.8,2.3-2.1,16-2.4,18.1-.4,1.1,1,1.4,1,1.8,0,.6-1.8,34.4-1.8,36.1-.1.9.9,1.2.9,1.2,0s3-1.2,10.4-1.2c8.8,0,10.7.3,12.8,2,2.5,1.9,2.6,1.9,4.3,0,1.5-1.7,3.1-2,9.5-2,4.2,0,8.1.5,8.7,1.1.8.8,1.3.8,1.7,0,1.1-1.7,35.3-1.5,35.9.2q.6,1.5.6,0c.1-.9,2.2-1.3,7.1-1.3,6.9,0,7,0,7,2.7,0,2.5-6,23.1-9.6,33.1-1.9,5-4.1,6.2-11.5,6.2H720V470h-5.5c-3,0-5.5-.4-5.5-.9s-1.6-.5-3.7,0c-5.4,1.2-29.7,1.1-30.9-.1-.8-.8-1.9-.8-3.8,0a23.661,23.661,0,0,1-6.2,1H661v10h-5.3c-2.9,0-5.8-.5-6.5-1.2ZM724,464.2c-.5-1.5-1.1-3.4-1.3-4.2-.3-.8-.6.9-.6,3.9-.1,4.5.1,5.2,1.3,4.2C724.5,467.2,724.6,466.1,724,464.2ZM581.5,452c3.2,0,4.5-.4,4.5-1.4a11.4,11.4,0,0,1,.6-3c.5-1.3-.3-1.6-4.9-1.6-5,0-5.6-.2-5.9-2.2-.2-1.3-1-2.3-1.8-2.3-2,0-2.7,12.9-.8,15.2,1.1,1.4,1.4,1.1,2.5-1.6,1.2-2.8,1.7-3.1,5.8-3.1Z" fill="#f7f7f7"/>
      <path id="Path_6" data-name="Path 6" d="M206.4,469.3l-3.2-.4-3.1-16.3c-1.7-9-3.1-17.9-3.1-20V429h12.9l.4,3.3.3,3.2.8-3.2c.8-3.3.9-3.3,6.7-3.3h5.8l.8,3.8.7,3.7.6-3.5.5-3.5,6.3-.3,6.2-.3v9.6l7.9-.3c6.2-.3,8.1,0,9.5,1.3,1.5,1.5,1.6,1.1,1.6-6v-7.6l6.3.3,6.2.3.3,5.7.3,5.7,4.6.3c6.4.4,8.6,3.5,9.1,12.8.5,9.1-.4,13.7-3.3,16.6-2.3,2.3-2.7,2.4-21.6,2.3H240.6l-3.2-3.5-3.3-3.4-.7,3.5-.6,3.5H220.3l-.7-4c-.7-4.8-2.1-4.5-3,.5-.7,3.8-1.3,3.9-10.2,2.8Z" fill="#f7f7f7"/>
      <path id="Path_7" data-name="Path 7" d="M147.9,387.3c-1.1-1.3-1.4-8.2-1.4-35.2,0-30.3.2-34.9,2.2-46.6,5.4-31.1,13-54.5,26-80.5,7.9-15.8,18.3-33.4,23-39,.7-.8,2.3-2.9,3.5-4.6,8-11.1,12.7-16.5,25.7-29.4,43-42.9,94.6-69.2,155.4-79.2,11.4-1.9,17.3-2.2,42.7-2.2,31.4-.1,40.5.7,61,5.1,13.3,2.9,32.9,8.4,39.8,11.2,2.6,1,7.9,3.2,11.7,4.7,40.4,16.2,81.2,47,109.5,82.8,4.4,5.5,8.5,10.6,9,11.3,3.8,4.6,15.2,23.6,21,34.7,14.5,27.8,23.5,55.7,28.7,88.6,2.3,14.6,2.7,73.9.5,77.8l-1.3,2.2H427.1c-257.2,0-278-.1-279.2-1.7ZM262.5,306c2.2-.6,1-.8-4.5-.8-5,0-6.8.2-5.5.8C254.9,307,258.4,307,262.5,306Zm56.5,0c1.8-.6.7-.8-4-.8-4.5-.1-5.9.2-4.5.8C313,307.1,315.7,307.1,319,306Zm56.9-.6c.2-.2-2.5-.4-6-.3-4.7.1-5.7.3-3.9.9C368.2,306.7,374.9,306.3,375.9,305.4Zm50.6.6c1.4-.6.5-.9-3.5-.9s-4.9.3-3.5.9a7.256,7.256,0,0,0,7,0ZM445,277.9c0-22-.3-28-1.2-27.7s-1.4,3.7-1.6,11.1c-.3,10.2-.4,10.7-2.4,10.7-2.1,0-2.1,0,.3,2.6,2.2,2.3,2.4,3.4,2.4,12.4,0,8.2-.3,10.1-1.9,11.9-1.9,2.1-1.9,2.1.2,2.1,1.7,0,2.2.6,2.2,2.5,0,1.4.5,2.5,1,2.5C444.6,306,445,296,445,277.9Zm19,14.6V279h9.5c5.7,0,9.5-.4,9.5-1s-3.8-1-9.5-1H464V253h11.5c7,0,11.5-.4,11.5-1s-5-1-13-1H461v27.5c0,23.8.2,27.5,1.5,27.5S464,303.8,464,292.5Zm39-6c0-12.3-.4-19.5-1-19.5s-1,7.2-1,19.5.4,19.5,1,19.5S503,298.8,503,286.5Zm19,7.6c0-6.5.5-13.3,1.2-15.1.9-2.6.9-3.5,0-3.8-.7-.2-1.2-2.1-1.2-4.3,0-2.1-.4-3.9-1-3.9s-1,7.2-1,19.5.4,19.5,1,19.5,1-4.6,1-11.9Zm30.2-4.8c.2-9.3,0-17.2-.4-17.8a4.446,4.446,0,0,1-.8-2.8c0-1-.4-1.5-1-1.2-.6.4-1,8-1,19.6,0,15.9.2,18.9,1.5,18.9C551.7,306,552,303.1,552.2,289.3Zm26,.2c.3-15.2.2-16.5-1.4-16.5s-1.8,1.5-1.8,16.5c0,13.8.2,16.5,1.5,16.5C577.7,306,578,303.1,578.2,289.5Zm24.8,1.2c0-10.7-.4-15.8-1.2-17-1.1-1.4-1.2,1.5-1,15.3.2,9.9.7,17,1.2,17C602.6,306,603,299.7,603,290.7Zm-325.6,7.7c.3-.9.6-5.8.6-11V278h-8.9c-5,0-9.3.5-9.6,1-.4.6,2.3,1,7.4,1H275v10C275,299.2,275.9,302.3,277.4,298.4ZM641,295.9a7.31,7.31,0,0,0-1.7-3.6c-1-1-1.5-1.4-1-.9.4.6.7,2.8.7,5.1,0,2.9.3,3.6,1,2.5A7.076,7.076,0,0,0,641,295.9Zm-305-5.8a10.062,10.062,0,0,0-.2-7.1c-1.2-3-1.3-2.8-1.3,3.9a66.652,66.652,0,0,0,.2,7.1A25.166,25.166,0,0,0,336,290.1Zm14.5-3.1a63.936,63.936,0,0,0-.2-7,26.868,26.868,0,0,0-1.2,3.5,13.836,13.836,0,0,0,0,7,26.868,26.868,0,0,0,1.2,3.5A65.5,65.5,0,0,0,350.5,287Zm-54.6-.7c0-4.7-.3-6.2-.9-4.8-1.4,3.4-1,11.5.6,11.5C295.8,293,296,290,295.9,286.3Zm95,.7c-.1-7.2-1.8-7.7-1.8-.5-.1,4.9.2,6.5.9,5.5A12.388,12.388,0,0,0,390.9,287Zm14.5-7.8c-.1-.2-.7,1.3-1.4,3.2a14.847,14.847,0,0,0-.4,6.9c.8,2.9.9,2.5,1.4-3.3a44.381,44.381,0,0,0,.4-6.8Zm-173.5,7.2c-1.1-3.7-.7-13.7.6-17.9.4-1.1-.1-.8-1,.7-2.5,4.5-2.9,10.9-1,16.7,2,6,3,6.4,1.4.5Zm386.8-11.6c-.3-2.2-.4-2.1-1.1.4a6.851,6.851,0,0,0,0,4.5c.7,1.6.8,1.5,1.1-.4A11.36,11.36,0,0,0,618.7,274.8Zm-300-7a11.9,11.9,0,0,0-7,0c-2.8.9-2.4,1,3.8,1C322.1,268.8,322.3,268.7,318.7,267.8Zm54.6,0a11.9,11.9,0,0,0-7,0c-3.6.9-3.4,1,3.2,1C375.7,268.8,376.1,268.7,373.3,267.8Zm53,0a9.1,9.1,0,0,0-6.5,0c-3,.9-2.7,1,3.2,1S429.2,268.7,426.3,267.8ZM595,268a7.884,7.884,0,0,0-3.5-.9c-1.6.1-1.6.2.5.9C595.5,269.1,596.8,269.1,595,268ZM261,251a16.521,16.521,0,0,0-7,0c-2.9.7-2.3.8,3.5.8S263.9,251.7,261,251Zm139-79.8c0-39.3,0-39.9,2.1-41.8,2-1.8,4.5-1.9,40.8-2.4l38.6-.5v-25h-81l-5.9,3c-7.5,3.8-14.7,10.7-17.8,17.1-2.3,4.9-2.3,5.2-2.6,47.2l-.3,42.2H400V171.2Zm61.1,38.3A31.994,31.994,0,0,0,479,193.6l3.5-6.9.3-22.3.4-22.4H451c-20.2,0-32.8.4-34.1,1-1.7,1-1.9,2.2-1.9,12.5V167h42v7.3c0,4.3-.5,7.8-1.2,8.5-.9.9-6.9,1.2-21,1.2H415v27h20.8c16,0,21.9-.4,25.3-1.5Z" fill="#f7f7f7"/>
    </g>
    <g id="Group_2" data-name="Group 2">
      <path id="Path_8" data-name="Path 8" d="M282,342.5V334h3.8c5.4,0,7.7,1.9,6.9,5.8-.4,1.7-.2,3.4.3,3.7,1.4.9,1.2,4.9-.2,6.3-.7.7-3.4,1.2-6,1.2H282v-8.5Zm8.8,6.6a2.693,2.693,0,0,0,1-2.7c-.2-1.4-1.3-2-4.1-2.2-3.5-.3-3.7-.2-3.7,2.7,0,2.7.3,3.1,2.8,3.1a8.447,8.447,0,0,0,4-.9Zm-.8-8.6c1.9-2.3.4-4.5-3-4.5-2.5,0-3,.4-3,2.3,0,1.3.3,2.7.7,3C285.8,342.5,288.7,342.1,290,340.5Z" fill="#a7a7a7"/>
      <path id="Path_9" data-name="Path 9" d="M297,350.2c0-.5,1.2-1.9,2.6-3.3,3.3-3,5.7-7.7,5-9.5-.8-2-4.3-1.7-5.5.3-1.2,2.2-2.4,1.3-1.5-1.1.8-2,5.2-3.2,7.3-1.9,2.9,1.8,2.4,5.6-1.3,10.3l-3.6,4.5,3.8.6c3.4.6,3.3.6-1.5.8-2.9,0-5.3-.3-5.3-.7Z" fill="#a7a7a7"/>
      <path id="Path_10" data-name="Path 10" d="M311,342.5V334h3.8c5.4,0,7.7,1.9,6.9,5.8-.4,1.7-.2,3.4.3,3.7,1.4.9,1.2,4.9-.2,6.3-.7.7-3.4,1.2-6,1.2H311v-8.5Zm8.8,6.6a2.693,2.693,0,0,0,1-2.7c-.2-1.4-1.3-2-4.1-2.2-3.5-.3-3.7-.2-3.7,2.7,0,2.7.3,3.1,2.8,3.1a8.447,8.447,0,0,0,4-.9Zm-1-9.1c1.7-2.7.8-4-2.9-4-2.4,0-2.9.4-2.9,2.3,0,1.3.3,2.7.7,3,1.3,1.3,3.8.7,5.1-1.3Z" fill="#a7a7a7"/>
      <path id="Path_11" data-name="Path 11" d="M333.1,342.5l-.2-8.5h4c5.8,0,9.2,4.5,5.9,7.8-.9.9-.9,1.5,0,2.4,1.4,1.4,1.6,6.8.2,6.8-.5,0-1-1-1-2.3a4.36,4.36,0,0,0-4.7-4.7c-1.9,0-2.3.5-2.3,2.9,0,1.7-.4,3.2-.9,3.5-.4.3-.9-3.3-1-7.9Zm7.3-2c2.6-2,1.3-4.5-2.4-4.5-2.7,0-3,.3-3,3C335,342.4,337.1,343,340.4,340.5Z" fill="#a7a7a7"/>
      <path id="Path_12" data-name="Path 12" d="M348.2,349a11.122,11.122,0,0,1-1.2-4.5c0-2.5,3.1-6.5,5.1-6.5,2.5,0,4.9,2.2,4.9,4.5,0,2.2-.5,2.5-3.4,2.5-1.9,0-3.7.4-4.1.9-.9,1.6,2.5,4.2,4.7,3.5,1.4-.4,1.8-.2,1.4.5C354.4,351.8,349.6,351.2,348.2,349Zm6.8-6.5c0-2.1-2.7-3-4.5-1.5-1.9,1.6-1,3,2.1,3C354.1,344,355,343.4,355,342.5Z" fill="#a7a7a7"/>
      <path id="Path_13" data-name="Path 13" d="M361,349.5c-1.4-1.7-.7-1.9,2-.5,2,1.1,5,.4,5-1.1,0-.5-1.6-1.5-3.5-2.3-3.8-1.6-4.6-4.4-2-6.6,1.8-1.5,6.1-.6,6.9,1.6.5,1.2.2,1.5-1.1.9-4.1-1.7-5.3-1.7-5.3-.1,0,.9,1.6,2.2,3.5,3,3.6,1.5,4.4,3.3,2.3,5.4C367.1,351.5,362.5,351.3,361,349.5Z" fill="#a7a7a7"/>
      <path id="Path_14" data-name="Path 14" d="M373.4,348.5a7.054,7.054,0,0,1,1.2-8.9c2.1-2.1,4-2,6.5.5,2.8,2.8,2,4.3-2.4,4.7-2.8.2-3.7.8-3.7,2.2,0,2.2,2,3.1,5.1,2.3,1.5-.4,2-.3,1.5.5-1.3,2.2-6.4,1.4-8.2-1.3Zm6.1-6.5c0-2.2-3.9-1.9-4.3.3-.3,1.5.1,1.8,2,1.5C378.4,343.6,379.5,342.8,379.5,342Z" fill="#a7a7a7"/>
      <path id="Path_15" data-name="Path 15" d="M386.1,349.6c-2-2.4.3-5.6,4-5.6,2.4,0,3-.4,2.7-1.7a2.416,2.416,0,0,0-2.5-1.8c-3.1-.1-3.9-1.2-1.4-2,4.4-1.4,7.7,2.8,6.9,9-.3,2.5-.8,2.9-4.4,3.2-2.8.3-4.5-.1-5.3-1.1Zm6.9-2.7c0-1.1-.6-1.9-1.2-1.9-2.3,0-4.1,1.8-3.5,3.3C389.1,350.5,393,349.3,393,346.9Z" fill="#a7a7a7"/>
      <path id="Path_16" data-name="Path 16" d="M399,344.6v-6.5l2.8.4c3.9.5,3.9.5,1.5,1.5-2,.8-2.3,1.7-2.3,6,0,2.7-.4,5-1,5S399,348.2,399,344.6Z" fill="#a7a7a7"/>
      <path id="Path_17" data-name="Path 17" d="M408.1,349.6c-.7-.8-1.1-3.2-.9-5.2.2-3,.9-4.2,3-5.4,2.5-1.4,2.9-1.3,4.5.4,1.7,1.7,1.7,1.8-.5,1.1-3-.9-5.2,1-5.2,4.6,0,3.2,2.7,5.3,5.1,3.8,2.2-1.4,3.3-1.1,1.9.6C414.4,351.4,409.6,351.4,408.1,349.6Z" fill="#a7a7a7"/>
      <path id="Path_18" data-name="Path 18" d="M420.8,350.4c-1.1-1.1-.9-14.6.2-16.4.7-1.1,1-.7,1,1.9,0,3.1.2,3.3,2.6,2.7,4-1,5.4.9,5.4,7.1,0,3.4-.4,5.2-1,4.8-.5-.3-1-2.6-1-5.1,0-8-5.7-6.9-6.2,1.3C421.6,349.2,421.2,350.8,420.8,350.4Z" fill="#a7a7a7"/>
      <path id="Path_19" data-name="Path 19" d="M440.2,349.8c-1.6-1.6-1.5-5.3.3-6.8,1.1-.9,1.2-1.6.2-3.1-1.6-2.6.1-5.3,3.6-5.7,2.1-.3,2.8.2,3.3,2.3a4.362,4.362,0,0,1-1,4.3c-1.4,1.7-1.4,2,.1,3.5,1.6,1.6,1.8,1.5,3.6-.1,1.9-1.6,1.9-1.6,1.2.8a11.335,11.335,0,0,0-.7,4.1c0,1.2-1,1.6-4.7,1.8-2.6,0-5.2-.4-5.9-1.1Zm5.8-.8c1.2-.7,1.2-1.2-.4-2.9-1.1-1.2-2.3-2.1-2.8-2.1-1.5,0-2.1,3-.8,4.5,1.4,1.7,2,1.8,4,.5Zm.4-10.5a1.742,1.742,0,0,0-1-2.2c-1.9-.7-3.9,1.1-3,2.6A2.247,2.247,0,0,0,446.4,338.5Z" fill="#a7a7a7"/>
      <path id="Path_20" data-name="Path 20" d="M461,342.5V334h4.5c3.6,0,4.8.5,6,2.4,1.3,1.9,1.4,2.9.6,4.4-.8,1.4-.7,2.9,0,5.2.8,2.3.8,3.5.1,4.2-1.2,1.2-1.8.3-2.4-3.7-.2-1.4-1.2-2.1-3.6-2.3-3.1-.3-3.2-.2-3.2,3.2,0,2-.4,3.6-1,3.6s-1-3.5-1-8.5Zm8.5-3.5c0-2.1-.5-2.6-3.2-2.8-2.9-.3-3.3,0-3.3,2.1,0,3.1.9,3.9,4,3.5,1.9-.2,2.5-.9,2.5-2.8Z" fill="#a7a7a7"/>
      <path id="Path_21" data-name="Path 21" d="M477.2,349.8c-1.9-1.9-1.5-8.2.6-10.1,2.4-2.2,4.5-2.1,6.5.1,3,3.3,2.2,5.2-2.3,5.2-2.8,0-4,.4-4,1.5,0,1.9,2.8,3.4,5.3,2.7,1.4-.3,1.8-.1,1.3.6-.9,1.6-5.9,1.5-7.4,0Zm5.6-7.5a1.783,1.783,0,0,0-1.2-1.9c-1.9-.7-4.9,1.4-4,2.8C478.4,344.5,482.2,343.8,482.8,342.3Z" fill="#a7a7a7"/>
      <path id="Path_22" data-name="Path 22" d="M492.3,349.8c-1.7-2.8-4.1-10.8-3.3-11.3.5-.3,1.4,1.1,2,3,1.6,4.9,2.6,5.1,4.6,1,2.4-5,2.9-3.6.9,2.4C494.7,350.4,493.6,351.7,492.3,349.8Z" fill="#a7a7a7"/>
      <path id="Path_23" data-name="Path 23" d="M501.8,350.4c-.5-.4-.8-3.4-.8-6.8,0-4.2.3-5.7,1.1-4.9.5.5.9,3.6.7,6.7-.2,3.2-.6,5.4-1,5Z" fill="#a7a7a7"/>
      <path id="Path_24" data-name="Path 24" d="M508.1,349.6c-.7-.8-1.1-3.2-.9-5.2.2-2.9.9-4.2,3-5.3,2.4-1.4,2.8-1.4,4.7.3a6.123,6.123,0,0,1,2.1,3.8c0,1.4-.8,1.8-4,1.8-2.8,0-4,.4-4,1.5,0,1.9,2.8,3.4,5.3,2.7,1.4-.3,1.8-.1,1.3.6-1,1.7-6.1,1.5-7.5-.2Zm6.9-6.3a6.128,6.128,0,0,0-1-2.3c-.7-1.1-1.4-1.2-2.7-.4-3,1.8-2.7,3.4.6,3.4C513.6,344,515,343.7,515,343.3Z" fill="#a7a7a7"/>
      <path id="Path_25" data-name="Path 25" d="M520.6,345.6c-1.8-6.2-1.9-6.6-.8-6.6.4,0,1.3,1.4,1.9,3.1,1.4,3.6,2.8,3.2,3.7-1.2.5-2.6.8-2.9,2-2a6.691,6.691,0,0,1,1.8,3.3c.4,2.7,2.8,3.6,2.8,1.1,0-2.2,1.7-5,2.5-4.1.9.8-1.5,9-3.1,10.7-1.1,1.2-1.5,1-2.4-1.3a21.11,21.11,0,0,1-1-3.7c0-2.2-2-.6-3,2.6-.6,1.9-1.5,3.5-2,3.5S521.4,348.6,520.6,345.6Z" fill="#a7a7a7"/>
      <path id="Path_26" data-name="Path 26" d="M544.6,350.3c-.3-.3-.6-4.2-.6-8.5V334h5.5c3,0,5.5.5,5.5,1,0,.6-1.7,1-3.9,1-3.3,0-3.9.3-4.3,2.5-.6,3-.2,3.5,2.9,3.5,1.3,0,2.3.5,2.3,1,0,.6-1.1,1-2.5,1-2.1,0-2.5.5-2.5,2.9C547,349.9,545.8,351.5,544.6,350.3Z" fill="#a7a7a7"/>
      <path id="Path_27" data-name="Path 27" d="M557.6,350.3c-1.2-1.2-.6-8.9.9-10.9,1.3-1.7,1.4-1.4,1.5,4.3C560,349.5,559.2,351.8,557.6,350.3Z" fill="#a7a7a7"/>
      <path id="Path_28" data-name="Path 28" d="M564.1,344.3c-.2-5.7,0-6.5,1.4-5.9a11.8,11.8,0,0,0,2.8.6c.7,0,.4.5-.5,1.1-1.3.7-1.8,2.3-1.8,5.4C566,352.6,564.3,351.6,564.1,344.3Z" fill="#a7a7a7"/>
      <path id="Path_29" data-name="Path 29" d="M572.8,350.4c-.5-.4-.8-3.3-.8-6.5v-5.8l4,.1c2.2,0,4.3.4,4.6.9s1.3.5,2.4-.1c4.2-2.3,7,.3,7,6.5,0,5.7-1.5,6.7-1.9,1.2-.5-8.6-6.1-8.6-6.1,0,0,2.7-.4,4.2-1,3.8-.5-.3-1-2.6-1-5.1,0-8-5.7-6.9-6.2,1.3C573.6,349.2,573.2,350.8,572.8,350.4Z" fill="#a7a7a7"/>
    </g>
    <g id="Group_3" data-name="Group 3">
      <path id="Path_30" data-name="Path 30" d="M398,638.9c-78.6-7.8-147.1-44.6-197-105.7l-8.4-10.4-12.2.4c-10.8.3-12.4.1-13.3-1.4-1-1.7-5.4-1.8-68.6-1.8-37.1,0-67.5-.3-67.5-.6,0-1.6,34.8-41.9,49-56.8,5-5.1,9-9.6,9-9.9s-5.2-5.8-11.6-12.3C60.3,423.1,31,389.2,31,386.8c0-.4,19.6-.8,43.5-.8,38,0,43.5-.2,43.5-1.5,0-1.2,1.8-1.5,10.4-1.5h10.3l-.5-22.9c-.8-39.3,3.5-70,14.5-102.9C187.2,153.9,278.5,78.7,386.5,64.5c36.9-4.9,82.3-2.1,116.3,7C581.1,92.6,646.5,144.8,683.7,216c23.2,44.5,33.7,92.6,31.9,146.8L715,383h11.5c9.6,0,11.5.3,11.5,1.5,0,1.3,5.7,1.5,45.5,1.5,25,0,45.5.4,45.5.8,0,2.4-30.2,37.3-46.7,54-6.2,6.3-11.3,11.6-11.3,11.9s4,4.8,9,9.9c14.2,14.9,49,55.2,49,56.8,0,.3-31.3.6-69.5.6-60,0-69.5.2-70.2,1.5-.7,1.1-3.8,1.5-14.8,1.7l-13.9.3-4.4,5.5c-22.6,28.1-45.7,49-73.8,66.8C548.2,617.4,512.3,630.7,471,637c-15.7,2.4-57.1,3.5-73,1.9Zm56-11c3.6-.4,8.8-1.1,11.5-1.4a304.956,304.956,0,0,0,33.5-6.7c13.6-3.6,36.6-12.1,45.9-16.8.9-.4,4.5-2.3,8.1-4.1,15.4-7.7,31.2-17.8,48-30.8,15.5-12,47.4-45.4,45.3-47.5-.9-.9-438.1-.7-438.7.2-1.2,2.1,26.8,32.3,39.2,42.2,2.4,1.9,5.5,4.5,7,5.8,6.3,5.4,25,18.1,36,24.4,6.4,3.7,27.1,13.8,28.2,13.8a26.793,26.793,0,0,1,6,2.5c2.7,1.4,5.8,2.5,6.8,2.5a4.915,4.915,0,0,1,2.8.9c.9.8,9.1,3.7,13,4.6,1,.2,3.5.9,5.4,1.5,3.3,1,22.4,5.3,28,6.3,2.5.5,17.8,2.4,23.5,3,6.6.7,44.4.4,50.5-.4ZM171.8,472c.4-6.2,1-7.6,2.4-6.2,1.7,1.7,5.4,1.5,8.3-.4,3.1-2.1,5.1-10.6,3.6-16-1.9-6.9-8.3-10.7-12-7.1-1.1,1-1.4,1-1.8,0-.3-.7-1.8-1.3-3.4-1.3H166v36.1l2.8-.3c2.4-.3,2.7-.7,3-4.8Zm262-.8.3-5.2,3.9.6c5.5.9,8.4-1.2,9.9-7.2s.6-11.7-2.6-15.4c-2.7-3.2-6.8-4-9.2-1.7-1.1,1-1.4,1-1.8,0-.3-.7-1.8-1.3-3.4-1.3H428v36.1l2.8-.3c2.5-.3,2.7-.7,3-5.6ZM658,471c0-5.6.1-5.9,1.8-4.9a8.674,8.674,0,0,0,5.5.5c4.9-.9,6.7-4.5,6.7-13.1,0-6-.3-6.9-2.9-9.6-3.1-3.1-6.8-3.7-9-1.6-1.1,1-1.4,1-1.8,0-.3-.7-2-1.3-3.9-1.3H651v16.8c0,17.8.3,19.2,4.7,19.2,2.1,0,2.3-.4,2.3-6Zm73.7,3.3c.7-.9,2.4-5.3,3.8-9.7,1.3-4.5,3.5-11.6,4.9-15.8l2.4-7.8h-7.4l-1.9,7.3c-2,7.9-1.7,8.1-4.5-3-1-4.1-1.3-4.3-4.6-4.3-2.5,0-3.5.4-3.2,1.3,2.6,6.8,6.9,23.4,6.6,25.5a4.788,4.788,0,0,1-2.5,3.7,3.454,3.454,0,0,0-2.3,3.4c0,2.2.3,2.3,3.7,1.8C728.8,476.3,731.1,475.3,731.7,474.3ZM133,451.4V437h4c3.6,0,4-.2,4-2.5V432H118v2.5c0,2.3.4,2.5,4,2.5h4v29.6l3.5-.4,3.5-.4Zm25.3,13.2a15.859,15.859,0,0,0,3.7-6.5c2.4-9.1-2.2-17.1-10-17.1-5.4,0-7.9,1.4-9.6,5.5-2.9,6.9-.8,17,4,19.3,3.9,1.9,9.1,1.4,11.9-1.2Zm56.7-7.1c1.2-5.2,2.5-9.7,3-10s1.8,3.9,3.1,9.2l2.2,9.8h6.5l3.1-15.5c3.9-19.7,3.9-19.2-.1-18.8l-3.3.3-1.4,9.8c-.8,5.3-1.7,9.7-2.1,9.7-.3,0-1.6-4.5-2.9-10-2.2-9.7-2.3-10-5-10s-2.9.3-4.6,7.8c-3.4,15-3,14.6-4.8,4.6-.9-5.1-1.7-9.9-1.7-10.8,0-1.2-1-1.6-3.5-1.6-1.9,0-3.5.3-3.5.6,0,.4,1.4,8,3.1,17l3.1,16.3,3.2.4c1.7.2,3.2.5,3.3.5.1.1,1.1-4.1,2.3-9.3Zm40.1,7.8c1.5-1.1,1.7-1.8.9-3.4-.9-1.5-1.5-1.7-3-.9a10.291,10.291,0,0,1-3.6,1c-2.3,0-5.4-2.9-5.4-4.9,0-1.3,1.1-1.5,6.5-1.3l6.5.4v-4.4c0-4-1.9-8.2-4.4-10-1.9-1.3-8.6-.8-11.1.8-2.9,1.9-4.5,6.2-4.5,12.5,0,4,.5,5.3,3.4,8.4,3.1,3.2,3.9,3.6,8.1,3.4A18.649,18.649,0,0,0,255.1,465.3Zm12.2.5c.4-1,.7-1,1.8,0,2.1,2,6.8,1.4,9.4-1.2,4.2-4.2,4.6-15.3.7-20.5-2.1-2.9-7.4-4-9.7-2.1-1.2,1-1.5,0-1.7-5.7l-.3-6.8-3.2-.3-3.3-.3V467h2.9c1.6,0,3.1-.6,3.4-1.2Zm48.6-2.9c3.1-3.1,4.1-6.5,4.1-14.6,0-11.6-4.8-16.3-16.7-16.3H296v33.9l6.8.3C311.4,466.6,312.5,466.3,315.9,462.9Zm25.6,2.8c2.8-1.4,2.8-1.3,1.5-3.6-.9-1.7-1.5-1.9-3-1.1a10.291,10.291,0,0,1-3.6,1c-2.3,0-5.4-2.9-5.4-4.9,0-1.3,1.1-1.5,6.5-1.3l6.5.4V452c0-4.6-2.1-9.4-4.5-10.4-3-1.1-8.5-.6-11,1-6.3,4.1-5.9,18.2.7,22.9C331.7,467.2,338.1,467.3,341.5,465.7ZM362,455.5c1.7-6,3.4-11.8,3.6-12.7.4-1.5-.1-1.8-3-1.8-3.9,0-3.8-.2-5.7,10.5-1.3,7.7-1.8,7.2-3.9-3.7l-1.2-6.8h-3.4c-1.9,0-3.4.3-3.4.6,0,.4.9,3.7,1.9,7.3,1.1,3.6,2.6,9.1,3.5,12.1,1.5,5.3,1.6,5.5,5,5.5h3.4Zm24.6,9.4A2.356,2.356,0,0,0,384,461c-4.1,2.2-9,.1-9-3.8,0-1.5.9-1.7,6.5-1.4l6.5.4V452c0-4.6-2.1-9.4-4.5-10.4-3-1.1-8.5-.6-11,1-6.3,4.1-5.9,18.1.7,22.9C375.8,467.3,384.1,467,386.6,464.9Zm12.2-17.3-.3-18.1-3.2-.3-3.3-.3v37.7l3.5-.4,3.5-.4Zm21.5,17c5.5-5.1,5.6-16.7.2-21.3-2.9-2.5-9.1-3.1-12.7-1.2-2.7,1.5-4.8,6.9-4.8,12.8,0,4.3.5,5.5,3.4,8.5C410.6,467.9,416.2,468.4,420.3,464.6Zm51.6-7.8c-.2-9.1.6-11.6,3.5-10.5,1.2.5,1.6,2.7,1.8,9.9l.3,9.3,3.3.3,3.2.3V455.8c0-7.8-.4-10.9-1.6-12.6-1.8-2.6-6.3-2.9-9.8-.7-2.1,1.4-2.4,1.4-3.6,0-1.5-1.8-7.1-2-8.9-.2-1.1,1-1.4,1-1.8,0-.3-.7-1.8-1.3-3.4-1.3H452v25h6v-8.3c0-8.9,1.4-12.5,4.4-11.4,1.3.5,1.6,2.2,1.6,10,0,5.2.2,9.6.5,9.8.2.3,2.1.3,4,.1l3.6-.4-.2-9Zm34.1,8.5c2.3-1.6,1.6-5.8-.9-4.7-4.2,1.8-6.9,1.6-8.5-.7a9.854,9.854,0,0,1-1.6-3.1c0-.5,2.9-.8,6.5-.8H508v-4c0-4.6-2.1-9.5-4.5-10.4-2.8-1-8.9-.6-10.7.8-2.3,1.7-4.8,7.8-4.8,11.6,0,4.2,2.3,9.4,5.1,11.4,2.8,1.9,10,1.9,12.9-.1ZM519.5,447a3.088,3.088,0,0,1,3-.6c1.2.4,1.5,2.5,1.5,10.1V466h6.8l.4-8.7c.6-11.3-1-15.6-6-16.1a6.861,6.861,0,0,0-5.3,1.4c-1.7,1.6-1.9,1.6-1.9.1,0-1.2-.9-1.7-3-1.7h-3v24.9l2.8.3,2.7.3.3-9.2c.2-6.5.7-9.5,1.7-10.3ZM548,464.5c0-1.5-.6-2.5-1.4-2.5-2,0-2.1-.9-1.8-9,.3-5.2.7-7,1.8-7,.8,0,1.4-1,1.4-2.5,0-1.7-.5-2.5-1.8-2.5s-1.7-.8-1.7-3.2c0-3-.3-3.3-3.2-3.6-3.1-.3-3.3-.1-3.3,2.8,0,2.3-.5,3.3-2,3.7a2.948,2.948,0,0,0,0,5.6c1.9.5,2.1,1.2,1.9,8.6-.2,9.6,1.2,12.1,6.8,12.1C547.6,467,548,466.7,548,464.5Zm33,.8c3.5-2,5.6-6.9,3.9-8.9-2.1-2.5-4.8-1.6-6.3,2.1-1.7,4-5.2,4.7-8,1.6-1.4-1.5-1.6-3.6-1.4-11.7.3-9.8.3-9.9,3.1-10.8,3.4-1.2,6.1.1,6.5,3.3.3,1.6,1,2.1,3.3,2.1,3.8,0,4.6-2.1,2.3-6.1-3.3-5.6-12.1-7.1-18-3.2-3.6,2.3-4.6,6.3-4.2,17.3.3,9.9.4,10.2,3.3,12.9,3.9,3.4,11,4.1,15.5,1.4Zm24.9.1c6.3-4.4,6.8-16.8,1-22.3-3.3-3-10.8-2.9-13.6.2-5.5,6-5,18,.9,22.1,2.9,2.1,8.7,2,11.7,0ZM637,446.5c2.5,0,2.5.1,3,10l.5,10h6.7l-.4-10.6c-.2-8.8-.6-11.1-2.2-12.8-2.3-2.5-7.2-2.8-9.6-.6-1.5,1.4-1.8,1.4-3,0-1.4-1.7-6.2-2-9.1-.5-1.3.7-1.9.7-1.9,0,0-.5-1.6-1-3.5-1H614v25h6.9l.3-9.7c.3-9.7.3-9.8,2.8-9.8s2.5.1,2.8,9.7l.3,9.7,3.2.3,3.2.3.5-10C634.5,446.6,634.5,446.5,637,446.5Zm48.9,19.3c1.1-1,1.4-1,1.8,0,.3.6,2,1.2,3.9,1.2H695l-.2-10.4c-.3-9.5-.5-10.7-2.7-13-2-2.1-3.4-2.6-7.1-2.6-4.8,0-7.8,2.1-9.3,6.3-.5,1.4-.1,1.7,2.5,1.7a5.934,5.934,0,0,0,4.4-1.7c1-1.4,1.7-1.6,3.1-.7a4.032,4.032,0,0,1,1.8,3c0,1.5-.9,2-4,2.5-7.4,1-9.2,2.9-8.6,9.3.4,4.7,7.6,7.6,11,4.4ZM706,456c.5-9.3.5-9.5,3-9.5s2.5.1,3,10l.5,10H719V456.4c0-8.7-.3-10.5-2.1-12.8-2.2-2.9-7.5-3.6-9.7-1.4-1,1-1.4,1-2.1,0-.5-.8-2.1-1.2-3.7-1l-2.9.3-.3,11.4c-.1,6.3-.1,12,.2,12.7.3.8,1.6,1,3.8.5l3.3-.7Zm-2.9-72.1c1.7-3.2,2.4-44.9,1-57.9-1.2-10.9-1.7-15.1-2.8-21-.3-1.9-.7-4.2-.8-5-3.4-22-13.9-52.3-26.5-76.6-5.8-11.1-17.2-30.1-21-34.7-.5-.7-4.6-5.8-9-11.3-28.3-35.8-69.1-66.6-109.5-82.8-3.8-1.5-9.1-3.7-11.7-4.7-6.9-2.8-26.5-8.3-39.8-11.2-20.1-4.3-29.8-5.2-58-5.1-22.2,0-28.6.4-39.7,2.2-31.9,5.2-59,14.1-86.3,28.4-27.1,14.2-47.3,29-69.1,50.8-13,12.9-17.7,18.3-25.7,29.4-1.2,1.7-2.8,3.8-3.5,4.6-4.7,5.6-15.1,23.2-23,39-10.7,21.3-19.6,46.6-23.1,65.5-4.8,25.7-5.1,29.5-5.1,61.6,0,21.9.3,27.9,1.4,29.3,1.2,1.5,22.1,1.6,276.2,1.6H701.9Z" fill="#fcaa00"/>
      <path id="Path_31" data-name="Path 31" d="M173.2,460.8c-1.8-1.8-1.5-11.3.4-13.2,2.2-2.3,5-.5,5.8,3.8,1.4,7.4-2.4,13.2-6.2,9.4Z" fill="#fcaa00"/>
      <path id="Path_32" data-name="Path 32" d="M435.2,460.8c-.7-.7-1.2-3.8-1.2-7,0-4.6.4-5.9,1.9-6.7a3.178,3.178,0,0,1,3.7.3c2.3,1.7,2.6,12.2.3,13.7-1.9,1.2-3.3,1.1-4.7-.3Z" fill="#fcaa00"/>
      <path id="Path_33" data-name="Path 33" d="M659.2,460.8c-1.8-1.8-1.5-11.3.4-13.2a1.928,1.928,0,0,1,3.8,0c1.1,1,1.6,3.4,1.6,6.8,0,5-1.2,7.6-3.5,7.6a3.961,3.961,0,0,1-2.3-1.2Z" fill="#fcaa00"/>
      <path id="Path_34" data-name="Path 34" d="M149,460.5c-1.8-2.2-1.7-11.2.2-13.1,2.5-2.6,5.5-.9,6.1,3.4C156.6,458.8,152.6,464.9,149,460.5Z" fill="#fcaa00"/>
      <path id="Path_35" data-name="Path 35" d="M244,449.6c0-2,2.7-3.9,4.5-3.2A2.941,2.941,0,0,1,250,449c0,1.6-.7,2-3,2C245.1,451,244,450.5,244,449.6Z" fill="#fcaa00"/>
      <path id="Path_36" data-name="Path 36" d="M269.2,461.1c-.9-.5-1.2-2.8-1-7.7.3-5.9.6-6.9,2.2-7.2,2.9-.6,4.6,2.5,4.6,8.3,0,6.5-2.2,8.9-5.8,6.6Z" fill="#fcaa00"/>
      <path id="Path_37" data-name="Path 37" d="M303,449V437h2.8a7.738,7.738,0,0,1,5,2.3c1.9,2,2.2,3.5,2.2,9.8,0,9.2-1.5,11.9-6.6,11.9H303V449Z" fill="#fcaa00"/>
      <path id="Path_38" data-name="Path 38" d="M331,450.4c0-1.6,2.2-4.4,3.5-4.4,1.6,0,3.8,3.4,2.8,4.4C336.5,451.2,331,451.2,331,450.4Z" fill="#fcaa00"/>
      <path id="Path_39" data-name="Path 39" d="M375,449.6c0-2,2.7-3.9,4.5-3.2A2.941,2.941,0,0,1,381,449c0,1.6-.7,2-3,2C376.1,451,375,450.5,375,449.6Z" fill="#fcaa00"/>
      <path id="Path_40" data-name="Path 40" d="M411.1,460.1c-1.7-3.1-1.4-11.6.5-13.2,2.5-2,4.8.2,5.5,5.2C418.2,459.3,413.8,465.2,411.1,460.1Z" fill="#fcaa00"/>
      <path id="Path_41" data-name="Path 41" d="M495,450.2a6.263,6.263,0,0,1,1.4-2.7c1.6-2.2,4.1-1.5,4.9,1.4.4,1.8.1,2.1-2.9,2.1C496.5,451,495,450.6,495,450.2Z" fill="#fcaa00"/>
      <path id="Path_42" data-name="Path 42" d="M598.1,460.6c-3-3.6-2-13.8,1.3-14.4,3-.6,4.6,1.7,4.6,7,0,7.5-2.8,11.1-5.9,7.4Z" fill="#fcaa00"/>
      <path id="Path_43" data-name="Path 43" d="M681.6,460.4c-.9-2.5,1.2-5.6,3.7-5.2,1.7.2,2.1.9,1.9,2.8-.4,3.8-4.4,5.5-5.6,2.4Z" fill="#fcaa00"/>
      <path id="Path_44" data-name="Path 44" d="M458,279V248h15.9c15.6,0,15.9,0,16.5,2.3,1.5,5.7,1.6,5.7-11.4,5.7H467v18h19v8H467v26.8l-3.1.6C457.6,310.6,458,312.8,458,279Z" fill="#fcaa00"/>
      <path id="Path_45" data-name="Path 45" d="M497.8,287l.3-23H506v45.5l-4.3.2-4.2.3.3-23Z" fill="#fcaa00"/>
      <path id="Path_46" data-name="Path 46" d="M517,287V264h4c4,0,4,0,4,4v4l3.3-3.7c2.9-3.1,4.1-3.7,9-4.1l5.6-.4-1.6,4.1c-1.3,3.4-2,4.1-4.4,4.1-3.9,0-9.3,5-10.7,9.8-.7,2.2-1.2,9.1-1.2,15.4,0,11.1-.1,11.6-2.2,12.2-6.1,1.6-5.8,2.8-5.8-22.4Z" fill="#fcaa00"/>
      <path id="Path_47" data-name="Path 47" d="M546.2,287.3l.3-22.8,3.8-.3c3.1-.3,3.7,0,3.7,1.7a3.5,3.5,0,0,0,1,2.6c.6.3,1,.2,1-.3,0-1.7,6.7-4.2,11.4-4.2,3.6,0,5.2.6,8.1,3.1,1.9,1.7,3.5,2.6,3.5,2,0-1.9,8.1-5.1,12.8-5.1a14.766,14.766,0,0,1,12.1,5.6c2,2.5,2.1,3.9,2.1,20.9,0,18.1,0,18.3-2.2,18.9-6,1.6-5.8,2.1-5.8-16.3,0-19.8-.5-21.3-7.9-21.5-3.5-.1-4.7.4-6.7,2.7-2.3,2.7-2.4,3.4-2.4,18.6v15.9l-3.1.6c-6.2,1.2-5.9,2.1-5.9-16.6-.1-20.4-.4-21.4-7.7-21.2-3.7.1-5.1.6-7,2.8-2.2,2.6-2.3,3.4-2.3,18.5v15.9l-3.1.6c-6.3,1.2-6,2.7-5.7-22.1Z" fill="#fcaa00"/>
      <path id="Path_48" data-name="Path 48" d="M618.4,307.5c-5.4-3.2-6-4.9-2.6-7.4,2.7-1.9,2.8-1.9,5.7.2,3.7,2.7,9.6,2.8,12.4.3,4.5-4.1,1.8-8-7.4-10.7-9.7-2.9-12.5-5.7-12.5-12.5,0-9,6.6-14.2,17-13.2,4.3.4,11.1,3.9,11,5.6a12,12,0,0,1-1.9,2.9l-1.8,2.2-3.9-2c-6-3.1-12.4-1.2-12.4,3.7,0,2.9,2.7,4.7,10.4,6.9,8.3,2.3,11.6,5.8,11.6,12.3,0,4-.6,5.7-2.7,8.3-5.4,6.4-15.5,7.9-22.9,3.4Z" fill="#fcaa00"/>
      <path id="Path_49" data-name="Path 49" d="M498.7,255.9l-2.5-3.2,2.1-2.9c2.7-3.6,4-3.5,6.8.3l2.2,3.1-3,3-3,3-2.6-3.3Z" fill="#fcaa00"/>
      <path id="Path_50" data-name="Path 50" d="M401.6,132.8c-1.1-.6-7.4-.9-16.3-.6l-14.5.3.5-4.7c1.3-10.7,8.9-20.6,20.3-26.3l5.9-3h87v31l-38.6.5c-34.4.4-38.9.7-40.5,2.2C403.9,133.5,403,133.6,401.6,132.8Z" fill="#fcaa00"/>
    </g>
    <g id="Group_4" data-name="Group 4">
      <path id="Path_51" data-name="Path 51" d="M371,183.7V153.3l3.1-4.6a63.043,63.043,0,0,1,9.2-10.2l6-5.5h-9.2c-8.3,0-9.2-.2-8.9-1.8.3-1.5,2-1.7,16.3-1.9,17.2-.3,20.1.3,17.2,3.5-1.5,1.7-1.7,5.5-1.7,41.5V214H371Z" fill="#fc8e00"/>
    </g>
    <g id="Group_5" data-name="Group 5">
      <path id="Path_52" data-name="Path 52" d="M371,145.5V130h15c8.3,0,15,.3,15,.8,0,.4-2.1,1.8-4.7,3.2-6.6,3.4-18.5,15.4-21.7,21.8a26.168,26.168,0,0,1-3.1,5.2c-.3,0-.5-7-.5-15.5Z" fill="#ea8000"/>
    </g>
    <g id="Group_6" data-name="Group 6">
      <path id="Path_53" data-name="Path 53" d="M331.3,647.8c-4.5-1.5-4.3-3.8.2-3.8,3.1,0,3.5.3,3.5,2.5a6.839,6.839,0,0,1-.2,2.4c-.2-.1-1.8-.6-3.5-1.1Z" fill="#17619a"/>
      <path id="Path_54" data-name="Path 54" d="M443,574c0-1.1.7-2,1.5-2s1.5.9,1.5,2-.7,2-1.5,2S443,575.1,443,574Z" fill="#17619a"/>
      <path id="Path_55" data-name="Path 55" d="M484,575c0-.5.7-1,1.5-1s1.5.5,1.5,1c0,.6-.7,1-1.5,1S484,575.6,484,575Z" fill="#17619a"/>
      <path id="Path_56" data-name="Path 56" d="M348.6,562.3c.7-3.7,3.2-6.1,7.1-6.9,2.6-.5,3.7-.1,5.7,1.9,1.4,1.5,2.6,3.1,2.6,3.7,0,1.8-2.8,1.1-3.5-.9-1.4-4.5-7.9-3.1-9,1.8-.8,4-3.6,4.3-2.9.4Z" fill="#17619a"/>
      <path id="Path_57" data-name="Path 57" d="M412,197.5V181h19.9c16.4,0,20.1-.3,21.1-1.5s4.2-1.5,17.3-1.5h16l-.6,6.3c-.9,8.9-5.8,18.1-12.2,22.9-8.4,6.4-10.9,6.8-37.7,6.8H412V197.5Z" fill="#17619a"/>
    </g>
    <g id="Group_7" data-name="Group 7">
      <path id="Path_58" data-name="Path 58" d="M415,660.5c0-2.3.4-2.5,4.5-2.5s4.5.2,4.5,2.5-.4,2.5-4.5,2.5S415,662.8,415,660.5Z" fill="#1b5583"/>
      <path id="Path_59" data-name="Path 59" d="M431,660.5c0-2.3.3-2.5,5-2.5s5,.2,5,2.5-.3,2.5-5,2.5S431,662.8,431,660.5Z" fill="#1b5583"/>
      <path id="Path_60" data-name="Path 60" d="M380.7,659.5c-8.7-1.5-9.2-1.7-8.4-4,.7-1.7,8.7-2.2,8.7-.4,0,.5.5.7,1,.4.6-.4,4-.3,7.5,0,6,.7,6.5.9,6.5,3.1,0,2.1-.4,2.4-3.7,2.3-2.1-.1-7.3-.7-11.6-1.4Z" fill="#1b5583"/>
      <path id="Path_61" data-name="Path 61" d="M458,658.8c0-2.4.4-2.5,9.4-3.6a144.957,144.957,0,0,1,15.5-1.2c4.5,0,6.1-.4,6.1-1.4,0-1.4,8.8-3.6,14.7-3.6,3.1,0,5.5,2.2,4,3.6-1,1.1-34.1,7.4-41.9,8l-7.8.7v-2.5Z" fill="#1b5583"/>
      <path id="Path_62" data-name="Path 62" d="M358.5,655.3c-8.3-1.9-9.5-2.4-9.5-4.3,0-1.8.7-2,6-2,3.3,0,6,.4,6,1s.9,1,2,1c1.5,0,2,.7,2,2.5C365,656.1,363.6,656.5,358.5,655.3Z" fill="#1b5583"/>
      <path id="Path_63" data-name="Path 63" d="M337.8,649.8c-1.7-.6-2.8-1.7-2.8-2.9,0-1.5.7-1.9,3.5-1.9,3.2,0,3.5.2,3.5,3,0,3.3-.2,3.3-4.2,1.8Z" fill="#1b5583"/>
      <path id="Path_64" data-name="Path 64" d="M512,648c0-2.9.2-3,4.5-3,3.8,0,4.5.3,4.5,1.9,0,1.2-1.1,2.3-3.1,3C512.9,651.6,512,651.3,512,648Z" fill="#1b5583"/>
      <path id="Path_65" data-name="Path 65" d="M528,643.4V640h6c4.1,0,6,.4,6,1.3,0,.6-2.7,2.1-6,3.3l-6,2.1v-3.3Z" fill="#1b5583"/>
      <path id="Path_66" data-name="Path 66" d="M322.8,644.8c-1.7-.6-2.8-1.7-2.8-2.9,0-1.5.7-1.9,3.5-1.9,3.2,0,3.5.2,3.5,3,0,3.3-.2,3.3-4.2,1.8Z" fill="#1b5583"/>
      <path id="Path_67" data-name="Path 67" d="M307.8,639.2c-4.8-2.1-5.2-5.2-.7-5.2,3.5,0,5.9,2,5.9,4.9,0,2.4-.3,2.5-5.2.3Z" fill="#1b5583"/>
      <path id="Path_68" data-name="Path 68" d="M289.3,630.8a3.8,3.8,0,0,1-2.3-3c0-1.4.8-1.8,3.5-1.8,3.2,0,3.5.2,3.5,3C294,632.2,293,632.6,289.3,630.8Z" fill="#1b5583"/>
      <path id="Path_69" data-name="Path 69" d="M570,625.1V621h4.5c4.1,0,4.5-.2,4.5-2.5s.4-2.5,4.6-2.5c6.2,0,5.6,2.4-1.6,6.2-3,1.7-7,3.9-8.7,5l-3.3,2v-4.1Z" fill="#1b5583"/>
      <path id="Path_70" data-name="Path 70" d="M601.6,609.3a9.5,9.5,0,0,1-.6-4c0-3.3.1-3.3,4.5-3.3,2.9,0,4.5.4,4.5,1.3C610,604.8,602.5,610.2,601.6,609.3Z" fill="#1b5583"/>
      <path id="Path_71" data-name="Path 71" d="M244.3,603.2c-2.9-2-5.3-4-5.3-4.4,0-.5,1.6-.8,3.5-.8,2.4,0,3.5.5,3.5,1.5,0,.8.9,1.5,2,1.5,1.6,0,2,.7,2,3a11.7,11.7,0,0,1-.2,3C249.6,606.9,247.1,605.2,244.3,603.2Z" fill="#1b5583"/>
      <path id="Path_72" data-name="Path 72" d="M225.5,588.3l-6.9-5.8,3.4-.3c1.9-.2,3.6.1,3.8.7a2.452,2.452,0,0,0,2.3,1.1,1.767,1.767,0,0,1,1.9,2c0,1.1.7,2,1.5,2q1.5,0,1.5,3c0,1.7-.1,3-.3,3C232.6,594,229.3,591.4,225.5,588.3Z" fill="#1b5583"/>
      <path id="Path_73" data-name="Path 73" d="M250,578.9v-3l3,2.1c4.4,3.1,4.5,4,.6,4C250.3,582,250,581.8,250,578.9Z" fill="#1b5583"/>
      <path id="Path_74" data-name="Path 74" d="M351.4,573.7c-2.1-1.9-2.8-3.4-3-7-.1-2.6.2-4.7.7-4.7.6,0,.8-.4.5-.9s.3-2,1.4-3.2c1.6-2,1.9-2.1,2-.7a3.2,3.2,0,0,1-.8,2.2c-.5.3-.9,2.7-1.1,5.5-.1,3.9.3,5.5,1.9,7.1,3.3,3.3,8,2.3,8-1.6,0-1.5.6-2.4,1.5-2.4,2.3,0,1.8,4.7-.7,6.4a8.185,8.185,0,0,1-10.4-.7Z" fill="#1b5583"/>
      <path id="Path_75" data-name="Path 75" d="M369.5,573.5A7.8,7.8,0,0,1,367,568c0-3.6,3.8-8,7-8s7,4.4,7,8-3.8,8-7,8A7.936,7.936,0,0,1,369.5,573.5Zm7.3-.7c2.6-2.6.5-10.8-2.8-10.8-1.9,0-4,3.3-4,6.4,0,3.5,1.5,5.6,4,5.6A4.417,4.417,0,0,0,376.8,572.8Z" fill="#1b5583"/>
      <path id="Path_76" data-name="Path 76" d="M385.9,573.9c-1.5-1.5-1.9-3-1.7-6.1.7-10.1,12.8-9.9,12.8.3,0,7-6.5,10.4-11.1,5.8Zm7.7-2.4c3.1-4.7-1-11.1-5.1-8.1-3.3,2.4-1.7,10.6,2.1,10.6C391.3,574,392.7,572.9,393.6,571.5Z" fill="#1b5583"/>
      <path id="Path_77" data-name="Path 77" d="M402.4,573.9a9.264,9.264,0,0,1-1.9-6.1c0-5,3.3-8.2,7.6-7.3,2.1.5,2.8.2,3.2-1.2.3-1,.5-.1.6,2,.1,4.1-.3,4.4-2.5,2.2-1.9-1.9-2.9-1.9-4.8.1-3,3-1.5,10.4,2,10.4,2.1,0,4.4-3,4.4-5.6,0-1.3.5-2.4,1-2.4.6,0,1,2.2,1,4.8v4.8l-4.4.2c-3.3.1-4.8-.4-6.2-1.9Z" fill="#1b5583"/>
      <path id="Path_78" data-name="Path 78" d="M433,568c0-7.3.9-9.7,2.5-7q.6,1.05,2.4,0a2.947,2.947,0,0,1,2.5-.3c.3.3-.4,1.1-1.7,1.7-1.9,1-2.2,2.1-2.5,7.4-.2,4.6-.7,6.2-1.7,6.2-1.2,0-1.5-1.7-1.5-8Z" fill="#1b5583"/>
      <path id="Path_79" data-name="Path 79" d="M443,568.6c0-7,1-10,2.5-7.6.4.7,1.3.7,2.6-.1,2.1-1.1,5.9-.4,5.9,1.2,0,.5,1.1.2,2.5-.7,3.7-2.4,7.5-.6,7.5,3.6,0,1.6-.4,3-1,3-.5,0-1-.9-1-2a3.192,3.192,0,0,0-5.4-2.4,5.409,5.409,0,0,0-1.6,3.5c0,3-1.8,2.2-2.5-1-1.5-6.8-6.3-4-6.7,3.8-.2,3.2-.8,5.6-1.5,5.9C443.3,576.1,443,574.2,443,568.6Z" fill="#1b5583"/>
      <path id="Path_80" data-name="Path 80" d="M470.8,574.9c-1.8-1-2.5-3.9-.9-3.9a4.121,4.121,0,0,1,2.1,1.5c1.7,2,5.4,1.5,5.8-.6.2-1.2-.9-2.1-4-3-3.1-1-4.4-2-4.6-3.6-.7-4.6,8.6-6.9,10.3-2.6.8,2.3,0,2.6-2.7.9-1.4-.9-2.8-1.2-3.7-.7-2.1,1.3-.8,3.3,3,4.6,2.4.8,3.5,1.9,3.7,3.5.6,4.1-4.8,6.4-9,3.9Z" fill="#1b5583"/>
      <path id="Path_81" data-name="Path 81" d="M494.2,574.4c-1.7-1.2-2.2-2.5-2.2-5.8,0-4.9,1.5-7.2,5.2-8.1,2-.5,3.2-.1,4.9,1.6,1.4,1.4,1.8,2.4,1.1,2.7-.7.2-1.9-.4-2.8-1.2-2-2-2.7-2-4.7.2a7.329,7.329,0,0,0-.7,8.3c1.3,2.3,4.8,2.5,5.6.4.7-1.6,3.4-2.1,3.4-.6,0,1.3-4.1,4.1-6,4.1a7.981,7.981,0,0,1-3.8-1.6Z" fill="#1b5583"/>
      <path id="Path_82" data-name="Path 82" d="M509.3,574.5c-4.4-3.1-3-12.6,2.1-13.9,7.1-1.8,11.7,8.1,6.3,13.2-2.7,2.6-5.4,2.8-8.4.7Zm7.3-3.3c1.5-3,.6-7-1.9-8.4-4.2-2.2-7.7,6.1-4.1,9.7C512.7,574.6,515.2,574.1,516.6,571.2Z" fill="#1b5583"/>
      <path id="Path_83" data-name="Path 83" d="M418,564c0-1.1-.5-2-1-2-.6,0-.5-.9.2-2.2,2.4-4.2,4.1-5.8,6.2-5.7,2.1,0,2.1,0-.1,1.6-2.6,1.8-3,4.3-.8,4.3.8,0,1.5.5,1.5,1,0,.6-.7,1-1.5,1s-1.5.9-1.5,2-.7,2-1.5,2-1.5-.9-1.5-2Z" fill="#1b5583"/>
      <path id="Path_84" data-name="Path 84" d="M361,560.5c0-1.7-3.6-3.9-5-3-.6.3-1-.1-1-1,0-1.4.6-1.6,2.8-1.1,4.2,1,8.2,6.6,4.7,6.6A1.538,1.538,0,0,1,361,560.5Z" fill="#1b5583"/>
      <path id="Path_85" data-name="Path 85" d="M678,532.6c0-3.3.2-3.6,3.1-3.6h3l-2.1,3C678.9,536.4,678,536.5,678,532.6Z" fill="#1b5583"/>
      <path id="Path_86" data-name="Path 86" d="M139,381.5c0-4,2.4-4.9,3.4-1.2s.7,4.7-1.4,4.7C139.4,385,139,384.3,139,381.5Z" fill="#1b5583"/>
      <path id="Path_87" data-name="Path 87" d="M733,329c0-3.8.2-4,3-4s3,.2,3,4-.2,4-3,4S733,332.8,733,329Z" fill="#1b5583"/>
      <path id="Path_88" data-name="Path 88" d="M245.5,307.5c-10.7-4.3-19.5-16.2-19.5-26.2,0-2.6.4-3.3,1.9-3.3a2.542,2.542,0,0,1,2.4,1.3c.3.6.6.2.6-1,.1-1.3-.3-2.3-.9-2.3-.5,0-1-1.6-1-3.5,0-2.4.5-3.5,1.5-3.5.8,0,1.5-.9,1.5-2,0-1.2-.7-2-1.6-2-1.4,0-1.3-.5.5-3.2,2.5-4,4.1-4.7,4.1-1.7v2.2l2-2.3a8.037,8.037,0,0,0,2-4.2c0-1.4.8-1.8,3.5-1.8,2.4,0,3.5-.5,3.5-1.5,0-.9.9-1.5,2.3-1.5a5.305,5.305,0,0,0,3.7-2c2.2-3.1,12-2.6,12,.6,0,.8.9,1.4,2,1.4s2,.5,2,1c0,.6,1,1,2.1,1a5.9,5.9,0,0,1,3.8,1.8,7.636,7.636,0,0,0,2.8,2.3c.9.3.8.8-.1,2.2-1.3,1.6-1.7,1.6-7.7-1.3-8.3-3.9-13.7-3.9-21-.2-9.6,4.8-15.5,16.6-13,25.7.9,3.3.8,3.5-1.5,3.5-1.7,0-2.4.6-2.4,2,0,1.1.7,2,1.5,2a1.538,1.538,0,0,1,1.5,1.5c0,.8.5,1.5,1,1.5.6,0,1,.7,1,1.5a1.79,1.79,0,0,0,1.9,1.5,2.893,2.893,0,0,1,2.6,2c.7,2.2,5.7,4,6.3,2.2.2-.8,1.1-.8,2.8-.1a28.891,28.891,0,0,0,7.5.9c3.7,0,4.9.4,4.9,1.5,0,.8.5,1.5,1,1.5a.915.915,0,0,0,1-.8c0-1.2,6.2-3.2,9.8-3.2H277V279h-9c-7.3,0-9,.3-9,1.5,0,.9-.9,1.5-2.5,1.5-2.4,0-2.5-.1-1.2-3.2l1.3-3.3,12.2-.3,12.2-.3v12.8c0,7-.4,13.3-.8,13.8-1.7,2.5-7.4,5.6-12.8,7-8.3,2.2-14.9,1.9-21.9-1Z" fill="#1b5583"/>
      <path id="Path_89" data-name="Path 89" d="M304.5,307.6a24.9,24.9,0,0,1-6.4-3.9c-1.2-1.5-.9-1.7,3.2-1.7,2.5,0,4.7-.5,4.9-1.1.3-.9.9-.9,2.5,0a18.971,18.971,0,0,0,6.7,1.1c2.5,0,4.6.5,4.6,1,0,.6,1.4,1,3,1,2.3,0,3,.4,3,2,0,4.3-13.6,5.3-21.5,1.6Z" fill="#1b5583"/>
      <path id="Path_90" data-name="Path 90" d="M362.9,309.1c-5.5-1.8-13.9-8-13.9-10.3,0-.4,1.6-.8,3.5-.8,2.8,0,3.5.4,3.5,1.9,0,1.3.9,2,3.4,2.4,3.6.6,15.7-.6,17.5-1.8.6-.3,1.1-.1,1.1.4,0,.6,1.1,1.1,2.5,1.1,2,0,2.5-.5,2.5-2.5,0-2.3.4-2.5,4.5-2.5,4,0,4.5.2,3.6,1.8-1.4,2.6-6.2,6.8-9.9,8.6-3.8,1.9-14.5,2.9-18.3,1.7Z" fill="#1b5583"/>
      <path id="Path_91" data-name="Path 91" d="M414,307.9c-4.8-2.2-7.7-4.4-9.1-7.1-.8-1.5-.5-1.8,2.1-1.8,2.3,0,3,.5,3,1.9,0,1.5.9,2,4.8,2.3,2.6.2,4.9,0,5-.4.2-.4,1.9-.8,3.8-.8,2.4,0,3.4.5,3.4,1.5a1.538,1.538,0,0,0,1.5,1.5c2,0,1.9,3.6-.1,4.4-3.1,1.2-10,.5-14.4-1.5Z" fill="#1b5583"/>
      <path id="Path_92" data-name="Path 92" d="M433.3,304.1a15.467,15.467,0,0,1,1.7-5.6c1.3-1.6,4.7-1.9,7.4-.9,3,1.1,1.5,9.4-1.6,9.4-.4,0-.8-.7-.8-1.5,0-2-.6-1.9-4.3.7l-3,2.2.6-4.3Z" fill="#1b5583"/>
      <path id="Path_93" data-name="Path 93" d="M329,304.3a52.754,52.754,0,0,1,.6-5.5c.6-3.7.8-3.8,4.6-3.8,3.3,0,3.9.3,3.4,1.6a27.005,27.005,0,0,1-6.8,8.3c-1.5.9-1.8.8-1.8-.6Z" fill="#1b5583"/>
      <path id="Path_94" data-name="Path 94" d="M293.1,297.3a41.394,41.394,0,0,1-2.6-7.1c-.9-4.1,1.2-13.2,3-13.2,1.1,0,1.4,1.9,1.3,8.1,0,4.4.3,8.3.6,8.6.3.4.6-.6.6-2,0-3.4,2.6-3.6,3.4-.4a14.13,14.13,0,0,0,3,5l2.5,2.7h-3.4c-2.4,0-3.5-.5-3.8-1.7-.3-1.1-.5-.7-.6,1C297,302.1,295.4,301.7,293.1,297.3Z" fill="#1b5583"/>
      <path id="Path_95" data-name="Path 95" d="M272,294.5c0-2.8.4-3.5,2-3.5s2,.7,2,3.5-.4,3.5-2,3.5S272,297.3,272,294.5Z" fill="#1b5583"/>
      <path id="Path_96" data-name="Path 96" d="M345.6,291.8a29.86,29.86,0,0,1-.6-5.5c0-2.6.4-3.3,2-3.3,1.8,0,2,.7,2,5.5,0,4-.4,5.5-1.4,5.5C346.9,294,346,293,345.6,291.8Z" fill="#1b5583"/>
      <path id="Path_97" data-name="Path 97" d="M404.3,285.5A8.015,8.015,0,0,1,403,281c0-2.8.2-3,3.9-3h3.9l-1.7,4.5C407.4,287.2,406.3,287.9,404.3,285.5Z" fill="#1b5583"/>
      <path id="Path_98" data-name="Path 98" d="M297.2,277.3c.3-5.5.4-5.8,3.1-6.1,1.9-.2,2.7-.9,2.7-2.3,0-1.6.7-1.9,5-1.9,3.8,0,5-.4,5-1.5,0-1,1-1.5,3.3-1.5,4.7,0,7.7,1,7.7,2.6,0,.8.5,1.4,1,1.4.6,0,1,1.6,1,3.4v3.5l-3.5-1.5c-7.8-3.2-17.8-.4-21.7,6.2-1.1,1.8-2.4,3.4-2.9,3.4C297.3,283,297,280.4,297.2,277.3Z" fill="#1b5583"/>
      <path id="Path_99" data-name="Path 99" d="M354,276.5c0-2.8.4-3.5,2-3.5,1.5,0,2-.7,2-2.4,0-2.2.6-2.6,4.6-3.2,5.9-.9,16.6.2,17.6,1.9.5.8.8.7.8-.5,0-2.3.8-2.2,4.3,0,2.7,1.9,7.7,7.9,7.7,9.4,0,.4-1.6.8-3.5.8-2.8,0-3.5-.4-3.5-1.9,0-1.1-.4-2.3-1-2.6-.5-.3-1,.3-1,1.5,0,2-.1,2-3.5-.6-6.7-5.1-17.9-4.2-22.9,1.7-1.4,1.6-2.7,2.9-3,2.9s-.6-1.6-.6-3.5Z" fill="#1b5583"/>
      <path id="Path_100" data-name="Path 100" d="M412,272.2c0-4.1,0-4.1,4.6-4.8,6.1-.9,16.2.2,18,2a6.373,6.373,0,0,1,1.4,3.9v2.5l-3.7-1.9c-5-2.6-12.2-2.5-16.7.2l-3.6,2.1v-4Z" fill="#1b5583"/>
      <path id="Path_101" data-name="Path 101" d="M152,260.5c0-2.8.4-3.5,2-3.5,2.2,0,2.6,2,1,5.1C153.4,265.1,152,264.4,152,260.5Z" fill="#1b5583"/>
      <path id="Path_102" data-name="Path 102" d="M452.8,179.8c1.8-1.8,1.6-9.8-.3-9.8-.8,0-1.5-.9-1.5-2,0-1.6.7-2,3.5-2H458v11h14c13.3,0,14,.1,14,2s-.7,2-17.2,2C455.4,181,451.9,180.7,452.8,179.8Z" fill="#1b5583"/>
      <path id="Path_103" data-name="Path 103" d="M653.8,177l-2.8-3.5,2.6-.3c3.3-.4,3.6-.1,3.2,3.9l-.3,3.4-2.7-3.5Z" fill="#1b5583"/>
      <path id="Path_104" data-name="Path 104" d="M482,152c0-1.6-.4-3-1-3-.5,0-1-1.8-1-4,0-3.8.2-4,3-4h3v7c0,6.3-.2,7-2,7C482.4,155,482,154.3,482,152Z" fill="#1b5583"/>
      <path id="Path_105" data-name="Path 105" d="M412,143.5a4.033,4.033,0,0,1,2-3.5c1.8-1,2-.8,2,2.5,0,2.8-.4,3.5-2,3.5C412.5,146,412,145.3,412,143.5Z" fill="#1b5583"/>
      <path id="Path_106" data-name="Path 106" d="M479.5,70.1c-2.1-.4-3.1-1.3-3.3-2.9-.3-1.9.1-2.2,3.2-2.2,2,0,3.6.5,3.6,1,0,.6.7,1,1.5,1s1.5.9,1.5,2c0,2.1-1.1,2.3-6.5,1.1Z" fill="#1b5583"/>
      <path id="Path_107" data-name="Path 107" d="M421,62.5c0-2.4.3-2.5,6-2.5s6,.1,6,2.5-.3,2.5-6,2.5S421,64.9,421,62.5Z" fill="#1b5583"/>
      <path id="Path_108" data-name="Path 108" d="M415,42c0-1.6.7-2,3.5-2s3.5.4,3.5,2-.7,2-3.5,2S415,43.6,415,42Z" fill="#1b5583"/>
      <path id="Path_109" data-name="Path 109" d="M433,42c0-1.8.7-2,6-2s6,.2,6,2-.7,2-6,2S433,43.8,433,42Z" fill="#1b5583"/>
    </g>
    <g id="Group_8" data-name="Group 8">
      <path id="Path_110" data-name="Path 110" d="M402.1,661.9c-5-.5-8.7-1.3-9.2-2.1-.7-1-.9-1-.9,0,0,1.7-3.6,1.5-5.4-.4-.9-.8-1.6-1.1-1.6-.5,0,1.2-6.4.5-6.8-.9-.2-.5-1.4-.7-2.7-.4-3.2.8-13.5-1.4-13.5-2.9,0-.9-.2-.9-.8,0-.9,1.4-2.6.5-3.5-1.7q-.6-1.8-.6.3c-.1,2.1-1.5,2.2-3.5.1-.9-.8-1.6-1.1-1.6-.5,0,1.4-11.2-1.9-12.7-3.7-.8-1-1.3-1.1-1.3-.4,0,.9-1,.8-3.6-.3a20.888,20.888,0,0,0-5.5-1.5,6.68,6.68,0,0,1-3.9-2c-1.1-1.1-2-1.6-2-1,0,1.2-11.5-2.9-13.8-5a6.184,6.184,0,0,0-3.2-1.5c-2.9,0-15-6-15.1-7.5q0-1.5-.6-.3c-.3.9-2.8,0-8.1-2.9-8.9-4.7-26.8-15.8-32.8-20.2-2.3-1.7-5.2-3.8-6.4-4.6-1.3-.8-4.5-3.3-7.3-5.5-2.7-2.2-5.8-4.6-6.8-5.4a4.08,4.08,0,0,1-1.9-2.8c0-.8-.4-1.2-.9-.8-.9.5-4.7-2.8-16.7-14-13-12.2-42.4-48.7-42.4-52.6,0-.5,6.5-.9,14.4-.9h14.3l8.4,10.3c27.2,33.3,59.8,59.3,97.4,77.7A292.332,292.332,0,0,0,394,635.2c17.4,2.2,55.5,1.6,73.2-1.1Q580.15,617,653.2,526l4.4-5.5,16.3-.3,16.4-.3-1.8,2.8c-4.3,6.6-21.7,29.4-27.5,35.8a339.89,339.89,0,0,1-44.2,40.8c-6.7,5-9.2,6.4-11,6-1.9-.5-2.1-.3-1,.8,1,1.1-.5,2.4-8.5,7.6-7.2,4.6-10.4,6.1-12,5.6-1.8-.4-2.2-.2-1.7,1,.7,2-4.5,4.8-7.4,4-1.7-.4-2.2-.1-2.2,1.4,0,1.4-2.3,3-9.2,6.3-17.5,8.1-25.3,11.2-29,11.2-2.4.1-3.8.6-3.8,1.3,0,1.5-12.3,5.6-12.8,4.3-.6-1.4-3.4-.9-2.9.6.6,1.6-8.6,3.9-12,3-1.8-.5-2.3-.2-2.4,1.2,0,1.1-.3,1.4-.6.7-.7-2-4.3-1.6-4.4.5,0,1-.3,1.2-.6.5-.6-1.6-3-1.7-3.5-.1-.6,1.8-11.1,3.6-13.2,2.3-1.3-.8-1.9-.6-2.7.8-1.1,1.8-4.9,2.4-4.9.7,0-.5-.7-1-1.5-1a1.538,1.538,0,0,0-1.5,1.5c0,.8-.9,1.5-2,1.5s-2-.4-2-1c0-1.4-2.7-1.3-3.2.1-.5,1.6-22.1,3.5-22.6,2-.5-1.4-4.2-1.5-4.2-.1,0,.6-2.8,1-6.5,1s-6.5-.4-6.5-1c0-.5-.7-1-1.5-1s-1.5.5-1.5,1c0,1.1-3.6,1.1-15.9-.1Z" fill="#0d4774"/>
      <path id="Path_111" data-name="Path 111" d="M353.7,575.2c-3.7-1.5-7.8-11.2-4.7-11.2.9,0,1.5,2.9,1.1,5.3,0,.4.4.7,1.1.7.6,0,.9.3.5.6-.8.8,1.6,3.3,2.6,2.7.4-.2.7,0,.7.6,0,.5,1.1.8,2.5.7,1.3-.2,2.2.1,1.9.5-.6,1-3.2,1.1-5.7.1Z" fill="#0d4774"/>
      <path id="Path_112" data-name="Path 112" d="M373,575.2c0-.4,1.5-1.3,3.3-1.9l3.2-1.2-2.4,1.9C374.7,576.1,373,576.6,373,575.2Z" fill="#0d4774"/>
      <path id="Path_113" data-name="Path 113" d="M388,574.4c0-1-.5-1.4-1.6-1-.8.3-1.2.2-.9-.4s.1-1-.4-1c-.6,0-1.1-1.4-1.1-3.2,0-3,.1-3.1,1.4-1.3.8,1.1,1.2,2.3,1,2.7-.3.4.4,1.6,1.4,2.6,1.7,1.7,2.2,1.8,4.6.5,1.4-.8,2.6-2.2,2.6-3.3s.5-2,1.1-2,.8.7.5,1.6a10.348,10.348,0,0,0-.6,2.4c0,1.7-3.2,4-5.6,4C388.9,576,388,575.4,388,574.4Z" fill="#0d4774"/>
      <path id="Path_114" data-name="Path 114" d="M403.8,575c-1.9-1.2-3.2-6.1-2.3-9,1-3.1,2.2-2.4,1.7,1.1-.5,3.2,1.5,8.2,3,7.3.4-.3.8,0,.8.5,0,1.3-1,1.3-3.2.1Z" fill="#0d4774"/>
      <path id="Path_115" data-name="Path 115" d="M409.7,575.1c-1.8-.7-1.8-.7,0-2.1,1-.8,1.5-1,1.1-.6a2.031,2.031,0,0,0,.3,2.3c1.3,1.4,1.2,1.5-1.4.4Z" fill="#0d4774"/>
      <path id="Path_116" data-name="Path 116" d="M418,569c0-5.8.3-6.8,1.5-6.4,1.1.5,1.5,2.2,1.5,7,0,5-.3,6.4-1.5,6.4S418,574.6,418,569Z" fill="#0d4774"/>
      <path id="Path_117" data-name="Path 117" d="M427,568c0-4.7.4-8,1-8s1,3.3,1,8-.4,8-1,8S427,572.7,427,568Z" fill="#0d4774"/>
      <path id="Path_118" data-name="Path 118" d="M434,568.5c0-4.3.3-7.5.7-7.2.7.7.5,13.9-.3,14.6-.2.2-.4-3.1-.4-7.4Z" fill="#0d4774"/>
      <path id="Path_119" data-name="Path 119" d="M443.8,568.5c.3-7,1.2-9,2.8-6.4a1.489,1.489,0,0,1-.2,1.8c-1,.7-1,1-1.2,7.6-.1,2.5-.5,4.5-.9,4.5-.5,0-.7-3.4-.5-7.5Z" fill="#0d4774"/>
      <path id="Path_120" data-name="Path 120" d="M452.8,569.3c-.2-3.8,0-7.2.4-7.7.5-.6.8-.5.8.3,0,.7.5.9,1.2.5.8-.5.9,0,.5,1.7a32.15,32.15,0,0,0-.7,7.2c0,7.2-1.8,5.6-2.2-2Z" fill="#0d4774"/>
      <path id="Path_121" data-name="Path 121" d="M461.8,569.3c-.3-6.4-.4-6.8-2.6-6.7-1.3.1-2.1-.3-2-.8a1.4,1.4,0,0,1,1.1-.9,11.521,11.521,0,0,0,2,.1c2.1,0,3.7,4.5,3.7,10,0,7.5-1.9,6-2.2-1.7Z" fill="#0d4774"/>
      <path id="Path_122" data-name="Path 122" d="M471.4,574.5c-.4-.8-.9-1.3-1.3-1-.4.2-.8-.2-.8-1,0-1.9.5-1.9,2.4.1a5.844,5.844,0,0,0,4.2,1.2c2-.2,2.5-.8,2.4-2.5-.2-1.3.2-2.3.7-2.3,1.7,0,1.1,3.6-.8,5.3-2.3,2.1-6.1,2.2-6.8.2Z" fill="#0d4774"/>
      <path id="Path_123" data-name="Path 123" d="M494.1,573.4c-2.2-2.6-2.3-3.1-.8-9.8.5-2.4,2.4-3.3,2.4-1.1,0,.8-.4,1.5-.9,1.5-1.2,0-1,6.8.2,9.1,1.4,2.4,3.5,2.4,6-.1,1.1-1.1,2-1.6,2-1.1,0,1.2-4,4.1-5.5,4.1-.6,0-2.2-1.2-3.4-2.6Z" fill="#0d4774"/>
      <path id="Path_124" data-name="Path 124" d="M511,575.4c-1.6-.5-4-4.8-4-7.4a6.542,6.542,0,0,1,1.3-3.3c1-1.5,1.2-1,1.2,3.2,0,5.4.3,6,3.3,6.6,2.8.5,4.7-2.1,4.7-6.4,0-3.4-1.3-6.3-2.5-5.6-.3.2-1.2,0-2-.6-1.2-.7-1.1-.9.6-.9a8.557,8.557,0,0,1,4.3,2.1c1.9,1.8,2.2,2.8,1.6,5.7a10.055,10.055,0,0,1-2.8,5.3c-2.2,1.8-3,2-5.7,1.3Z" fill="#0d4774"/>
      <path id="Path_125" data-name="Path 125" d="M361,569.8c0-1.1-.7-1.8-2-1.8-1.1,0-2-.7-2-1.5,0-1,1.1-1.5,3.5-1.5,3.3,0,3.5.2,3.5,3.3,0,2.3-.5,3.4-1.5,3.4A1.79,1.79,0,0,1,361,569.8Z" fill="#0d4774"/>
      <path id="Path_126" data-name="Path 126" d="M367.3,568.7a8.848,8.848,0,0,1,1.9-4.8l2-2.4-.6,2.5a27.384,27.384,0,0,0-.6,4.8c0,1.2-.6,2.2-1.4,2.2C367.9,571,367.3,570,367.3,568.7Z" fill="#0d4774"/>
      <path id="Path_127" data-name="Path 127" d="M378,570.2c0-1.7,1.2-4.2,2-4.2,1.2,0,.6,4.3-.7,4.8C378.6,571,378,570.7,378,570.2Z" fill="#0d4774"/>
      <path id="Path_128" data-name="Path 128" d="M411,567.1a5.409,5.409,0,0,0-1.6-3.5c-1.4-1.5-1.4-1.7,0-2.2,1-.4,1.6-1.8,1.6-4,0-1.9.5-3.4,1-3.4.6,0,1,3.2,1,7.5s-.4,7.5-1,7.5c-.5,0-1-.9-1-1.9Z" fill="#0d4774"/>
      <path id="Path_129" data-name="Path 129" d="M472,567.8c0-.9,3.6-.5,4.6.5.4.4-.5.6-1.9.5C473.2,568.7,472,568.2,472,567.8Z" fill="#0d4774"/>
      <path id="Path_130" data-name="Path 130" d="M501.3,563.9c.1-.6-.6-1.3-1.6-1.4-2.8-.5-3.2-1.4-.6-1.2,2.3.1,3.9,1.3,3.9,3,0,.4-.4.7-1,.7a.79.79,0,0,1-.7-1.1Z" fill="#0d4774"/>
      <path id="Path_131" data-name="Path 131" d="M420.3,560.6c-2.8-1.3-2.9-2-.3-4.6,2.1-2.1,8-2.8,8-.9,0,.5-.8.9-1.7.8a9.576,9.576,0,0,0-4,.5c-1.9.6-2.1,1.1-1.2,2.7.5,1.1,1.4,1.7,2,1.4.5-.4.9-.1.9.4,0,1.3-.7,1.2-3.7-.3Z" fill="#0d4774"/>
      <path id="Path_132" data-name="Path 132" d="M117.4,378.3c-1.4-12.7-.8-48.5,1-62.8,7-56.8,27.7-108,61.9-152.9A313.868,313.868,0,0,1,266,85.5c10.1-6.2,33.2-18,41.5-21.3,2.8-1.1,7.3-2.9,10-4,4.9-1.9,18.7-6.4,29.5-9.6,20.4-5.9,48.3-9.7,75.2-10.1,48.4-.8,88.8,7.3,132.8,26.7A312.443,312.443,0,0,1,698.7,197a309.089,309.089,0,0,1,37.2,106.1c3.2,21.4,3.5,24.9,1.6,24.9-.8,0-1.5.5-1.5,1,0,.6.6,1,1.4,1,1.1,0,1.6,2.2,2.1,8.8.8,8.5,0,36-1.2,43.5l-.6,3.7h-27l.7-4.7c1.5-11,1.8-36.6.6-51.3-6.5-83.1-46-155.9-111.8-206.3C568.9,99.7,533.6,83,493.5,73c-7.1-1.8-13.3-3.7-13.6-4.2-.4-.7-.8-.7-1,0-.3.7-2.9.6-7.9-.3-4.1-.8-14.9-1.9-24-2.6-9.6-.7-16.8-1.7-17.2-2.3-.5-.8-.8-.7-.8.2,0,.6-.9,1.2-2,1.2s-2-.6-2-1.2c0-.9-.2-1-.8-.2-.4.7-5.5,1.5-12.2,1.9-53.7,3.2-101.9,19.4-145,48.6C198.8,160.3,154.9,230.9,143.4,313c-1.9,13.4-2.6,56.1-1.1,67.3l.7,5.7H118.2l-.8-7.7Z" fill="#0d4774"/>
      <path id="Path_133" data-name="Path 133" d="M248.3,308.5c-1.8-.8-3.3-1.9-3.3-2.5s-.8-.9-1.8-.6c-1.8.6-6.2-2.6-6.2-4.5,0-.6-.4-.8-.8-.5-1,.6-5.2-3.8-5.2-5.4a.945.945,0,0,0-1-1c-1.2,0-3.1-7-2.3-8.3.3-.6.1-.7-.4-.4-1.9,1.2-.9-15.3,1.2-19.5,1-2.1,2.2-3.8,2.7-3.8.4,0,.8-.6.8-1.4,0-2.1,7.6-8.5,12.8-10.8,5-2.1,14.4-2.8,21.7-1.4,3.8.7,11.8,4.7,12.9,6.5.3.4-.8,2-2.3,3.5l-2.9,2.7-2.3-2.3c-1.3-1.3-3.2-2.2-4.2-2a2.082,2.082,0,0,1-2.3-1.1c-.3-.9-1.4-1.2-3-.9-1.7.3-2.4,0-2.4-1.2,0-2.7-5.6-2.1-6.5.7-.4,1.3-.8,1.7-1.2,1-.6-1.7-3.3-1.7-3.3,0,0,.7-.9,1.8-2,2.5-1.2.7-2,.8-2,.2,0-.5-.8-1-1.7-1-1.5,0-1.6.2-.3,1s1.1,1.3-1.2,3.3c-1.6,1.4-2.8,2.9-2.8,3.5,0,.5-1,.8-2.2.5-1.6-.3-1.9-.2-1,.4,1.8,1.3-.2,6.3-2.5,6.3-1.4,0-1.5.2-.4.9,2,1.3,2.1,9.9.1,10.5-1.2.3-1.2.4.2.5.9,0,2,1.3,2.6,2.9,3.3,9.1,14.5,17.1,22.4,15.8,5.7-.9,13.6-4.5,14-6.3a57.6,57.6,0,0,0,0-7.4l-.4-5.9h-9c-8.2,0-8.9-.2-8.3-1.7a29.111,29.111,0,0,0,1.2-3.5c.5-1.6,2-1.8,12.4-1.8h11.8l.3,12.7c.3,11.6.1,12.9-1.7,14.5-1,1-2.6,1.6-3.3,1.3-2-.7-8.2,1.6-8.2,3.1,0,1.4-5.4,2.6-5.8,1.3-.5-1.2-3.2-1.2-3.2.1,0,.6-.9,1-2,1s-2-.5-2-1.1c0-.8-.4-.8-1.2-.1-.9.7-2.3.6-4.5-.3Z" fill="#0d4774"/>
      <path id="Path_134" data-name="Path 134" d="M313,309.1c0-.5-1.5-.8-3.2-.6-4.1.3-5.8-.3-5.8-2.1,0-.7-.6-1.1-1.4-.8-3.1,1.2-10.6-8-10.6-13.2,0-1.2-.5-2.4-1.2-2.6-.8-.3-.8-2,.3-6.7a23.181,23.181,0,0,1,13.9-17c4.4-1.9,6.1-2.1,12.6-1.5,9.8.9,15.6,4.5,19.7,12.5,2.5,4.6,2.8,6.2,2.4,10.9-.7,7.5-2.3,10.9-5.1,10.3-1.7-.4-1.8-.3-.6.6,1.2.8,1.1,1.4-1,3.6-2.9,3.1-10,7-10,5.5,0-1.8-3-1.1-3.1.8,0,1-.3,1.2-.6.5-.6-1.5-4.3-1.7-4.3-.3a.945.945,0,0,1-1,1,.987.987,0,0,1-1-.9Zm6.1-7.3c5.5-1.8,9-4.8,11.1-9.5,2.6-5.9,1.6-10.3-3.3-15.6-2.2-2.2-3.9-4.4-3.9-4.9s-1-.6-2.1-.3c-1.3.4-2.5.2-2.9-.5-.6-.9-1.3-.9-2.9-.1-1.4.8-2.1.8-2.1.1,0-.5-.7-1-1.5-1a1.561,1.561,0,0,0-1.5,1.6c0,1.3-.2,1.3-1.7-.2-1.7-1.7-1.8-1.7-2.1,1-.3,2.1-.7,2.6-2.3,2.1-2.3-.8-4.7.4-3,1.5.8.5.7,1.5-.4,3.6-2.1,4-1.9,12.3.3,15.2,2.4,3.2,10.3,8.2,12.8,8.2a19.615,19.615,0,0,0,5.5-1.2Z" fill="#0d4774"/>
      <path id="Path_135" data-name="Path 135" d="M363.3,308.1c-1.2-1.3-2.6-1.9-3.6-1.5-1,.3-1.7.2-1.7-.4,0-.5-.8-.9-1.7-.8a3.979,3.979,0,0,1-2.9-2.2c-.6-1.3-1.5-2.3-2-2.2-3.1.6-6.6-9.9-5.8-17.4,1.4-14.5,19.6-23.9,34.2-17.6,2.8,1.2,4.9,2.6,4.6,3.1s.1.9.9.9c2.6,0,7.4,6.6,8.7,11.8,1.3,5.6.7,9.8-2.1,15.4-1.5,2.9-2.3,3.5-4.1,3.1-1.9-.4-2-.3-.8.6,1.3,1,1.1,1.5-1.5,3.6-1.6,1.4-3.1,2-3.3,1.5a1.875,1.875,0,0,0-1.8-1c-.7,0-1.1.6-.8,1.4.6,1.7-2.9,2.7-6.7,1.9-1.8-.3-2.9-.1-2.9.6,0,.6-.7,1.1-1.5,1.1a1.443,1.443,0,0,1-1.5-1.2q0-1.5-.9,0c-.7,1.1-1.2,1-2.8-.7Zm13.3-7.6c9.3-4.7,12.2-14,6.9-21.9-1.4-2-2.5-4.1-2.5-4.7s-.5-.7-1.2-.3c-.6.4-1.7-.1-2.5-1.1-.7-1.1-1.3-1.4-1.3-.8s-.9.9-2,.6-2-1-2-1.5c0-.6-.7-.5-1.5.2-1,.9-1.5.9-1.5.1,0-.6-.9-1.1-2-1.1s-2,.4-2,.9-.9.7-2,.4c-1.4-.4-2,0-2,1a4.053,4.053,0,0,1-1.9,2.9c-2,1.5-4.5,5.9-5.5,10.1-1.4,5.9,4.2,13.8,11.9,16.5,4.5,1.6,5.6,1.4,11.1-1.3Z" fill="#0d4774"/>
      <path id="Path_136" data-name="Path 136" d="M416.2,308.3a8.7,8.7,0,0,0-4.3-2.1c-3.1-.3-9.3-7.4-10.8-12.2-5.9-19.9,14.1-36.8,32.5-27.5a53.616,53.616,0,0,0,5.2,2.5c.1,0,.2-4.7.2-10.5,0-10.4,0-10.6,2.6-11.5a13.639,13.639,0,0,1,4.5-1c1.8,0,1.9,1,1.9,31.4v31.4l-3.6.7c-2,.3-3.7.5-3.9.3-.7-.8-.9-6.4-.2-7.6.5-.6.4-1.2-.2-1.2-2,0-2.6.5-2.3,1.9.2.7-.7,2.1-1.9,3-3.2,2.2-8.9,4.2-8.9,3,0-.5-.7-.9-1.5-.9s-1.5.5-1.5,1c0,1.7-2.8,1.1-3.3-.7-.4-1.7-.5-1.7-.6,0,0,.9-.5,1.7-1.1,1.7a6.825,6.825,0,0,1-2.8-1.7Zm16.7-8.2a23.146,23.146,0,0,0,4.1-3.6c2.2-2.3,2.5-3.6,2.5-9.6,0-6.9,0-7-4.5-11.2-3.2-3.2-5-4.2-6.7-3.9-1.3.2-2.3-.1-2.3-.7,0-.9-.5-.9-2-.1-1.4.7-2,.7-2,0,0-.5-.7-1-1.5-1s-1.5.4-1.5.9-.9.7-2,.4c-1.5-.4-2,0-2,1.5a3.069,3.069,0,0,1-1.5,2.6,7.079,7.079,0,0,0-2.7,3.1,3.938,3.938,0,0,1-3.2,2.5c-1.2,0-1.6.3-1,.8.6.4,1.3,2.9,1.6,5.5a16.84,16.84,0,0,0,24.7,12.8Z" fill="#0d4774"/>
      <path id="Path_137" data-name="Path 137" d="M453.6,178.5A10.87,10.87,0,0,0,455,173v-3.5l-21.5.3-21.6.3.2-14.6c.1-13,.3-14.6,1.9-15.5,1.1-.6,15.9-1,36.9-1H486v3c0,2.2-.4,2.8-1.5,2.4-.8-.4-1.5-.2-1.5.4a1.575,1.575,0,0,0,1.2,1.4c.9.3,1.3,5.2,1.6,17.1l.4,16.6-17,.3C452.5,180.5,452.3,180.5,453.6,178.5Z" fill="#0d4774"/>
    </g>
  </g>
</svg>
