<svg xmlns="http://www.w3.org/2000/svg" width="303.488" height="87" viewBox="0 0 303.488 87">
  <g id="Group_1" data-name="Group 1" transform="translate(-398.987 -139.61)">
    <text id="magia" transform="translate(454.987 185.61)" fill="#fff" font-size="37" font-family="ElMessiri-Bold, El Messiri" font-weight="700" letter-spacing="0.82em"><tspan x="0" y="0">MAGIA</tspan></text>
    <text id="hospitality_food_consultancy" data-name="hospitality &amp; food consultancy" transform="translate(455.987 208.61)" fill="#fff" font-size="11" font-family="Oswald-Light, Oswald" font-weight="300" letter-spacing="0.133em"><tspan x="0" y="0">HOSPITALITY &amp; FOOD CONSULTANCY</tspan></text>
    <path id="Subtraction_1" data-name="Subtraction 1" d="M44.78,87a45.641,45.641,0,0,1-17.43-3.417,44.73,44.73,0,0,1-14.234-9.324,43.293,43.293,0,0,1-9.6-13.827,42.5,42.5,0,0,1,0-33.865,43.327,43.327,0,0,1,9.6-13.827A44.7,44.7,0,0,1,27.35,3.419,45.632,45.632,0,0,1,44.78,0,46.335,46.335,0,0,1,54,.924C33.395,5.113,18.439,23.018,18.439,43.5S33.395,81.887,54,86.077A46.275,46.275,0,0,1,44.78,87Z" transform="translate(398.987 139.61)" fill="#fff"/>
    <line id="Line_1" data-name="Line 1" x2="56.818" transform="translate(645.657 206.843)" fill="none" stroke="#fff" stroke-width="1"/>
  </g>
</svg>
